<?xml version="1.0" encoding="utf-8"?>
<!-- Generator: Adobe Illustrator 23.1.1, SVG Export Plug-In . SVG Version: 6.00 Build 0)  -->
<svg version="1.1" xmlns="http://www.w3.org/2000/svg" xmlns:xlink="http://www.w3.org/1999/xlink" x="0px" y="0px"
	 viewBox="0 0 114 66" style="enable-background:new 0 0 114 66;" xml:space="preserve">
<style type="text/css">
	.st0{display:none;}
	.st1{display:inline;fill-rule:evenodd;clip-rule:evenodd;fill:#E092BB;}
	.st2{fill-rule:evenodd;clip-rule:evenodd;fill:#FFFFFF;}
	.st3{opacity:0;fill-rule:evenodd;clip-rule:evenodd;fill:#FFFFFF;}
	.st4{fill:#FFFFFF;}
</style>
<g id="Layer_2" class="st0">
	<rect x="-1.5" y="-1.4" class="st1" width="116.5" height="68.2"/>
</g>
<g id="Layer_1">
	<line class="st2" x1="113.5" y1="0" x2="114" y2="0.9"/>
	<polyline class="st2" points="8.4,61.5 5.3,63.2 4.8,62.3 7.9,60.6 	"/>
	<path id="Fill-116" class="st2" d="M0.5,66L0,65.1l3.1-1.8l0.5,0.9L0.5,66z"/>
	<polyline class="st3" points="114,0.9 110.9,2.7 110.4,1.8 113.5,0 	"/>
	<polygon class="st3" points="106.1,5.4 105.6,4.5 108.7,2.8 109.2,3.7 	"/>
	<polygon class="st3" points="101.3,8.2 100.8,7.3 103.9,5.5 104.4,6.4 	"/>
	<polygon class="st3" points="96.5,10.9 96,10 99.1,8.3 99.6,9.2 	"/>
	<polygon class="st3" points="91.7,13.7 91.2,12.8 94.3,11 94.8,11.9 	"/>
	<polygon class="st3" points="86.9,16.4 86.4,15.5 89.5,13.8 90,14.7 	"/>
	<polygon class="st3" points="82.1,19.2 81.6,18.3 84.7,16.5 85.2,17.4 	"/>
	<polygon class="st3" points="77.3,22 76.8,21 79.9,19.3 80.4,20.2 	"/>
	<polygon class="st3" points="72.5,24.7 72,23.8 75.1,22 75.6,22.9 	"/>
	<polygon class="st3" points="67.7,27.5 67.2,26.5 70.3,24.8 70.8,25.7 	"/>
	<polygon class="st2" points="62.9,30.2 62.4,29.3 65.5,27.5 66,28.5 	"/>
	<polygon class="st2" points="58.1,33 57.6,32 60.7,30.3 61.2,31.2 	"/>
	<polygon class="st2" points="53.3,35.7 52.8,34.8 55.9,33 56.4,34 	"/>
	<polygon class="st2" points="48.5,38.5 48,37.5 51.1,35.8 51.6,36.7 	"/>
	<polygon class="st2" points="43.7,41.2 43.2,40.3 46.3,38.5 46.8,39.5 	"/>
	<g id="XMLID_1_">
		<g>
			<polygon class="st4" points="41.5,41.3 42,42.2 38.9,44 38.4,43 			"/>
		</g>
		<g>
		</g>
	</g>
	<polygon class="st2" points="34.1,46.7 33.6,45.8 36.7,44 37.2,45 	"/>
	<polygon class="st2" points="29.3,49.5 28.8,48.6 31.9,46.8 32.4,47.7 	"/>
	<polygon class="st2" points="24.5,52.2 24,51.3 27.1,49.6 27.6,50.5 	"/>
	<polygon class="st2" points="19.7,55 19.2,54.1 22.3,52.3 22.8,53.2 	"/>
	<polygon class="st2" points="14.9,57.7 14.4,56.8 17.5,55.1 18,56 	"/>
	<polygon class="st2" points="10.1,60.5 9.6,59.6 12.7,57.8 13.2,58.7 	"/>
	<line class="st3" x1="7.9" y1="60.6" x2="8.4" y2="61.5"/>
</g>
</svg>
