<?xml version="1.0" encoding="utf-8"?>
<!-- Generator: Adobe Illustrator 23.1.1, SVG Export Plug-In . SVG Version: 6.00 Build 0)  -->
<svg version="1.1" id="Layer_1" xmlns="http://www.w3.org/2000/svg" xmlns:xlink="http://www.w3.org/1999/xlink" x="0px" y="0px"
	 viewBox="0 0 289.2 82.3" style="enable-background:new 0 0 289.2 82.3;" xml:space="preserve">
<style type="text/css">
	.st0{fill:#E5E5E5;}
	.st1{fill:#303030;}
	.st2{fill:#B8BEBD;}
	.st3{fill:#768080;}
	.st4{fill:#808383;}
	.st5{fill:#231F20;}
	.st6{fill:#424242;}
	.st7{fill:#636F6D;}
	.st8{fill:#908D87;}
	.st9{fill:#151515;}
	.st10{fill:#AE3025;}
	.st11{fill:#6C1F1A;}
	.st12{fill:#DD655F;}
	.st13{fill:#434343;}
	.st14{fill:#808384;}
	.st15{fill:none;}
	.st16{fill:#63706E;}
	.st17{fill:#B9BEBD;}
	.st18{fill:#010101;}
	.st19{fill:#171617;}
	.st20{fill:#AF3226;}
	.st21{fill:#6D201A;}
	.st22{fill:#DE6660;}
	.st23{fill:#768081;}
</style>
<ellipse class="st0" cx="281.9" cy="37.9" rx="7.2" ry="25"/>
<ellipse class="st0" cx="7.2" cy="37.9" rx="7.2" ry="25"/>
<g>
	<ellipse class="st1" cx="9" cy="39.2" rx="3.5" ry="3.5"/>
	<ellipse class="st2" cx="9.4" cy="39.7" rx="3.5" ry="3.5"/>
	<ellipse class="st3" cx="9.4" cy="39.9" rx="2.7" ry="2.7"/>
	<ellipse class="st4" cx="9.6" cy="40.1" rx="2.7" ry="2.7"/>
	<line class="st5" x1="12.7" y1="36.2" x2="12.7" y2="43.9"/>
	<path class="st6" d="M12.7,45c-0.6,0-1-0.5-1-1v-7.8c0-0.6,0.5-1,1-1s1,0.5,1,1v7.8C13.7,44.5,13.3,45,12.7,45z"/>
	<path class="st2" d="M8,39l1.7,0.6c0,0,1.2,0,1.5-0.4l0.4-0.9C11.6,38.3,9.9,37.9,8,39z"/>
	<path class="st7" d="M8,41.9l1.7,0.6c0,0,1.2,0,1.5-0.4l0.4-0.9C11.6,41.2,9.9,40.8,8,41.9z"/>
	<path class="st8" d="M9.7,39.6v2.9c0,0,1.2,0,1.5-0.4v-2.9C11.2,39.2,10.7,39.6,9.7,39.6z"/>
	<polygon class="st2" points="8,39 9.7,39.6 9.7,42.6 8,41.9 	"/>
	<polygon class="st2" points="11.6,38.3 11.2,39.2 11.2,41.9 11.6,40.2 	"/>
	<path class="st2" d="M9.3,40.5v1l2.7,1.8c0,0,1.2,0.5,1.7-0.2v-0.9c0,0-0.5,0.6-1.7,0.2c0,0-0.3-0.1-0.3-0.3l0-1.8L11.3,40
		c0,0-0.2,0.4-0.6,0.5c-0.4,0.1-0.9,0.1-0.9,0.1L9.3,40.5z"/>
	<path class="st5" d="M9.2,39.3c-0.1,0-0.1,0-0.2,0c-1-0.2-2.9-1.9-3.7-4.2c-1.1-3.1-0.8-8.9,0.6-11.8c0.4-0.8,1-1.3,1.6-1.4
		c1.4-0.2,2.8,1.5,2.9,1.6c0.1,0.2,0.1,0.4-0.1,0.5c-0.2,0.1-0.4,0.1-0.5-0.1c-0.3-0.4-1.3-1.4-2.2-1.3c-0.4,0-0.7,0.4-1,1
		C5.3,26.3,5,31.8,6,34.8c0.7,2.1,2.4,3.5,3,3.7c0,0,0-0.1,0-0.1c-0.1-0.2,0-0.4,0.2-0.5c0.2-0.1,0.4,0,0.5,0.2
		c0.1,0.4,0.1,0.7-0.1,0.9C9.6,39.1,9.5,39.3,9.2,39.3z"/>
	<path class="st2" d="M26.7,38.8c-0.1-0.1-0.1-0.2-0.2-0.3L26.1,38L15,22.4l-0.5-0.7c-1.1-1.1-3.5-0.9-5.5,0.5
		c-2.1,1.4-3.2,3.7-2.4,5.1L7,27.9l11.3,15.8l0.3,0.4c0.2,0.2,0.3,0.4,0.5,0.6c1.2,0.8,3.3,0.6,5.2-0.7
		C26.2,42.5,27.2,40.3,26.7,38.8z"/>
	<path d="M24.1,43.7c2-1.3,2.9-3.4,2.3-4.7L26,38.3c-1.1-1-3.3-0.8-5.2,0.5c-2,1.4-3,3.5-2.3,4.8l0.3,0.5
		C19.9,45.2,22.2,45,24.1,43.7z"/>
	<path class="st6" d="M23.9,43.2c1.6-1.1,2.3-2.7,1.8-3.8l-0.4-0.5c-0.9-0.8-2.6-0.7-4.1,0.4c-1.6,1.1-2.4,2.8-1.8,3.8l0.3,0.4
		C20.5,44.3,22.3,44.2,23.9,43.2z"/>
	<path d="M23.5,42.6c1-0.7,1.5-1.8,1.2-2.5l-0.2-0.3c-0.6-0.5-1.7-0.4-2.7,0.2c-1.1,0.7-1.6,1.8-1.2,2.5l0.2,0.2
		C21.3,43.4,22.5,43.3,23.5,42.6z"/>
	<path d="M23.8,42.9c1-0.7,1.5-1.8,1.2-2.5l-0.2-0.3c-0.6-0.5-1.7-0.4-2.7,0.2c-1.1,0.7-1.6,1.8-1.2,2.5l0.2,0.2
		C21.6,43.7,22.8,43.6,23.8,42.9z"/>
	<path class="st9" d="M23.7,42.8c0.9-0.6,1.4-1.6,1.1-2.2l-0.2-0.3c-0.5-0.5-1.5-0.4-2.4,0.2c-0.9,0.6-1.4,1.6-1.1,2.2l0.2,0.2
		C21.7,43.5,22.7,43.4,23.7,42.8z"/>
	<ellipse transform="matrix(0.7122 -0.702 0.702 0.7122 -23.1161 25.943)" class="st10" cx="20.1" cy="41.2" rx="0.3" ry="0.2"/>
	<polygon class="st10" points="20.3,40.9 20.5,41.1 20,41.5 19.8,41.3 	"/>
	<ellipse transform="matrix(0.7122 -0.702 0.702 0.7122 -23.179 26.0817)" class="st10" cx="20.2" cy="41.3" rx="0.3" ry="0.2"/>
	<path class="st11" d="M20.2,41.5C20.1,41.5,20.1,41.5,20.2,41.5c-0.1-0.1-0.1-0.2,0-0.3c0,0,0.1-0.1,0.2-0.1c-0.1,0-0.2,0-0.2,0.1
		c-0.1,0.1-0.1,0.2,0,0.3C20.1,41.5,20.1,41.5,20.2,41.5z"/>
	<ellipse transform="matrix(0.7122 -0.702 0.702 0.7122 -23.0861 26.1356)" class="st12" cx="20.3" cy="41.2" rx="0" ry="0"/>
	<ellipse transform="matrix(0.7122 -0.702 0.702 0.7122 -22.5444 25.986)" class="st10" cx="20.4" cy="40.5" rx="0.3" ry="0.2"/>
	<polygon class="st10" points="20.6,40.3 20.8,40.4 20.3,40.8 20.2,40.7 	"/>
	<ellipse transform="matrix(0.7122 -0.702 0.702 0.7122 -22.6073 26.1247)" class="st10" cx="20.6" cy="40.6" rx="0.3" ry="0.2"/>
	<path class="st11" d="M20.5,40.8C20.5,40.8,20.5,40.8,20.5,40.8c-0.1-0.1-0.1-0.2,0-0.3c0,0,0.1-0.1,0.2-0.1c-0.1,0-0.2,0-0.2,0.1
		c-0.1,0.1-0.1,0.2,0,0.3C20.4,40.8,20.4,40.8,20.5,40.8z"/>
	<ellipse transform="matrix(0.7122 -0.702 0.702 0.7122 -22.5144 26.1787)" class="st12" cx="20.7" cy="40.5" rx="0" ry="0"/>
	<ellipse transform="matrix(0.7122 -0.702 0.702 0.7122 -21.9582 26.1814)" class="st10" cx="20.9" cy="39.9" rx="0.3" ry="0.2"/>
	<polygon class="st10" points="21.2,39.6 21.3,39.8 20.9,40.2 20.7,40 	"/>
	<ellipse transform="matrix(0.7122 -0.702 0.702 0.7122 -22.0212 26.3201)" class="st10" cx="21.1" cy="40" rx="0.3" ry="0.2"/>
	<path class="st11" d="M21,40.2C21,40.2,21,40.2,21,40.2c-0.1-0.1-0.1-0.2,0-0.3c0,0,0.1-0.1,0.2-0.1c-0.1,0-0.2,0-0.2,0.1
		c-0.1,0.1-0.1,0.2,0,0.3C20.9,40.2,21,40.2,21,40.2z"/>
	<ellipse transform="matrix(0.7122 -0.702 0.702 0.7122 -21.9283 26.374)" class="st12" cx="21.2" cy="39.9" rx="0" ry="0"/>
	<ellipse transform="matrix(0.7122 -0.702 0.702 0.7122 -21.467 26.5177)" class="st10" cx="21.6" cy="39.4" rx="0.3" ry="0.2"/>
	<polygon class="st10" points="21.8,39.2 22,39.4 21.5,39.8 21.3,39.6 	"/>
	<ellipse transform="matrix(0.7122 -0.702 0.702 0.7122 -21.5299 26.6564)" class="st10" cx="21.7" cy="39.6" rx="0.3" ry="0.2"/>
	<path class="st11" d="M21.7,39.8C21.7,39.8,21.7,39.8,21.7,39.8c-0.1-0.1-0.1-0.2,0-0.3c0,0,0.1-0.1,0.2-0.1c-0.1,0-0.2,0-0.2,0.1
		c-0.1,0.1-0.1,0.2,0,0.3C21.6,39.8,21.6,39.8,21.7,39.8z"/>
	<ellipse transform="matrix(0.7122 -0.702 0.702 0.7122 -21.437 26.7103)" class="st12" cx="21.9" cy="39.5" rx="0" ry="0"/>
	<ellipse transform="matrix(0.7122 -0.702 0.702 0.7122 -20.9936 26.9228)" class="st10" cx="22.3" cy="39.1" rx="0.3" ry="0.2"/>
	<polygon class="st10" points="22.5,38.8 22.7,39 22.3,39.4 22.1,39.2 	"/>
	<ellipse transform="matrix(0.7122 -0.702 0.702 0.7122 -21.0565 27.0615)" class="st10" cx="22.5" cy="39.2" rx="0.3" ry="0.2"/>
	<path class="st11" d="M22.4,39.4C22.4,39.4,22.4,39.4,22.4,39.4c-0.1-0.1-0.1-0.2,0-0.3c0,0,0.1-0.1,0.2-0.1c-0.1,0-0.2,0-0.2,0.1
		c-0.1,0.1-0.1,0.2,0,0.3C22.3,39.4,22.4,39.4,22.4,39.4z"/>
	<ellipse transform="matrix(0.7122 -0.702 0.702 0.7122 -20.9636 27.1154)" class="st12" cx="22.6" cy="39.1" rx="0" ry="0"/>
	<ellipse transform="matrix(0.7122 -0.702 0.702 0.7122 -20.5903 27.4356)" class="st10" cx="23.2" cy="38.8" rx="0.3" ry="0.2"/>
	<polygon class="st10" points="23.4,38.6 23.5,38.8 23.1,39.2 22.9,39 	"/>
	<ellipse transform="matrix(0.7122 -0.702 0.702 0.7122 -20.6533 27.5743)" class="st10" cx="23.3" cy="39" rx="0.3" ry="0.2"/>
	<path class="st11" d="M23.2,39.2C23.2,39.2,23.2,39.2,23.2,39.2c-0.1-0.1-0.1-0.2,0-0.3c0,0,0.1-0.1,0.2-0.1c-0.1,0-0.2,0-0.2,0.1
		c-0.1,0.1-0.1,0.2,0,0.3C23.1,39.2,23.2,39.2,23.2,39.2z"/>
	<ellipse transform="matrix(0.7122 -0.702 0.702 0.7122 -20.5604 27.6283)" class="st12" cx="23.4" cy="38.9" rx="0" ry="0"/>
	<ellipse transform="matrix(0.7122 -0.702 0.702 0.7122 -20.326 27.9704)" class="st10" cx="23.9" cy="38.8" rx="0.3" ry="0.2"/>
	<polygon class="st10" points="24.1,38.5 24.3,38.7 23.9,39.1 23.7,38.9 	"/>
	<ellipse transform="matrix(0.7122 -0.702 0.702 0.7122 -20.3889 28.109)" class="st10" cx="24.1" cy="38.9" rx="0.3" ry="0.2"/>
	<path class="st11" d="M24,39.1C24,39.1,24,39.1,24,39.1c-0.1-0.1-0.1-0.2,0-0.3c0,0,0.1-0.1,0.2-0.1c-0.1,0-0.2,0-0.2,0.1
		c-0.1,0.1-0.1,0.2,0,0.3C23.9,39.1,24,39.1,24,39.1z"/>
	<ellipse transform="matrix(0.7122 -0.702 0.702 0.7122 -20.296 28.163)" class="st12" cx="24.2" cy="38.8" rx="0" ry="0"/>
	<ellipse transform="matrix(0.7122 -0.702 0.702 0.7122 -20.2814 28.3976)" class="st10" cx="24.5" cy="38.9" rx="0.3" ry="0.2"/>
	<polygon class="st10" points="24.7,38.7 24.9,38.9 24.4,39.3 24.2,39.1 	"/>
	<ellipse transform="matrix(0.7122 -0.702 0.702 0.7122 -20.3443 28.5363)" class="st10" cx="24.6" cy="39.1" rx="0.3" ry="0.2"/>
	<path class="st11" d="M24.6,39.3C24.6,39.3,24.5,39.3,24.6,39.3c-0.1-0.1-0.1-0.2,0-0.3c0,0,0.1-0.1,0.2-0.1c-0.1,0-0.2,0-0.2,0.1
		c-0.1,0.1-0.1,0.2,0,0.3C24.5,39.3,24.5,39.3,24.6,39.3z"/>
	<ellipse transform="matrix(0.7122 -0.702 0.702 0.7122 -20.2514 28.5902)" class="st12" cx="24.7" cy="39" rx="0" ry="0"/>
	<ellipse transform="matrix(0.7122 -0.702 0.702 0.7122 -20.3079 28.8387)" class="st10" cx="25" cy="39.2" rx="0.3" ry="0.2"/>
	<polygon class="st10" points="25.2,39 25.4,39.1 24.9,39.5 24.8,39.4 	"/>
	<ellipse transform="matrix(0.7122 -0.702 0.702 0.7122 -20.3709 28.9774)" class="st10" cx="25.2" cy="39.3" rx="0.3" ry="0.2"/>
	<path class="st11" d="M25.1,39.5C25.1,39.5,25.1,39.5,25.1,39.5c-0.1-0.1-0.1-0.2,0-0.3c0,0,0.1-0.1,0.2-0.1c-0.1,0-0.2,0-0.2,0.1
		c-0.1,0.1-0.1,0.2,0,0.3C25,39.5,25,39.5,25.1,39.5z"/>
	<ellipse transform="matrix(0.7122 -0.702 0.702 0.7122 -20.278 29.0313)" class="st12" cx="25.3" cy="39.2" rx="0" ry="0"/>
	<ellipse transform="matrix(0.7122 -0.702 0.702 0.7122 -20.5505 29.184)" class="st10" cx="25.3" cy="39.7" rx="0.3" ry="0.2"/>
	<polygon class="st10" points="25.5,39.4 25.7,39.6 25.2,40 25.1,39.8 	"/>
	<ellipse transform="matrix(0.7122 -0.702 0.702 0.7122 -20.6134 29.3226)" class="st10" cx="25.5" cy="39.8" rx="0.3" ry="0.2"/>
	<path class="st11" d="M25.4,40C25.4,40,25.4,40,25.4,40c-0.1-0.1-0.1-0.2,0-0.3c0,0,0.1-0.1,0.2-0.1c-0.1,0-0.2,0-0.2,0.1
		c-0.1,0.1-0.1,0.2,0,0.3C25.3,40,25.3,40,25.4,40z"/>
	<ellipse transform="matrix(0.7122 -0.702 0.702 0.7122 -20.5205 29.3766)" class="st12" cx="25.6" cy="39.7" rx="0" ry="0"/>
	<ellipse transform="matrix(0.7122 -0.702 0.702 0.7122 -20.8636 29.4506)" class="st10" cx="25.5" cy="40.2" rx="0.3" ry="0.2"/>
	<polygon class="st10" points="25.7,39.9 25.9,40.1 25.4,40.5 25.2,40.3 	"/>
	<ellipse transform="matrix(0.7122 -0.702 0.702 0.7122 -20.9266 29.5893)" class="st10" cx="25.6" cy="40.3" rx="0.3" ry="0.2"/>
	<path class="st11" d="M25.6,40.5C25.5,40.5,25.5,40.5,25.6,40.5c-0.1-0.1-0.1-0.2,0-0.3c0,0,0.1-0.1,0.2-0.1c-0.1,0-0.2,0-0.2,0.1
		c-0.1,0.1-0.1,0.2,0,0.3C25.5,40.5,25.5,40.5,25.6,40.5z"/>
	<ellipse transform="matrix(0.7122 -0.702 0.702 0.7122 -20.8337 29.6432)" class="st12" cx="25.7" cy="40.2" rx="0" ry="0"/>
	<ellipse transform="matrix(0.7122 -0.702 0.702 0.7122 -21.2493 29.6326)" class="st10" cx="25.5" cy="40.7" rx="0.3" ry="0.2"/>
	<polygon class="st10" points="25.7,40.5 25.8,40.7 25.4,41 25.3,40.9 	"/>
	<ellipse transform="matrix(0.7122 -0.702 0.702 0.7122 -21.3007 29.7459)" class="st10" cx="25.6" cy="40.8" rx="0.3" ry="0.2"/>
	<path class="st11" d="M25.6,41C25.6,41,25.6,41,25.6,41c-0.1-0.1-0.1-0.2,0-0.2c0,0,0.1-0.1,0.1-0.1c-0.1,0-0.1,0-0.2,0.1
		c-0.1,0.1-0.1,0.2,0,0.2C25.5,41,25.5,41,25.6,41z"/>
	<ellipse transform="matrix(0.7122 -0.702 0.702 0.7122 -21.2248 29.79)" class="st12" cx="25.7" cy="40.8" rx="0" ry="0"/>
	<ellipse transform="matrix(0.7122 -0.702 0.702 0.7122 -21.6193 29.6576)" class="st10" cx="25.4" cy="41.2" rx="0.3" ry="0.2"/>
	<polygon class="st10" points="25.5,41 25.7,41.2 25.3,41.5 25.1,41.3 	"/>
	<ellipse transform="matrix(0.7122 -0.702 0.702 0.7122 -21.6707 29.7709)" class="st10" cx="25.5" cy="41.3" rx="0.3" ry="0.2"/>
	<path class="st11" d="M25.4,41.5C25.4,41.5,25.4,41.5,25.4,41.5c-0.1-0.1-0.1-0.2,0-0.2c0,0,0.1-0.1,0.1-0.1c-0.1,0-0.1,0-0.2,0.1
		c-0.1,0.1-0.1,0.2,0,0.2C25.3,41.5,25.4,41.5,25.4,41.5z"/>
	<ellipse transform="matrix(0.7122 -0.702 0.702 0.7122 -21.5948 29.815)" class="st12" cx="25.6" cy="41.2" rx="0" ry="0"/>
	<ellipse transform="matrix(0.7122 -0.702 0.702 0.7122 -24.2362 26.2682)" class="st10" cx="19.9" cy="42.7" rx="0.3" ry="0.2"/>
	<polygon class="st10" points="20.1,42.5 20.3,42.6 19.8,43.1 19.7,42.9 	"/>
	<ellipse transform="matrix(0.7122 -0.702 0.702 0.7122 -24.2991 26.4068)" class="st10" cx="20.1" cy="42.8" rx="0.3" ry="0.2"/>
	<path class="st11" d="M20,43C20,43,20,43,20,43c-0.1-0.1-0.1-0.2,0-0.3c0,0,0.1-0.1,0.2-0.1c-0.1,0-0.2,0-0.2,0.1
		c-0.1,0.1-0.1,0.2,0,0.3C19.9,43,19.9,43,20,43z"/>
	<ellipse transform="matrix(0.7122 -0.702 0.702 0.7122 -24.2062 26.4608)" class="st12" cx="20.2" cy="42.7" rx="0" ry="0"/>
	<ellipse transform="matrix(0.7122 -0.702 0.702 0.7122 -24.4615 26.5704)" class="st10" cx="20.2" cy="43.1" rx="0.3" ry="0.2"/>
	<polygon class="st10" points="20.4,42.9 20.6,43.1 20.1,43.5 19.9,43.3 	"/>
	<ellipse transform="matrix(0.7122 -0.702 0.702 0.7122 -24.5244 26.7091)" class="st10" cx="20.3" cy="43.3" rx="0.3" ry="0.2"/>
	<path class="st11" d="M20.3,43.5C20.2,43.5,20.2,43.5,20.3,43.5c-0.1-0.1-0.1-0.2,0-0.3c0,0,0.1-0.1,0.2-0.1c-0.1,0-0.2,0-0.2,0.1
		c-0.1,0.1-0.1,0.2,0,0.3C20.2,43.5,20.2,43.5,20.3,43.5z"/>
	<ellipse transform="matrix(0.7122 -0.702 0.702 0.7122 -24.4315 26.763)" class="st12" cx="20.4" cy="43.2" rx="0" ry="0"/>
	<ellipse transform="matrix(0.7122 -0.702 0.702 0.7122 -23.9826 26.0998)" class="st10" cx="19.8" cy="42.3" rx="0.3" ry="0.2"/>
	<polygon class="st10" points="20,42.1 20.2,42.3 19.8,42.7 19.6,42.5 	"/>
	<ellipse transform="matrix(0.7122 -0.702 0.702 0.7122 -24.0455 26.2385)" class="st10" cx="20" cy="42.4" rx="0.3" ry="0.2"/>
	<path class="st11" d="M19.9,42.6C19.9,42.6,19.9,42.6,19.9,42.6c-0.1-0.1-0.1-0.2,0-0.3c0,0,0.1-0.1,0.2-0.1c-0.1,0-0.2,0-0.2,0.1
		c-0.1,0.1-0.1,0.2,0,0.3C19.8,42.6,19.9,42.7,19.9,42.6z"/>
	<ellipse transform="matrix(0.7122 -0.702 0.702 0.7122 -23.9526 26.2924)" class="st12" cx="20.1" cy="42.4" rx="0" ry="0"/>
	<ellipse transform="matrix(0.7122 -0.702 0.702 0.7122 -23.5647 25.9573)" class="st10" cx="19.9" cy="41.7" rx="0.3" ry="0.2"/>
	<polygon class="st10" points="20.1,41.5 20.3,41.7 19.8,42.1 19.6,41.9 	"/>
	<ellipse transform="matrix(0.7122 -0.702 0.702 0.7122 -23.6277 26.096)" class="st10" cx="20" cy="41.9" rx="0.3" ry="0.2"/>
	<path class="st11" d="M20,42.1C19.9,42.1,19.9,42.1,20,42.1c-0.1-0.1-0.1-0.2,0-0.3c0,0,0.1-0.1,0.2-0.1c-0.1,0-0.2,0-0.2,0.1
		c-0.1,0.1-0.1,0.2,0,0.3C19.9,42.1,19.9,42.1,20,42.1z"/>
	<ellipse transform="matrix(0.7122 -0.702 0.702 0.7122 -23.5348 26.1499)" class="st12" cx="20.1" cy="41.8" rx="0" ry="0"/>
	<ellipse transform="matrix(0.7122 -0.702 0.702 0.7122 -24.6499 26.8569)" class="st10" cx="20.4" cy="43.5" rx="0.2" ry="0.2"/>
	<polygon class="st10" points="20.6,43.3 20.7,43.5 20.4,43.8 20.2,43.6 	"/>
	<ellipse transform="matrix(0.7122 -0.702 0.702 0.7122 -24.6994 26.966)" class="st10" cx="20.5" cy="43.6" rx="0.2" ry="0.2"/>
	<path class="st11" d="M20.5,43.8C20.5,43.8,20.5,43.8,20.5,43.8c-0.1-0.1-0.1-0.2,0-0.2c0,0,0.1-0.1,0.1-0.1c-0.1,0-0.1,0-0.2,0.1
		C20.4,43.6,20.3,43.7,20.5,43.8C20.4,43.8,20.5,43.8,20.5,43.8z"/>
	<ellipse transform="matrix(0.7122 -0.702 0.702 0.7122 -24.6264 27.0084)" class="st12" cx="20.6" cy="43.5" rx="0" ry="0"/>
	<ellipse transform="matrix(0.7122 -0.702 0.702 0.7122 -24.6699 27.1736)" class="st10" cx="20.8" cy="43.7" rx="0.2" ry="0.2"/>
	<polygon class="st10" points="21,43.5 21.1,43.6 20.7,44 20.6,43.8 	"/>
	<ellipse transform="matrix(0.7122 -0.702 0.702 0.7122 -24.7193 27.2827)" class="st10" cx="20.9" cy="43.8" rx="0.2" ry="0.2"/>
	<path class="st11" d="M20.9,43.9C20.9,43.9,20.8,43.9,20.9,43.9c-0.1-0.1-0.1-0.2,0-0.2c0,0,0.1-0.1,0.1-0.1c-0.1,0-0.1,0-0.2,0.1
		C20.7,43.8,20.7,43.9,20.9,43.9C20.8,43.9,20.8,44,20.9,43.9z"/>
	<ellipse transform="matrix(0.7122 -0.702 0.702 0.7122 -24.6463 27.3251)" class="st12" cx="21" cy="43.7" rx="0" ry="0"/>
	<ellipse transform="matrix(0.7122 -0.702 0.702 0.7122 -24.6622 27.4629)" class="st10" cx="21.2" cy="43.8" rx="0.2" ry="0.2"/>
	<polygon class="st10" points="21.3,43.6 21.5,43.8 21.1,44.1 21,43.9 	"/>
	<ellipse transform="matrix(0.7122 -0.702 0.702 0.7122 -24.7117 27.5719)" class="st10" cx="21.3" cy="43.9" rx="0.2" ry="0.2"/>
	<path class="st11" d="M21.2,44.1C21.2,44.1,21.2,44.1,21.2,44.1c-0.1-0.1-0.1-0.2,0-0.2c0,0,0.1-0.1,0.1-0.1c-0.1,0-0.1,0-0.2,0.1
		C21.1,43.9,21.1,44,21.2,44.1C21.1,44.1,21.2,44.1,21.2,44.1z"/>
	<ellipse transform="matrix(0.7122 -0.702 0.702 0.7122 -24.6386 27.6144)" class="st12" cx="21.4" cy="43.9" rx="0" ry="0"/>
	<ellipse transform="matrix(0.7122 -0.702 0.702 0.7122 -24.4583 28.0394)" class="st10" cx="22" cy="43.8" rx="0.2" ry="0.2"/>
	<polygon class="st10" points="22.1,43.7 22.3,43.8 21.9,44.1 21.8,44 	"/>
	<ellipse transform="matrix(0.7122 -0.702 0.702 0.7122 -24.5078 28.1485)" class="st10" cx="22.1" cy="44" rx="0.2" ry="0.2"/>
	<path class="st11" d="M22,44.1C22,44.1,22,44.1,22,44.1C21.9,44,22,44,22,43.9c0,0,0.1-0.1,0.1-0.1c-0.1,0-0.1,0-0.2,0.1
		C21.9,43.9,21.9,44,22,44.1C22,44.1,22,44.1,22,44.1z"/>
	<ellipse transform="matrix(0.7122 -0.702 0.702 0.7122 -24.4347 28.1909)" class="st12" cx="22.2" cy="43.9" rx="0" ry="0"/>
	<ellipse transform="matrix(0.7122 -0.702 0.702 0.7122 -24.5813 27.7714)" class="st10" cx="21.6" cy="43.9" rx="0.2" ry="0.2"/>
	<polygon class="st10" points="21.7,43.7 21.9,43.8 21.5,44.1 21.4,44 	"/>
	<ellipse transform="matrix(0.7122 -0.702 0.702 0.7122 -24.6308 27.8804)" class="st10" cx="21.7" cy="44" rx="0.2" ry="0.2"/>
	<path class="st11" d="M21.6,44.1C21.6,44.1,21.6,44.1,21.6,44.1c-0.1-0.1-0.1-0.2,0-0.2c0,0,0.1-0.1,0.1-0.1c-0.1,0-0.1,0-0.2,0.1
		C21.5,44,21.5,44.1,21.6,44.1C21.6,44.1,21.6,44.1,21.6,44.1z"/>
	<ellipse transform="matrix(0.7122 -0.702 0.702 0.7122 -24.5577 27.9229)" class="st12" cx="21.8" cy="43.9" rx="0" ry="0"/>
	<ellipse transform="matrix(0.7122 -0.702 0.702 0.7122 -24.2663 28.2837)" class="st10" cx="22.4" cy="43.7" rx="0.2" ry="0.2"/>
	<polygon class="st10" points="22.5,43.6 22.7,43.7 22.3,44 22.2,43.9 	"/>
	<ellipse transform="matrix(0.7122 -0.702 0.702 0.7122 -24.3158 28.3927)" class="st10" cx="22.5" cy="43.8" rx="0.2" ry="0.2"/>
	<path class="st11" d="M22.4,44C22.4,44,22.4,44,22.4,44c-0.1-0.1-0.1-0.2,0-0.2c0,0,0.1-0.1,0.1-0.1c-0.1,0-0.1,0-0.2,0.1
		C22.3,43.8,22.3,43.9,22.4,44C22.3,44,22.4,44,22.4,44z"/>
	<ellipse transform="matrix(0.7122 -0.702 0.702 0.7122 -24.2427 28.4352)" class="st12" cx="22.6" cy="43.8" rx="0" ry="0"/>
	<ellipse transform="matrix(0.7122 -0.702 0.702 0.7122 -24.038 28.6148)" class="st10" cx="22.9" cy="43.6" rx="0.2" ry="0.2"/>
	<polygon class="st10" points="23,43.4 23.2,43.6 22.8,43.9 22.7,43.8 	"/>
	<ellipse transform="matrix(0.7122 -0.702 0.702 0.7122 -24.0875 28.7239)" class="st10" cx="23" cy="43.7" rx="0.2" ry="0.2"/>
	<path class="st11" d="M22.9,43.9C22.9,43.9,22.9,43.9,22.9,43.9c-0.1-0.1-0.1-0.2,0-0.2c0,0,0.1-0.1,0.1-0.1c-0.1,0-0.1,0-0.2,0.1
		C22.8,43.7,22.8,43.8,22.9,43.9C22.9,43.9,22.9,43.9,22.9,43.9z"/>
	<ellipse transform="matrix(0.7122 -0.702 0.702 0.7122 -24.0144 28.7663)" class="st12" cx="23.1" cy="43.7" rx="0" ry="0"/>
	<ellipse transform="matrix(0.7122 -0.702 0.702 0.7122 -23.7663 28.9029)" class="st10" cx="23.4" cy="43.4" rx="0.2" ry="0.2"/>
	<polygon class="st10" points="23.5,43.3 23.7,43.4 23.3,43.7 23.2,43.6 	"/>
	<ellipse transform="matrix(0.7122 -0.702 0.702 0.7122 -23.8157 29.0119)" class="st10" cx="23.5" cy="43.5" rx="0.2" ry="0.2"/>
	<path class="st11" d="M23.4,43.7C23.4,43.7,23.4,43.7,23.4,43.7c-0.1-0.1-0.1-0.2,0-0.2c0,0,0.1-0.1,0.1-0.1c-0.1,0-0.1,0-0.2,0.1
		C23.3,43.5,23.3,43.6,23.4,43.7C23.4,43.7,23.4,43.7,23.4,43.7z"/>
	<ellipse transform="matrix(0.7122 -0.702 0.702 0.7122 -23.7427 29.0544)" class="st12" cx="23.6" cy="43.5" rx="0" ry="0"/>
	<ellipse transform="matrix(0.7122 -0.702 0.702 0.7122 -23.4461 29.1371)" class="st10" cx="23.8" cy="43.2" rx="0.2" ry="0.2"/>
	<polygon class="st10" points="24,43 24.1,43.1 23.7,43.4 23.6,43.3 	"/>
	<ellipse transform="matrix(0.7122 -0.702 0.702 0.7122 -23.4956 29.2462)" class="st10" cx="23.9" cy="43.3" rx="0.2" ry="0.2"/>
	<path class="st11" d="M23.9,43.4C23.9,43.4,23.8,43.4,23.9,43.4c-0.1-0.1-0.1-0.2,0-0.2c0,0,0.1-0.1,0.1-0.1c-0.1,0-0.1,0-0.2,0.1
		C23.7,43.3,23.7,43.4,23.9,43.4C23.8,43.4,23.8,43.4,23.9,43.4z"/>
	<ellipse transform="matrix(0.7122 -0.702 0.702 0.7122 -23.4225 29.2886)" class="st12" cx="24" cy="43.2" rx="0" ry="0"/>
	<ellipse transform="matrix(0.7122 -0.702 0.702 0.7122 -23.1245 29.3644)" class="st10" cx="24.2" cy="42.9" rx="0.2" ry="0.2"/>
	<polygon class="st10" points="24.4,42.7 24.5,42.8 24.2,43.2 24,43 	"/>
	<ellipse transform="matrix(0.7122 -0.702 0.702 0.7122 -23.174 29.4735)" class="st10" cx="24.4" cy="43" rx="0.2" ry="0.2"/>
	<path class="st11" d="M24.3,43.2C24.3,43.2,24.3,43.1,24.3,43.2c-0.1-0.1-0.1-0.2,0-0.2c0,0,0.1-0.1,0.1-0.1c-0.1,0-0.1,0-0.2,0.1
		C24.2,43,24.2,43.1,24.3,43.2C24.2,43.2,24.3,43.2,24.3,43.2z"/>
	<ellipse transform="matrix(0.7122 -0.702 0.702 0.7122 -23.101 29.5159)" class="st12" cx="24.4" cy="42.9" rx="0" ry="0"/>
	<ellipse transform="matrix(0.7122 -0.702 0.702 0.7122 -22.7481 29.5178)" class="st10" cx="24.6" cy="42.5" rx="0.2" ry="0.2"/>
	<polygon class="st10" points="24.8,42.3 24.9,42.5 24.6,42.8 24.4,42.6 	"/>
	<ellipse transform="matrix(0.7122 -0.702 0.702 0.7122 -22.7976 29.6269)" class="st10" cx="24.7" cy="42.6" rx="0.2" ry="0.2"/>
	<path class="st11" d="M24.7,42.8C24.7,42.8,24.7,42.8,24.7,42.8c-0.1-0.1-0.1-0.2,0-0.2c0,0,0.1-0.1,0.1-0.1c-0.1,0-0.1,0-0.2,0.1
		C24.6,42.6,24.5,42.7,24.7,42.8C24.6,42.8,24.6,42.8,24.7,42.8z"/>
	<ellipse transform="matrix(0.7122 -0.702 0.702 0.7122 -22.7245 29.6693)" class="st12" cx="24.8" cy="42.5" rx="0" ry="0"/>
	<ellipse transform="matrix(0.7122 -0.702 0.702 0.7122 -22.3953 29.6236)" class="st10" cx="24.9" cy="42.1" rx="0.2" ry="0.2"/>
	<polygon class="st10" points="25.1,41.9 25.2,42.1 24.9,42.4 24.7,42.3 	"/>
	<ellipse transform="matrix(0.7122 -0.702 0.702 0.7122 -22.4448 29.7327)" class="st10" cx="25" cy="42.2" rx="0.2" ry="0.2"/>
	<path class="st11" d="M25,42.4C25,42.4,25,42.4,25,42.4c-0.1-0.1-0.1-0.2,0-0.2c0,0,0.1-0.1,0.1-0.1c-0.1,0-0.1,0-0.2,0.1
		C24.9,42.2,24.8,42.3,25,42.4C24.9,42.4,25,42.4,25,42.4z"/>
	<ellipse transform="matrix(0.7122 -0.702 0.702 0.7122 -22.3717 29.7751)" class="st12" cx="25.1" cy="42.2" rx="0" ry="0"/>
	<ellipse transform="matrix(0.7122 -0.702 0.702 0.7122 -22.0513 29.7098)" class="st10" cx="25.2" cy="41.7" rx="0.2" ry="0.2"/>
	<polygon class="st10" points="25.4,41.6 25.5,41.7 25.1,42 25,41.9 	"/>
	<ellipse transform="matrix(0.7122 -0.702 0.702 0.7122 -22.1008 29.8189)" class="st10" cx="25.3" cy="41.9" rx="0.2" ry="0.2"/>
	<path class="st11" d="M25.3,42C25.3,42,25.2,42,25.3,42c-0.1-0.1-0.1-0.2,0-0.2c0,0,0.1-0.1,0.1-0.1c-0.1,0-0.1,0-0.2,0.1
		C25.1,41.8,25.1,41.9,25.3,42C25.2,42,25.2,42,25.3,42z"/>
	<ellipse transform="matrix(0.7122 -0.702 0.702 0.7122 -22.0277 29.8613)" class="st12" cx="25.4" cy="41.8" rx="0" ry="0"/>
	<path class="st2" d="M25,36.4l-6.9,1.2l0,0L18,37.7l-1,0.2l0.4,0.5l-0.9,1l1.9,2.7c0.2-1.5,2,0.4,2,0.4s0.5,0.5,1.2-0.2
		c0.7-0.7,2.3-1.8,3.7-1.8c1.4,0,3.1,0.8,3.8,1.9l0.2-0.1L25,36.4z"/>
	<polygon class="st4" points="10.6,34.9 10.6,36.3 13,39.9 14.1,39.5 	"/>
	<polygon class="st6" points="9.8,31.7 9.8,33.9 13.9,39.8 13.9,37.5 	"/>
	<polygon class="st9" points="13.9,39.8 15.1,39.3 13.9,37.5 	"/>
	<polygon class="st3" points="13,39.9 13,38.6 13.8,39.7 	"/>
	<path class="st6" d="M20.8,40.2c-0.2,0-0.3-0.1-0.4-0.2L9.1,24.3c-0.2-0.2-0.1-0.5,0.1-0.7c0.2-0.2,0.5-0.1,0.7,0.1l11.3,15.7
		c0.2,0.2,0.1,0.5-0.1,0.7C21,40.2,20.9,40.2,20.8,40.2z"/>
	<path class="st6" d="M16.9,32.3c-0.1,0-0.2,0-0.2-0.1l-6.3-8.8c-0.1-0.1-0.1-0.3,0.1-0.4c0.1-0.1,0.3-0.1,0.4,0.1l6.3,8.8
		c0.1,0.1,0.1,0.3-0.1,0.4C17,32.2,16.9,32.3,16.9,32.3z"/>
	<path class="st6" d="M20.6,37.4c-0.1,0-0.2,0-0.2-0.1l-2.5-3.5c-0.1-0.1-0.1-0.3,0.1-0.4c0.1-0.1,0.3-0.1,0.4,0.1l2.5,3.5
		c0.1,0.1,0.1,0.3-0.1,0.4C20.7,37.4,20.7,37.4,20.6,37.4z"/>
	<path class="st6" d="M16.9,37.7c-0.2,0-0.3-0.1-0.4-0.2l-6.3-8.8C10,28.5,10,28.2,10.3,28c0.2-0.2,0.5-0.1,0.7,0.1l6.3,8.8
		c0.2,0.2,0.1,0.5-0.1,0.7C17.1,37.7,17,37.7,16.9,37.7z"/>
</g>
<g>
	<ellipse class="st13" cx="282.2" cy="40.5" rx="3.7" ry="3.7"/>
	<ellipse class="st8" cx="281.8" cy="41" rx="3.7" ry="3.7"/>
	<ellipse class="st13" cx="281.8" cy="41.2" rx="2.8" ry="2.8"/>
	<ellipse class="st14" cx="281.5" cy="41.4" rx="2.8" ry="2.8"/>
	<line class="st15" x1="278.3" y1="37.3" x2="278.3" y2="45.4"/>
	<path class="st13" d="M278.3,46.4c-0.6,0-1.1-0.5-1.1-1.1v-8.1c0-0.6,0.5-1.1,1.1-1.1c0.6,0,1.1,0.5,1.1,1.1v8.1
		C279.4,46,278.9,46.4,278.3,46.4z"/>
	<path class="st8" d="M283.2,40.3l-1.8,0.7c0,0-1.2,0-1.6-0.5l-0.4-1C279.6,39.5,281.3,39.1,283.2,40.3z"/>
	<path class="st16" d="M283.2,43.3l-1.8,0.7c0,0-1.2,0-1.6-0.5l-0.4-1C279.5,42.5,281.3,42.1,283.2,43.3z"/>
	<path class="st17" d="M281.5,40.9V44c0,0-1.2-0.1-1.6-0.5v-3.1C279.9,40.5,280.4,40.9,281.5,40.9z"/>
	<polygon class="st17" points="283.2,40.3 281.5,40.9 281.5,44 283.2,43.3 	"/>
	<polygon class="st17" points="279.6,39.5 279.9,40.5 279.9,43.2 279.5,41.5 	"/>
	<path class="st8" d="M281.9,41.9v1.1l-2.8,1.9c0,0-1.2,0.5-1.8-0.2v-1c0,0,0.5,0.6,1.8,0.2c0,0,0.3-0.2,0.3-0.3v-1.9l0.5-0.2
		c0,0,0.2,0.4,0.6,0.5c0.4,0.1,1,0.1,1,0.1L281.9,41.9z"/>
	<path class="st5" d="M282,40.5c-0.3,0-0.5-0.1-0.5-0.2c-0.2-0.2-0.2-0.6-0.1-1c0.1-0.2,0.3-0.3,0.5-0.2c0.2,0.1,0.3,0.3,0.2,0.5
		c0,0.1,0,0.1,0,0.1c0.7-0.2,2.4-1.7,3.2-3.9c1.1-3.1,0.8-8.8-0.6-11.7c-0.3-0.6-0.7-1-1.1-1c-0.8-0.1-1.9,1-2.3,1.4
		c-0.1,0.2-0.4,0.2-0.6,0.1c-0.2-0.1-0.2-0.4-0.1-0.6c0.1-0.1,1.5-1.9,3-1.7c0.7,0.1,1.3,0.6,1.7,1.5c1.5,3.1,1.8,9,0.6,12.3
		c-0.8,2.4-2.8,4.2-3.9,4.4C282.1,40.5,282,40.5,282,40.5z"/>
	<g>
		<path class="st17" d="M263.7,40c0.1-0.1,0.1-0.2,0.2-0.3l0.3-0.5l11.6-16.3l0.5-0.7c1.2-1.1,3.6-0.9,5.8,0.5
			c2.2,1.5,3.3,3.9,2.5,5.4l-0.3,0.5l-11.7,16.5l-0.3,0.4c-0.2,0.2-0.3,0.5-0.5,0.6c-1.2,0.8-3.5,0.6-5.4-0.8
			C264.2,43.9,263.2,41.6,263.7,40z"/>
		<g>
			<path class="st18" d="M266.4,45.1c-2-1.4-3.1-3.5-2.4-4.9l0.5-0.7c1.1-1.1,3.4-0.8,5.4,0.5c2.1,1.4,3.1,3.6,2.4,5l-0.3,0.5
				C270.8,46.7,268.4,46.5,266.4,45.1z"/>
			<path class="st13" d="M266.7,44.6c-1.6-1.1-2.4-2.8-1.9-3.9l0.4-0.5c0.9-0.8,2.7-0.7,4.3,0.4c1.6,1.1,2.4,2.9,1.9,4l-0.3,0.4
				C270.2,45.8,268.3,45.7,266.7,44.6z"/>
			<path class="st18" d="M267,44.1c-1.1-0.7-1.6-1.8-1.2-2.6l0.2-0.3c0.6-0.6,1.8-0.5,2.8,0.3c1.1,0.7,1.6,1.9,1.2,2.7l-0.2,0.3
				C269.4,44.9,268.1,44.8,267,44.1z"/>
			<path class="st18" d="M266.7,44.4c-1.1-0.7-1.6-1.8-1.2-2.6l0.2-0.3c0.6-0.6,1.8-0.5,2.8,0.3c1.1,0.7,1.6,1.9,1.2,2.7l-0.2,0.3
				C269.1,45.1,267.8,45.1,266.7,44.4z"/>
			<path class="st19" d="M266.9,44.2c-1-0.6-1.4-1.6-1.1-2.3l0.2-0.3c0.5-0.5,1.6-0.4,2.5,0.2c1,0.7,1.4,1.7,1.1,2.3l-0.2,0.2
				C269,44.9,267.9,44.8,266.9,44.2z"/>
			
				<ellipse transform="matrix(0.702 -0.7122 0.7122 0.702 50.4069 205.4068)" class="st20" cx="270.6" cy="42.5" rx="0.2" ry="0.3"/>
			<polygon class="st20" points="270.4,42.3 270.3,42.4 270.7,42.9 270.9,42.7 			"/>
			<g>
				
					<ellipse transform="matrix(0.702 -0.7122 0.7122 0.702 50.2316 205.3549)" class="st20" cx="270.5" cy="42.7" rx="0.2" ry="0.3"/>
				<path class="st21" d="M270.5,42.9C270.5,42.9,270.6,42.8,270.5,42.9c0.1-0.1,0.1-0.2,0-0.3c-0.1-0.1-0.1-0.1-0.2-0.1
					c0.1-0.1,0.2,0,0.2,0.1c0.1,0.1,0.1,0.2,0.1,0.3C270.7,42.9,270.6,42.9,270.5,42.9z"/>
				<ellipse class="st22" cx="270.4" cy="42.5" rx="0.1" ry="0.1"/>
			</g>
			
				<ellipse transform="matrix(0.702 -0.7122 0.7122 0.702 50.7652 204.9506)" class="st20" cx="270.3" cy="41.8" rx="0.2" ry="0.3"/>
			<polygon class="st20" points="270.1,41.6 269.9,41.7 270.4,42.1 270.5,42 			"/>
			<g>
				<ellipse transform="matrix(0.702 -0.7122 0.7122 0.702 50.6305 204.9151)" class="st20" cx="270.2" cy="42" rx="0.2" ry="0.3"/>
				<path class="st21" d="M270.2,42.1C270.2,42.1,270.3,42.1,270.2,42.1c0.1-0.1,0.1-0.2,0-0.3c-0.1-0.1-0.1-0.1-0.2-0.1
					c0.1-0.1,0.2,0,0.2,0.1c0.1,0.1,0.1,0.2,0.1,0.3C270.3,42.1,270.3,42.1,270.2,42.1z"/>
				<ellipse class="st22" cx="270" cy="41.9" rx="0.1" ry="0.1"/>
			</g>
			
				<ellipse transform="matrix(0.702 -0.7122 0.7122 0.702 51.1007 204.3508)" class="st20" cx="269.7" cy="41.1" rx="0.2" ry="0.3"/>
			<polygon class="st20" points="269.5,40.9 269.4,41.1 269.8,41.5 270,41.3 			"/>
			<g>
				
					<ellipse transform="matrix(0.702 -0.7122 0.7122 0.702 50.9254 204.299)" class="st20" cx="269.6" cy="41.3" rx="0.2" ry="0.3"/>
				<path class="st21" d="M269.6,41.5C269.6,41.5,269.7,41.5,269.6,41.5c0.1-0.1,0.1-0.2,0-0.3c-0.1-0.1-0.1-0.1-0.2-0.1
					c0.1-0.1,0.2,0,0.2,0.1c0.1,0.1,0.1,0.2,0.1,0.3C269.8,41.5,269.7,41.5,269.6,41.5z"/>
				<ellipse class="st22" cx="269.5" cy="41.2" rx="0.1" ry="0.1"/>
			</g>
			
				<ellipse transform="matrix(0.702 -0.7122 0.7122 0.702 51.2047 203.7687)" class="st20" cx="269.1" cy="40.7" rx="0.2" ry="0.3"/>
			<polygon class="st20" points="268.8,40.4 268.7,40.7 269.1,41.1 269.3,40.9 			"/>
			<g>
				
					<ellipse transform="matrix(0.702 -0.7122 0.7122 0.702 51.0458 203.6763)" class="st20" cx="268.9" cy="40.8" rx="0.2" ry="0.3"/>
				<path class="st21" d="M269,41.1C269,41.1,269,41.1,269,41.1c0.1-0.1,0.1-0.2,0-0.3c-0.1-0.1-0.1-0.1-0.2-0.1
					c0.1-0.1,0.2,0,0.2,0.1c0.1,0.1,0.1,0.2,0.1,0.3C269.1,41.1,269,41.1,269,41.1z"/>
				<ellipse class="st22" cx="268.8" cy="40.8" rx="0.1" ry="0.1"/>
			</g>
			
				<ellipse transform="matrix(0.702 -0.7122 0.7122 0.702 51.2354 203.0964)" class="st20" cx="268.3" cy="40.3" rx="0.2" ry="0.3"/>
			<polygon class="st20" points="268.1,40 267.9,40.3 268.4,40.7 268.6,40.5 			"/>
			<g>
				
					<ellipse transform="matrix(0.702 -0.7122 0.7122 0.702 51.117 203.0202)" class="st20" cx="268.1" cy="40.4" rx="0.2" ry="0.3"/>
				<path class="st21" d="M268.2,40.7L268.2,40.7c0.1-0.1,0.1-0.2,0-0.3c-0.1-0.1-0.1-0.1-0.2-0.1c0.1-0.1,0.2,0,0.2,0.1
					c0.1,0.1,0.1,0.2,0.1,0.3C268.3,40.7,268.3,40.7,268.2,40.7z"/>
				<ellipse class="st22" cx="268.1" cy="40.4" rx="0.1" ry="0.1"/>
			</g>
			<ellipse transform="matrix(0.702 -0.7122 0.7122 0.702 51.1732 202.3853)" class="st20" cx="267.4" cy="40" rx="0.2" ry="0.3"/>
			<polygon class="st20" points="267.2,39.8 267,40 267.5,40.4 267.7,40.2 			"/>
			<g>
				
					<ellipse transform="matrix(0.702 -0.7122 0.7122 0.702 50.998 202.3335)" class="st20" cx="267.3" cy="40.2" rx="0.2" ry="0.3"/>
				<path class="st21" d="M267.3,40.4C267.4,40.4,267.4,40.4,267.3,40.4c0.1-0.1,0.1-0.2,0-0.3c-0.1-0.1-0.1-0.1-0.2-0.1
					c0.1-0.1,0.2,0,0.2,0.1c0.1,0.1,0.1,0.2,0.1,0.3C267.4,40.4,267.4,40.4,267.3,40.4z"/>
				<ellipse class="st22" cx="267.1" cy="40.1" rx="0.1" ry="0.1"/>
			</g>
			<ellipse transform="matrix(0.702 -0.7122 0.7122 0.702 50.9473 201.7769)" class="st20" cx="266.6" cy="40" rx="0.2" ry="0.3"/>
			<polygon class="st20" points="266.4,39.8 266.2,39.9 266.7,40.4 266.9,40.2 			"/>
			<g>
				
					<ellipse transform="matrix(0.702 -0.7122 0.7122 0.702 50.8126 201.7414)" class="st20" cx="266.5" cy="40.2" rx="0.2" ry="0.3"/>
				<path class="st21" d="M266.5,40.4C266.5,40.4,266.6,40.3,266.5,40.4c0.1-0.1,0.1-0.2,0-0.3c-0.1-0.1-0.1-0.1-0.2-0.1
					c0.1-0.1,0.2,0,0.2,0.1c0.1,0.1,0.1,0.2,0.1,0.3C266.6,40.4,266.6,40.4,266.5,40.4z"/>
				<ellipse class="st22" cx="266.3" cy="40" rx="0.1" ry="0.1"/>
			</g>
			<ellipse transform="matrix(0.702 -0.7122 0.7122 0.702 50.6591 201.4256)" class="st20" cx="266" cy="40.2" rx="0.2" ry="0.3"/>
			<polygon class="st20" points="265.8,39.9 265.6,40.1 266.1,40.6 266.3,40.3 			"/>
			<g>
				<ellipse transform="matrix(0.702 -0.7122 0.7122 0.702 50.5244 201.39)" class="st20" cx="265.9" cy="40.3" rx="0.2" ry="0.3"/>
				<path class="st21" d="M266,40.6C266,40.5,266,40.5,266,40.6c0.1-0.1,0.1-0.2,0-0.3c-0.1-0.1-0.1-0.1-0.2-0.1
					c0.1-0.1,0.2,0,0.2,0.1c0.1,0.1,0.1,0.2,0.1,0.3C266.1,40.6,266,40.6,266,40.6z"/>
				<ellipse class="st22" cx="265.8" cy="40.2" rx="0.1" ry="0.1"/>
			</g>
			<ellipse transform="matrix(0.702 -0.7122 0.7122 0.702 50.3292 201.139)" class="st20" cx="265.5" cy="40.4" rx="0.2" ry="0.3"/>
			<polygon class="st20" points="265.3,40.2 265.1,40.4 265.6,40.8 265.7,40.6 			"/>
			<g>
				
					<ellipse transform="matrix(0.702 -0.7122 0.7122 0.702 50.1539 201.0873)" class="st20" cx="265.4" cy="40.6" rx="0.2" ry="0.3"/>
				<path class="st21" d="M265.4,40.8C265.4,40.8,265.4,40.8,265.4,40.8c0.1-0.1,0.1-0.2,0-0.3c-0.1-0.1-0.1-0.1-0.2-0.1
					c0.1-0.1,0.2,0,0.2,0.1c0.1,0.1,0.2,0.2,0.1,0.3C265.5,40.8,265.4,40.8,265.4,40.8z"/>
				<ellipse class="st22" cx="265.2" cy="40.5" rx="0.1" ry="0.1"/>
			</g>
			
				<ellipse transform="matrix(0.702 -0.7122 0.7122 0.702 49.8787 201.0288)" class="st20" cx="265.1" cy="40.9" rx="0.2" ry="0.3"/>
			<polygon class="st20" points="265,40.7 264.8,40.9 265.3,41.3 265.4,41.1 			"/>
			<g>
				<ellipse transform="matrix(0.702 -0.7122 0.7122 0.702 49.744 200.9933)" class="st20" cx="265" cy="41.1" rx="0.2" ry="0.3"/>
				<path class="st21" d="M265.1,41.3L265.1,41.3c0.1-0.1,0.1-0.2,0-0.3c-0.1-0.1-0.1-0.1-0.2-0.1c0.1-0.1,0.2,0,0.2,0.1
					c0.1,0.1,0.1,0.2,0.1,0.3C265.2,41.3,265.2,41.3,265.1,41.3z"/>
				<ellipse class="st22" cx="264.9" cy="41" rx="0.1" ry="0.1"/>
			</g>
			<ellipse transform="matrix(0.702 -0.7122 0.7122 0.702 49.4393 201.0863)" class="st20" cx="265" cy="41.5" rx="0.2" ry="0.3"/>
			<polygon class="st20" points="264.8,41.2 264.6,41.4 265.1,41.9 265.3,41.6 			"/>
			<g>
				
					<ellipse transform="matrix(0.702 -0.7122 0.7122 0.702 49.3046 201.0508)" class="st20" cx="264.9" cy="41.6" rx="0.2" ry="0.3"/>
				<path class="st21" d="M264.9,41.8L264.9,41.8c0.1-0.1,0.1-0.2,0-0.3c-0.1-0.1-0.1-0.1-0.2-0.1c0.1-0.1,0.2,0,0.2,0.1
					c0.1,0.1,0.1,0.2,0.1,0.3C265,41.8,265,41.9,264.9,41.8z"/>
				<ellipse class="st22" cx="264.8" cy="41.5" rx="0.1" ry="0.1"/>
			</g>
			<ellipse transform="matrix(0.702 -0.7122 0.7122 0.702 49.0405 201.2344)" class="st20" cx="265" cy="42" rx="0.2" ry="0.3"/>
			<polygon class="st20" points="264.8,41.9 264.7,42 265,42.4 265.2,42.2 			"/>
			<g>
				
					<ellipse transform="matrix(0.702 -0.7122 0.7122 0.702 48.9066 201.2216)" class="st20" cx="264.9" cy="42.2" rx="0.2" ry="0.3"/>
				<path class="st21" d="M264.9,42.4C264.9,42.3,264.9,42.3,264.9,42.4c0.1-0.1,0.1-0.2,0-0.3c-0.1-0.1-0.1-0.1-0.1-0.1
					c0.1,0,0.1,0,0.2,0.1c0.1,0.1,0.1,0.2,0,0.2C265,42.3,264.9,42.4,264.9,42.4z"/>
				<ellipse class="st22" cx="264.8" cy="42.1" rx="0.1" ry="0.1"/>
			</g>
			
				<ellipse transform="matrix(0.702 -0.7122 0.7122 0.702 48.7021 201.4983)" class="st20" cx="265.1" cy="42.6" rx="0.2" ry="0.3"/>
			<polygon class="st20" points="264.9,42.3 264.8,42.5 265.2,42.8 265.3,42.7 			"/>
			<g>
				<ellipse transform="matrix(0.702 -0.7122 0.7122 0.702 48.5846 201.445)" class="st20" cx="265" cy="42.7" rx="0.2" ry="0.3"/>
				<path class="st21" d="M265,42.8C265.1,42.8,265.1,42.8,265,42.8c0.1-0.1,0.1-0.2,0-0.3c0,0-0.1-0.1-0.1-0.1c0.1,0,0.1,0,0.2,0.1
					c0.1,0.1,0.1,0.2,0.1,0.2C265.2,42.8,265.1,42.8,265,42.8z"/>
				<ellipse class="st22" cx="264.9" cy="42.6" rx="0.1" ry="0.1"/>
			</g>
			
				<ellipse transform="matrix(0.702 -0.7122 0.7122 0.702 49.3239 205.9975)" class="st20" cx="270.8" cy="44.1" rx="0.2" ry="0.3"/>
			<polygon class="st20" points="270.6,43.8 270.4,44.1 270.9,44.5 271.1,44.3 			"/>
			<g>
				
					<ellipse transform="matrix(0.702 -0.7122 0.7122 0.702 49.1486 205.9457)" class="st20" cx="270.7" cy="44.2" rx="0.2" ry="0.3"/>
				<path class="st21" d="M270.7,44.5C270.8,44.5,270.8,44.5,270.7,44.5c0.1-0.1,0.1-0.2,0-0.3c-0.1-0.1-0.1-0.1-0.2-0.1
					c0.1-0.1,0.2,0,0.2,0.1c0.1,0.1,0.1,0.2,0.1,0.3C270.8,44.5,270.8,44.5,270.7,44.5z"/>
				<ellipse class="st22" cx="270.5" cy="44.1" rx="0.1" ry="0.1"/>
			</g>
			<g>
				
					<ellipse transform="matrix(0.702 -0.7122 0.7122 0.702 48.9137 205.9415)" class="st20" cx="270.5" cy="44.5" rx="0.2" ry="0.3"/>
				<polygon class="st20" points="270.3,44.3 270.1,44.5 270.6,44.9 270.8,44.7 				"/>
				<g>
					
						<ellipse transform="matrix(0.702 -0.7122 0.7122 0.702 48.7384 205.8897)" class="st20" cx="270.4" cy="44.7" rx="0.2" ry="0.3"/>
					<path class="st21" d="M270.5,44.9C270.5,44.9,270.5,44.9,270.5,44.9c0.1-0.1,0.1-0.2,0-0.3c-0.1-0.1-0.1-0.1-0.2-0.1
						c0.1-0.1,0.2,0,0.2,0.1c0.1,0.1,0.1,0.2,0.1,0.3C270.5,44.9,270.5,44.9,270.5,44.9z"/>
					<ellipse class="st22" cx="270.3" cy="44.6" rx="0.1" ry="0.1"/>
				</g>
			</g>
			
				<ellipse transform="matrix(0.702 -0.7122 0.7122 0.702 49.6186 205.9361)" class="st20" cx="270.9" cy="43.7" rx="0.2" ry="0.3"/>
			<polygon class="st20" points="270.7,43.4 270.5,43.6 271,44.1 271.2,43.8 			"/>
			<g>
				
					<ellipse transform="matrix(0.702 -0.7122 0.7122 0.702 49.4839 205.9006)" class="st20" cx="270.8" cy="43.8" rx="0.2" ry="0.3"/>
				<path class="st21" d="M270.8,44.1C270.8,44,270.8,44,270.8,44.1c0.1-0.1,0.1-0.2,0-0.3c-0.1-0.1-0.1-0.1-0.2-0.1
					c0.1-0.1,0.2,0,0.2,0.1c0.1,0.1,0.1,0.2,0.1,0.3C270.9,44,270.9,44.1,270.8,44.1z"/>
				<ellipse class="st22" cx="270.6" cy="43.7" rx="0.1" ry="0.1"/>
			</g>
			
				<ellipse transform="matrix(0.702 -0.7122 0.7122 0.702 50.0299 205.7113)" class="st20" cx="270.8" cy="43.1" rx="0.2" ry="0.3"/>
			<polygon class="st20" points="270.7,42.8 270.4,43 270.9,43.4 271.1,43.3 			"/>
			<g>
				
					<ellipse transform="matrix(0.702 -0.7122 0.7122 0.702 49.8951 205.6757)" class="st20" cx="270.7" cy="43.2" rx="0.2" ry="0.3"/>
				<path class="st21" d="M270.8,43.4C270.8,43.4,270.8,43.4,270.8,43.4c0.1-0.1,0.1-0.2,0-0.3c-0.1-0.1-0.1-0.1-0.2-0.1
					c0.1-0.1,0.2,0,0.2,0.1c0.1,0.1,0.1,0.2,0.1,0.3C270.9,43.4,270.8,43.4,270.8,43.4z"/>
				<ellipse class="st22" cx="270.6" cy="43.1" rx="0.1" ry="0.1"/>
			</g>
			
				<ellipse transform="matrix(0.702 -0.7122 0.7122 0.702 48.5425 205.8681)" class="st20" cx="270.3" cy="44.9" rx="0.2" ry="0.2"/>
			<polygon class="st20" points="270.1,44.7 270,44.9 270.3,45.2 270.5,45.1 			"/>
			<g>
				<ellipse transform="matrix(0.702 -0.7122 0.7122 0.702 48.4251 205.8185)" class="st20" cx="270.1" cy="45" rx="0.2" ry="0.2"/>
				<path class="st21" d="M270.2,45.2C270.2,45.2,270.3,45.2,270.2,45.2c0.1-0.1,0.1-0.2,0-0.2c-0.1-0.1-0.1-0.1-0.1-0.1
					c0.1,0,0.1,0,0.2,0.1c0.1,0.1,0.1,0.2,0.1,0.2C270.3,45.2,270.3,45.2,270.2,45.2z"/>
				<ellipse class="st22" cx="270.1" cy="45" rx="0.1" ry="0.1"/>
			</g>
			<ellipse transform="matrix(0.702 -0.7122 0.7122 0.702 48.293 205.6297)" class="st20" cx="269.9" cy="45.1" rx="0.2" ry="0.2"/>
			<polygon class="st20" points="269.8,44.9 269.6,45.1 270,45.4 270.1,45.3 			"/>
			<g>
				
					<ellipse transform="matrix(0.702 -0.7122 0.7122 0.702 48.1593 205.6208)" class="st20" cx="269.8" cy="45.3" rx="0.2" ry="0.2"/>
				<path class="st21" d="M269.8,45.4C269.8,45.4,269.9,45.4,269.8,45.4c0.1-0.1,0.1-0.2,0-0.2c-0.1-0.1-0.1-0.1-0.1-0.1
					c0.1,0,0.1,0,0.2,0.1c0.1,0.1,0.1,0.2,0.1,0.2C269.9,45.4,269.9,45.4,269.8,45.4z"/>
				<ellipse class="st22" cx="269.7" cy="45.1" rx="0.1" ry="0.1"/>
			</g>
			
				<ellipse transform="matrix(0.702 -0.7122 0.7122 0.702 48.0963 205.4367)" class="st20" cx="269.5" cy="45.2" rx="0.2" ry="0.2"/>
			<polygon class="st20" points="269.4,45.1 269.2,45.2 269.6,45.5 269.7,45.4 			"/>
			<g>
				
					<ellipse transform="matrix(0.702 -0.7122 0.7122 0.702 47.9789 205.3872)" class="st20" cx="269.4" cy="45.4" rx="0.2" ry="0.2"/>
				<path class="st21" d="M269.5,45.5L269.5,45.5c0.1-0.1,0.1-0.2,0-0.2c-0.1-0.1-0.1-0.1-0.1-0.1c0.1,0,0.1,0,0.2,0.1
					c0.1,0.1,0.1,0.2,0.1,0.2C269.5,45.5,269.5,45.5,269.5,45.5z"/>
				<ellipse class="st22" cx="269.3" cy="45.3" rx="0.1" ry="0.1"/>
			</g>
			<g>
				
					<ellipse transform="matrix(0.702 -0.7122 0.7122 0.702 47.805 204.8589)" class="st20" cx="268.7" cy="45.3" rx="0.2" ry="0.2"/>
				<polygon class="st20" points="268.5,45.1 268.3,45.3 268.7,45.6 268.9,45.4 				"/>
				<g>
					
						<ellipse transform="matrix(0.702 -0.7122 0.7122 0.702 47.6876 204.8094)" class="st20" cx="268.6" cy="45.4" rx="0.2" ry="0.2"/>
					<path class="st21" d="M268.6,45.6L268.6,45.6c0.1-0.1,0.1-0.2,0-0.2c-0.1-0.1-0.1-0.1-0.1-0.1c0.1,0,0.1,0,0.2,0.1
						c0.1,0.1,0.1,0.2,0.1,0.2C268.7,45.6,268.7,45.6,268.6,45.6z"/>
					<ellipse class="st22" cx="268.5" cy="45.4" rx="0.1" ry="0.1"/>
				</g>
			</g>
			<g>
				
					<ellipse transform="matrix(0.702 -0.7122 0.7122 0.702 47.9125 205.1381)" class="st20" cx="269.1" cy="45.3" rx="0.2" ry="0.2"/>
				<polygon class="st20" points="268.9,45.1 268.8,45.3 269.1,45.6 269.3,45.4 				"/>
				<g>
					
						<ellipse transform="matrix(0.702 -0.7122 0.7122 0.702 47.7951 205.0886)" class="st20" cx="269" cy="45.4" rx="0.2" ry="0.2"/>
					<path class="st21" d="M269,45.6L269,45.6c0.1-0.1,0.1-0.2,0-0.2c-0.1-0.1-0.1-0.1-0.1-0.1c0.1,0,0.1,0,0.2,0.1
						c0.1,0.1,0.1,0.2,0.1,0.2C269.1,45.6,269.1,45.6,269,45.6z"/>
					<ellipse class="st22" cx="268.9" cy="45.4" rx="0.1" ry="0.1"/>
				</g>
			</g>
			<g>
				
					<ellipse transform="matrix(0.702 -0.7122 0.7122 0.702 47.7749 204.5382)" class="st20" cx="268.3" cy="45.2" rx="0.2" ry="0.2"/>
				<polygon class="st20" points="268.1,45 267.9,45.1 268.3,45.5 268.4,45.3 				"/>
				<g>
					
						<ellipse transform="matrix(0.702 -0.7122 0.7122 0.702 47.6575 204.4886)" class="st20" cx="268.2" cy="45.3" rx="0.2" ry="0.2"/>
					<path class="st21" d="M268.2,45.5C268.2,45.5,268.2,45.4,268.2,45.5c0.1-0.1,0.1-0.2,0-0.2c-0.1-0.1-0.1-0.1-0.1-0.1
						c0.1,0,0.1,0,0.2,0.1c0.1,0.1,0.1,0.2,0.1,0.2C268.3,45.5,268.2,45.5,268.2,45.5z"/>
					<ellipse class="st22" cx="268" cy="45.2" rx="0.1" ry="0.1"/>
				</g>
			</g>
			<g>
				
					<ellipse transform="matrix(0.702 -0.7122 0.7122 0.702 47.6776 204.1138)" class="st20" cx="267.7" cy="45.1" rx="0.2" ry="0.2"/>
				<polygon class="st20" points="267.5,44.9 267.4,45 267.8,45.4 267.9,45.2 				"/>
				<g>
					
						<ellipse transform="matrix(0.702 -0.7122 0.7122 0.702 47.5603 204.0643)" class="st20" cx="267.6" cy="45.2" rx="0.2" ry="0.2"/>
					<path class="st21" d="M267.7,45.4C267.7,45.3,267.7,45.3,267.7,45.4c0.1-0.1,0.1-0.2,0-0.2c-0.1-0.1-0.1-0.1-0.1-0.1
						c0.1,0,0.1,0,0.2,0.1c0.1,0.1,0.1,0.2,0.1,0.2C267.7,45.4,267.7,45.4,267.7,45.4z"/>
					<ellipse class="st22" cx="267.5" cy="45.1" rx="0.1" ry="0.1"/>
				</g>
			</g>
			<g>
				
					<ellipse transform="matrix(0.702 -0.7122 0.7122 0.702 47.6731 203.6708)" class="st20" cx="267.2" cy="44.9" rx="0.2" ry="0.2"/>
				<polygon class="st20" points="267,44.7 266.9,44.8 267.3,45.1 267.4,45 				"/>
				<g>
					
						<ellipse transform="matrix(0.702 -0.7122 0.7122 0.702 47.5557 203.6213)" class="st20" cx="267.1" cy="45" rx="0.2" ry="0.2"/>
					<path class="st21" d="M267.1,45.1C267.1,45.1,267.2,45.1,267.1,45.1c0.1-0.1,0.1-0.2,0-0.2c-0.1-0.1-0.1-0.1-0.1-0.1
						c0.1,0,0.1,0,0.2,0.1c0.1,0.1,0.1,0.2,0.1,0.2C267.2,45.1,267.2,45.1,267.1,45.1z"/>
					<ellipse class="st22" cx="267" cy="44.9" rx="0.1" ry="0.1"/>
				</g>
			</g>
			<g>
				
					<ellipse transform="matrix(0.702 -0.7122 0.7122 0.702 47.7454 203.2593)" class="st20" cx="266.7" cy="44.6" rx="0.2" ry="0.2"/>
				<polygon class="st20" points="266.6,44.4 266.4,44.5 266.8,44.9 267,44.7 				"/>
				<g>
					
						<ellipse transform="matrix(0.702 -0.7122 0.7122 0.702 47.6281 203.2098)" class="st20" cx="266.6" cy="44.7" rx="0.2" ry="0.2"/>
					<path class="st21" d="M266.7,44.9L266.7,44.9c0.1-0.1,0.1-0.2,0-0.2c-0.1-0.1-0.1-0.1-0.1-0.1c0.1,0,0.1,0,0.2,0.1
						c0.1,0.1,0.1,0.2,0.1,0.2C266.7,44.9,266.7,44.9,266.7,44.9z"/>
					<ellipse class="st22" cx="266.5" cy="44.6" rx="0.1" ry="0.1"/>
				</g>
			</g>
			<g>
				
					<ellipse transform="matrix(0.702 -0.7122 0.7122 0.702 47.8167 202.8535)" class="st20" cx="266.3" cy="44.3" rx="0.2" ry="0.2"/>
				<polygon class="st20" points="266.1,44.1 266,44.2 266.4,44.6 266.5,44.4 				"/>
				<g>
					
						<ellipse transform="matrix(0.702 -0.7122 0.7122 0.702 47.6993 202.804)" class="st20" cx="266.2" cy="44.4" rx="0.2" ry="0.2"/>
					<path class="st21" d="M266.2,44.6L266.2,44.6c0.1-0.1,0.1-0.2,0-0.2c-0.1-0.1-0.1-0.1-0.1-0.1c0.1,0,0.1,0,0.2,0.1
						c0.1,0.1,0.1,0.2,0.1,0.2C266.3,44.6,266.2,44.6,266.2,44.6z"/>
					<ellipse class="st22" cx="266.1" cy="44.4" rx="0.1" ry="0.1"/>
				</g>
			</g>
			<g>
				
					<ellipse transform="matrix(0.702 -0.7122 0.7122 0.702 47.9798 202.4559)" class="st20" cx="265.9" cy="43.9" rx="0.2" ry="0.2"/>
				<polygon class="st20" points="265.7,43.7 265.6,43.8 266,44.2 266.1,44 				"/>
				<g>
					
						<ellipse transform="matrix(0.702 -0.7122 0.7122 0.702 47.8624 202.4064)" class="st20" cx="265.8" cy="44" rx="0.2" ry="0.2"/>
					<path class="st21" d="M265.8,44.2L265.8,44.2c0.1-0.1,0.1-0.2,0-0.2c-0.1-0.1-0.1-0.1-0.1-0.1c0.1,0,0.1,0,0.2,0.1
						c0.1,0.1,0.1,0.2,0.1,0.2C265.9,44.2,265.9,44.2,265.8,44.2z"/>
					<ellipse class="st22" cx="265.7" cy="44" rx="0.1" ry="0.1"/>
				</g>
			</g>
			<g>
				
					<ellipse transform="matrix(0.702 -0.7122 0.7122 0.702 48.1507 202.1033)" class="st20" cx="265.6" cy="43.5" rx="0.2" ry="0.2"/>
				<polygon class="st20" points="265.4,43.3 265.3,43.4 265.7,43.8 265.8,43.6 				"/>
				<g>
					
						<ellipse transform="matrix(0.702 -0.7122 0.7122 0.702 48.0334 202.0539)" class="st20" cx="265.5" cy="43.6" rx="0.2" ry="0.2"/>
					<path class="st21" d="M265.5,43.8C265.5,43.8,265.6,43.8,265.5,43.8c0.1-0.1,0.1-0.2,0-0.2c-0.1-0.1-0.1-0.1-0.1-0.1
						c0.1,0,0.1,0,0.2,0.1c0.1,0.1,0.1,0.2,0.1,0.2C265.6,43.8,265.6,43.8,265.5,43.8z"/>
					<ellipse class="st22" cx="265.4" cy="43.5" rx="0.1" ry="0.1"/>
				</g>
			</g>
			<g>
				
					<ellipse transform="matrix(0.702 -0.7122 0.7122 0.702 48.3496 201.7793)" class="st20" cx="265.3" cy="43.1" rx="0.2" ry="0.2"/>
				<polygon class="st20" points="265.1,42.9 265,43 265.3,43.4 265.5,43.2 				"/>
				<g>
					
						<ellipse transform="matrix(0.702 -0.7122 0.7122 0.702 48.2322 201.7298)" class="st20" cx="265.2" cy="43.2" rx="0.2" ry="0.2"/>
					<path class="st21" d="M265.2,43.4C265.2,43.4,265.3,43.4,265.2,43.4c0.1-0.1,0.1-0.2,0-0.2c-0.1-0.1-0.1-0.1-0.1-0.1
						c0.1,0,0.1,0,0.2,0.1c0.1,0.1,0.1,0.2,0.1,0.2C265.3,43.4,265.3,43.4,265.2,43.4z"/>
					<ellipse class="st22" cx="265.1" cy="43.1" rx="0.1" ry="0.1"/>
				</g>
			</g>
		</g>
		<path class="st17" d="M265.5,37.6l7.2,1.3l0.1-0.1l0.1,0.1l1,0.2l-0.4,0.6l0.9,1.1l-1.9,2.8c-0.2-1.5-2.1,0.5-2.1,0.5
			s-0.5,0.6-1.2-0.2c-0.7-0.7-2.3-1.9-3.9-1.9c-1.5,0-3.2,0.8-4,2l-0.2-0.2L265.5,37.6z"/>
		<polygon class="st8" points="280.6,36 280.5,37.4 278,41.2 276.8,40.8 		"/>
		<polygon class="st8" points="281.4,32.7 281.4,34.9 277.1,41.1 277.1,38.7 		"/>
		<polygon class="st23" points="277.1,41.1 275.8,40.6 277.1,38.7 		"/>
		<polygon class="st23" points="278,41.2 278,39.8 277.2,41 		"/>
	</g>
	<path class="st13" d="M269.8,42.3c-0.2,0-0.3-0.1-0.5-0.2c-0.3-0.3-0.5-0.7-0.2-1.1l11.6-16.3c0.3-0.3,0.7-0.5,1.1-0.2
		c0.3,0.3,0.5,0.7,0.2,1.1l-11.6,16.3C270.3,42.1,270,42.3,269.8,42.3z"/>
	<path class="st13" d="M269.1,39.3c-0.1,0-0.2,0-0.2-0.1c-0.2-0.1-0.2-0.4-0.1-0.6l10.7-15.1c0.1-0.2,0.4-0.2,0.6-0.1
		c0.2,0.1,0.2,0.4,0.1,0.6l-10.7,15.1C269.4,39.3,269.2,39.3,269.1,39.3z"/>
</g>
</svg>
