<?xml version="1.0" encoding="utf-8"?>
<!-- Generator: Adobe Illustrator 23.1.1, SVG Export Plug-In . SVG Version: 6.00 Build 0)  -->
<svg version="1.1" id="Layer_1" xmlns="http://www.w3.org/2000/svg" xmlns:xlink="http://www.w3.org/1999/xlink" x="0px" y="0px"
	 viewBox="0 0 58 46" style="enable-background:new 0 0 58 46;" xml:space="preserve">
<style type="text/css">
	.st0{opacity:0.25;fill-rule:evenodd;clip-rule:evenodd;fill:#FFFFFF;}
	.st1{opacity:0.5;fill-rule:evenodd;clip-rule:evenodd;fill:#FFFFFF;}
	.st2{fill-rule:evenodd;clip-rule:evenodd;fill:#FFFFFF;}
</style>
<path id="Fill-118" class="st0" d="M49.9,42.3l1.9,1.9c0.4,0.4,1,0.3,1.3-0.1c3.3-4.9,5.1-10.7,4.9-16.7C57.5,11.8,44-0.5,28,0
	c-1.1,0-2.2,0.1-3.3,0.3C11.5,2.2,1.1,13.1,0.1,26.2c-0.5,7.1,1.6,14,5.9,19.5c0.3,0.4,1,0.4,1.3,0l1.8-2c0.2-0.3,0.3-0.7,0-1
	c-3.1-4.1-4.7-9-4.8-14.2C4.3,15.9,14.2,5.3,27,4.3c14.1-1.1,26.2,9.6,26.7,23.3c0.2,4.9-1.2,9.7-3.8,13.7
	C49.6,41.7,49.7,42.1,49.9,42.3"/>
<path id="Fill-120" class="st1" d="M42.4,34.5l2.2,2.2c0.5,0.5,1.3,0.3,1.5-0.2c1.3-2.6,1.9-5.5,1.8-8.4
	c-0.3-8.8-7.1-16.2-16.1-17.8c-2.6-0.4-5.4-0.4-8,0.3C15,12.6,8.7,20.5,9,29.3c0.1,2.9,0.9,5.7,2.4,8.3c0.3,0.6,1.1,0.6,1.5,0.1
	l2.1-2.4c0.2-0.3,0.3-0.6,0.1-0.9c-0.8-1.7-1.2-3.4-1.3-5.3c-0.2-5.9,3.5-11.3,9.2-13.5c3.2-1.2,6.8-1.3,10.1-0.3
	c5.8,1.8,9.9,7,10.1,12.9c0.1,1.8-0.3,3.6-0.9,5.3C42.1,33.9,42.2,34.2,42.4,34.5"/>
<path id="Fill-124" class="st2" d="M27.8,22c-3.9,0.1-6.9,3.2-6.8,6.9c0.1,2,0.8,3.8,2.2,4.9v-2.8c0-1.1,0.4-2.1,1.1-2.9
	c0.9-1,2.2-1.7,3.7-1.7c2.2,0,4.1,1.5,4.6,3.5c0.1,0.3,0.1,0.7,0.1,1.1l0,2.9c1.6-1.3,2.3-3.3,2.2-5.5C34.9,24.8,31.6,21.9,27.8,22"
	/>
</svg>
