<?xml version="1.0" encoding="utf-8"?>
<!-- Generator: Adobe Illustrator 23.1.1, SVG Export Plug-In . SVG Version: 6.00 Build 0)  -->
<svg version="1.1" id="Layer_1" xmlns="http://www.w3.org/2000/svg" xmlns:xlink="http://www.w3.org/1999/xlink" x="0px" y="0px"
	 viewBox="0 0 1132 678" style="enable-background:new 0 0 1132 678;" xml:space="preserve">
<style type="text/css">
	.st0{fill-rule:evenodd;clip-rule:evenodd;fill:#C2E9F9;}
</style>
<path id="Blue-Cloud" class="st0" d="M974.1,161.9c-30.5-4.7-60.5-1.6-87.8,7.6c-11.4-79-73.1-144.6-156-157.4
	c-47.8-7.3-94.1,4.2-131.4,29C578.5,20.7,551.7,6.4,521,1.6C466.1-6.8,413.8,18,384.4,61c-4.2-0.9-8.5-1.7-12.8-2.4
	C263,41.9,161,108.7,130.5,211.1C66.6,214.5,11.7,262.2,1.6,327.9C-10,403.3,41.7,473.7,117,485.3c5.8,0.9,11.6,1.4,17.3,1.5
	c-0.5,2.4-0.9,4.8-1.3,7.3c-11.6,75.3,40.1,145.8,115.4,157.4c56.5,8.7,110.3-18.2,138.5-64c27.5,45.9,74.4,79.6,131.4,88.4
	c54.4,8.4,106.8-7.7,146.3-40c10.1,3.4,20.5,6,31.4,7.7c88.3,13.6,171.6-37.3,202.2-117.5c6.3,1.7,12.7,3,19.3,4
	c101.6,15.6,196.7-54.1,212.3-155.7C1145.4,272.6,1075.7,177.5,974.1,161.9"/>
</svg>
