<?xml version="1.0" encoding="utf-8"?>
<!-- Generator: Adobe Illustrator 23.1.1, SVG Export Plug-In . SVG Version: 6.00 Build 0)  -->
<svg version="1.1" id="Layer_1" xmlns="http://www.w3.org/2000/svg" xmlns:xlink="http://www.w3.org/1999/xlink" x="0px" y="0px"
	 viewBox="0 0 680.7 390.2" style="enable-background:new 0 0 680.7 390.2;" xml:space="preserve">
<style type="text/css">
	.st0{fill-rule:evenodd;clip-rule:evenodd;fill:#E1F7FF;}
</style>
<path id="Cloud---BottomLeft" class="st0" d="M609.4,172.5c-2.2-53-45.9-95.3-99.3-95.3c-15.4,0-29.9,3.5-42.9,9.7
	C453.9,36.9,408.4,0,354.2,0c-38.7,0-73,18.9-94.3,48c-15.7-7.9-33.4-12.3-52.1-12.3C143.3,35.6,91,88,91,152.5v0.1
	c-3.1-0.4-6.2-0.6-9.4-0.6C36.6,152,0,188.6,0,233.7s36.6,81.7,81.6,81.7c11,0,21.5-2.2,31.1-6.2c12.7,28.7,41.3,48.8,74.7,48.8
	c19.5,0,37.3-6.8,51.4-18.2c28.6,30.9,69.4,50.3,114.8,50.3c36.6,0,70.2-12.6,96.8-33.7c12.2,7.3,26.5,11.5,41.7,11.5
	c30.3,0,56.7-16.5,70.8-41.1c10.9,5.4,23.1,8.4,36,8.4c45.1,0,81.6-36.6,81.6-81.7C680.7,211.9,649.6,177.6,609.4,172.5"/>
</svg>
