<?xml version="1.0" encoding="utf-8"?>
<!-- Generator: Adobe Illustrator 23.1.1, SVG Export Plug-In . SVG Version: 6.00 Build 0)  -->
<svg version="1.1" id="Layer_1" xmlns="http://www.w3.org/2000/svg" xmlns:xlink="http://www.w3.org/1999/xlink" x="0px" y="0px"
	 viewBox="0 0 778.3 464.5" style="enable-background:new 0 0 778.3 464.5;" xml:space="preserve">
<style type="text/css">
	.st0{fill-rule:evenodd;clip-rule:evenodd;fill:#D4EFFC;}
</style>
<path id="Cloud---TopRight" class="st0" d="M669.7,110.9c-21-3.2-41.6-1.1-60.4,5.2C601.5,62,559.1,17,502,8.3
	c-32.9-5-64.7,2.9-90.4,19.9c-14-14-32.4-23.9-53.5-27.1c-37.7-5.8-73.7,11.2-93.9,40.6c-2.9-0.6-5.8-1.2-8.8-1.6
	C180.8,28.7,110.7,74.5,89.7,144.6c-43.9,2.3-81.7,35-88.6,80.1c-8,51.6,27.6,99.9,79.4,107.8c4,0.6,8,0.9,11.9,1
	c-0.3,1.6-0.7,3.3-0.9,5c-8,51.6,27.6,99.9,79.4,107.8c38.8,6,75.8-12.5,95.2-43.9c18.9,31.4,51.2,54.5,90.4,60.5
	c37.4,5.7,73.4-5.3,100.6-27.4c6.9,2.3,14.1,4.1,21.6,5.3c60.7,9.3,118-25.6,139-80.5c4.3,1.1,8.8,2.1,13.3,2.8
	c69.9,10.7,135.2-37.1,146-106.7C787.5,186.8,739.6,121.6,669.7,110.9"/>
</svg>
