<svg version="1.1" id="Layer_1" xmlns="http://www.w3.org/2000/svg" xmlns:xlink="http://www.w3.org/1999/xlink" x="0px" y="0px"
	 viewBox="0 0 188.9 228.5" style="enable-background:new 0 0 188.9 228.5;" xml:space="preserve">
<style type="text/css">
	.st0{fill:#8C5050;}
	.st1{fill:#7D3B3B;}
	.st2{fill:#54545C;}
	.st3{fill:#858489;}
	.st4{fill:#34383E;}
	.st5{fill:#010101;}
	.st6{fill:#787B80;}
	.st7{fill:#ECD6B7;}
	.st8{fill:#DDC4A6;}
	.st9{fill:#CDB297;}
	.st10{fill:#9E8570;}
	.st11{fill:#785F4C;}
	.st12{fill:#E4ECF7;}
	.st13{fill:#878791;}
	.st14{fill:#A7A4AD;}
	.st15{fill:#938F9A;}
	.st16{fill:#747082;}
	.st17{fill:#433738;}
	.st18{fill:#0C1C33;}
	.st19{fill:#966060;}
	.st20{fill:#6BAA6B;}
	.st21{fill:#91401F;}
	.st22{fill:#E2A57A;}
	.st23{fill:#CB8F66;}
	.st24{fill:#21295F;}
	.st25{fill:#293680;}
	.st26{fill:#263D8C;}
	.st27{fill:#AD4925;}
	.st28{fill:#569157;}
	.st29{fill:#49494A;}
	.st30{fill:#41160E;}
	.st31{fill:#AE7C3F;}
	.st32{fill:#B68A4F;}
	.st33{fill:#CCA06A;}
	.st34{fill:#262626;}
	.st35{fill:#0D1320;}
	.st36{fill:#F8BCD5;}
	.st37{fill:#E8A7C5;}
	.st38{fill:#D785AD;}
</style>
<g>
	<path class="st0" d="M168.9,26.5c-0.5-1.6-1.3-3.5-1.2-4.9c0.1-1.4,0.6-2.7,0.6-4.2c0-1.5,0.1-3.3,0.6-4c0.5-0.7,0.8-3.4,0-5
		c-0.8-1.6-19.1-1.2-21.8,0s-1.6,3.7-1.8,5.3s-0.4,2.5-0.4,3.1c0.1,0.6,0.8,2.1,0.5,3c-0.3,0.8-0.4,2,0,2.3c0.4,0.2,1.4,0.6,1.7,1.7
		c0.2,1.1,0.6,2.2,0.4,2.9c-0.2,0.7-0.8,1.6-0.7,2.1c0.2,0.5,0.8,1.2,1.1,1c0.2-0.2-0.4,1.1-0.4,1.1l7.4,3.9l13.2-1.7L168.9,26.5z"
		/>
	<polygon class="st1" points="120.6,65.8 122.8,68.7 130,70.8 129.3,65.1 122.9,62.8 	"/>
	<path class="st2" d="M110.3,43.2c0.5,0,12.9-0.8,13.7-0.8s0.8,0.4,0.8,0.4s8.9,20.1,9.5,21.4c0.6,1.3-0.4,1.3-0.4,1.3l-12.5,1.2
		c0,0-1.1,0.3-1.5-0.5c-0.2-0.4-9.8-22.2-9.8-22.2S109.8,43.2,110.3,43.2z"/>
	<polygon class="st3" points="111.6,44.6 124.3,43.8 133.6,64.4 121,65.5 	"/>
	<path class="st0" d="M134.6,68c-0.2-0.5-0.6-1.7-1-1.8c-0.5-0.1-1.4-1.2-1.6-1.5c-0.2-0.3-0.3-1-1.1-1s-1.8,0.1-2.5-0.2
		s-2.3-0.1-2.6-0.2c-0.4-0.1-1.2-0.6-1.5-0.5c-0.3,0.2-0.7,0.8-0.3,1.2c0.4,0.5,1.1,1.1,1.6,1.3c0.5,0.3,1.5-0.2,1.7,0
		s0.5,2.5,0.3,2.8c-0.2,0.3-2,0.7-2.3,0.7s-0.7-1.2-0.8-1.6s-0.8-1.3-1.3-1.5s-0.8-0.5-1-0.2c-0.2,0.3-0.3,1.2,0,2.1
		c0.3,0.9,0.4,0.8,0.5,1.1c0.1,0.3,0.4,1.3,0.7,1.5c0.3,0.3,1.7,1.8,1.8,2c0.1,0.2,1.1,0.7,1.8,1.2s1.4,1.4,2.3,1.5
		c1,0.2,3.4,0,3.4,0l2.2-5.4L134.6,68z"/>
	<g>
		<path class="st1" d="M125.6,68.8c0.1,0.3,0.2,0.7,0.2,1.1c0,0.2,0.1,0.4,0,0.5c-0.1,0.1-0.3,0.3-0.7,0.3l-0.1-0.1
			c-0.1-0.3-0.2-0.4-0.2-0.6c0-0.2,0.1-0.3,0.2-0.4C125.2,69.4,125.4,69.1,125.6,68.8L125.6,68.8z"/>
	</g>
	<g>
		<path class="st1" d="M127,68.6c0.1,0.6,0.2,1.1,0.2,1.7c0,0.3,0.1,0.6,0,0.9c-0.1,0.3-0.2,0.6-0.6,0.8l-0.1-0.1
			c-0.2-0.3-0.2-0.6-0.3-0.9c0-0.3,0.1-0.5,0.2-0.8C126.6,69.7,126.8,69.1,127,68.6L127,68.6z"/>
	</g>
	<path class="st1" d="M128.1,68.3c0,0,0.5,1.9,1.2,2.3c0.7,0.4,3.6,1.2,4,1c0.3-0.2,1.1-0.7,1.1-0.7s0.5-0.5,0.4-2
		c-0.1-1.5-0.5-2.3-0.9-2.5c-0.3-0.3-0.3-0.3-0.3-0.3s-1.7,3-3.1,2.4c-1.4-0.5-2.2-1.8-2.2-2.1c0-0.3,0.3-0.4,0.7-0.4
		c0.4,0,1.4-0.7,1.4-0.7s-0.6,0.3-1.3,0.3c-0.7,0-1.2,0.2-1.2,0.2L128.1,68.3z"/>
	<path class="st4" d="M177.7,209c0.2,1.2-0.6,1.6,0,2.3c0.6,0.7,1,1.6,1.1,2.8s0.8,1.8-0.7,2.1c-1.5,0.3-9.2,3.3-9.2-1.8
		c0-2.7,0-6.6,0-6.6l5.7-1.5l1-0.3L177.7,209z"/>
	<path class="st5" d="M179.1,215.3c0,0,0.6,2.4,0,3.2c-0.6,0.8-1.6,1.6-3.4,1.5c-1.8-0.1-7.2-1.2-7.2-1.2l1-2.3c0,0,3.5,0.7,6,0.3
		C178.2,216.3,179.1,215.3,179.1,215.3z"/>
	<g>
		<path class="st6" d="M154.5,216.8c-1.1,0.5-2.2,1.6-3.8,1.6c-1.6,0-5.4-0.2-6.5,0.4s-1.9,1.3-1.7,1.9c0.2,0.6,2.3,3.4,2.3,3.4
			l12.1,2.3l3.2-4.2L154.5,216.8z"/>
		<path class="st4" d="M160,213.5c-0.7,0.4-6,2.3-6.2,4.8c-0.2,2.5,0,3.9,0.6,4.9c0.6,1,1.4,1.9,1.4,1.9l1.1,1.4h11.3h5.5
			c0,0,1.7-1.3,1.7-2.1s0.4-2,0-3c-0.4-1.1-0.7-3.6-0.7-4.2C174.5,216.6,160,213.5,160,213.5z"/>
		<path class="st5" d="M142.4,220.8c0,0,4,4.9,14.9,4.9c10.9,0,15.7,0.3,16.5,0c0.8-0.3,1.4-1.4,1.4-1.4s0.7,0.5,0.5,1.5
			c-0.2,1-0.6,2.7-5.6,2.7s-21.2-1.4-23.5-2c-2.3-0.7-4.8-3-4.8-3.9C141.7,221.7,142.4,220.8,142.4,220.8z"/>
	</g>
	<g>
		<path class="st7" d="M144.2,115.6c-0.2,1.5,0.4,9.3,0.7,13.7s2.7,23.2,3.5,24s0.3,2.6,1.4,3.5c1.1,0.9,1.1,3.1,1.1,4.2
			c0,1.1-0.2,2.1,0,3.1c0.2,1,0.8,4.2,2.1,5.1c1.4,1,2.7,3,2.7,3s0.4,4.8,0.5,5.1s0.8,8.9,1.4,11.4c0.5,2.4,1.5,5.8,1.5,7
			s-0.5,2.4,0,3.3c0.5,0.9,2,1.9,1.9,2.9c-0.2,1-2.3,4-2.2,4.3c0.1,0.3,0.2,4.3,0.4,4.6c0.2,0.3,1.5,0.7,1.4,1.1s-0.7,0.6-0.5,1.4
			s1.7,4.5,5.5,5c3.8,0.5,7,0.5,8.3,0c1.2-0.5,1.2-0.5,1.2-0.5s0.8-0.7,0.5-2.2c-0.3-1.5,0-2.7-0.6-3.2c-0.6-0.5-1.5-1-1.6-1.6
			c-0.1-0.6,0.2-2.3,0.2-2.3h0.8c0,0,1-1.1,1.3-1.1c0.2,0,1.1-0.1,1.1-0.1l1,1.5c0,0-0.2-2.3-0.5-3.2s-1.4-2.1-0.9-2.3
			c0.5-0.2,0.7,0,1.4-0.5c0.7-0.5,1.7-1.4,1.8-4.2c0.1-2.8-0.1-16.6-0.8-20.7c-0.7-4.2-1.7-5.7-1.7-6.2c0-0.5,0.5-1.4,0.3-2.3
			c-0.2-0.9-0.6-2.3-1.2-3.5c-0.6-1.2-1.7-2.7-1.8-3c-0.2-0.3,0.6-0.7,0.7-1c0.1-0.3-0.6-3-1.4-3.6c-0.8-0.6,0.4-1.3,0.4-1.3
			s1.2-0.9,1-2c-0.2-1.1-0.7-3.9-0.7-3.9s1.5-8,2-9.3c0.5-1.3,1.3-3.7,1.9-5c0.6-1.3,1.7-4.2,1.4-5.7c-0.3-1.4,0.1-2.5,0.1-2.5
			l1.6-5.3L167,113.6l-11.3-5.6l-10.4,6.9L144.2,115.6z"/>
		<path class="st8" d="M181.2,123.7l-11.1-7.8v0l-3.2-2.2l-11.3-5.6l-4.8,3.2c0,0,0.4,9.6,0,11.7c-0.4,2.1,0,6.1,0.5,8.2
			c0.5,2.1,3.3,18.9,3.8,23.6c0.5,4.7,2.2,14.8,2.3,16.1c0.2,1.2,3.3,4.9,3.3,6.7c0.1,1.8-1.4,4.6-0.8,6.4c0.6,1.8,1.7,7,1.7,8.5
			c0.1,1.5,1.1,8.9,0.3,10.1c-0.7,1.2-0.1,7.6,0,8.2c0.1,0.6,0.6,3.1,0.9,4.5c0.4,1.4-0.9,1.7-0.9,1.7c0.8,0.8,2,1.4,3.4,1.6
			c3.8,0.5,7,0.5,8.3,0s1.2-0.5,1.2-0.5s0.8-0.7,0.5-2.2c-0.3-1.5,0-2.7-0.6-3.2c-0.6-0.5-1.5-1-1.6-1.6c-0.1-0.6,0.2-2.3,0.2-2.3
			h0.8c0,0,1-1.1,1.3-1.1s1.1-0.1,1.1-0.1l1,1.5c0,0-0.2-2.3-0.5-3.2c-0.2-0.8-1.4-2.1-0.9-2.3c0.5-0.2,0.7,0,1.4-0.5
			s1.7-1.4,1.8-4.2c0.1-2.8-0.1-16.6-0.8-20.7c-0.7-4.2-1.7-5.7-1.7-6.2c0-0.5,0.5-1.4,0.3-2.3c-0.2-0.9-0.6-2.3-1.2-3.5
			c-0.6-1.2-1.7-2.7-1.8-3c-0.2-0.3,0.6-0.7,0.7-1c0.1-0.3-0.6-3-1.4-3.6c-0.8-0.6,0.4-1.3,0.4-1.3s1.2-0.9,1-2
			c-0.2-1.1-0.7-3.9-0.7-3.9s1.5-8,2-9.3c0.5-1.3,1.3-3.7,1.9-5c0.6-1.3,1.7-4.2,1.4-5.7c-0.3-1.4,0.1-2.5,0.1-2.5L181.2,123.7z"/>
		<path class="st9" d="M172.5,117.2c0,0,0.2,6.3-0.5,7.3s-1.4,0.7-1.1,1.8c0.3,1.1,0.8,2.7,0.8,2.7s0.2,1.5,0,2.1
			c-0.2,0.6,0.3,12.5,0,13.4s-1.2,2-0.9,2.8c0.4,0.8,1.2,3.3,0.8,4.1c-0.3,0.8-0.9,4.5-0.9,4.5s1.1,1.9,0.9,2.4
			c-0.2,0.5-0.1,2.9,0,3.8s-1.4,3.3-1.5,3.6s0.6,0.8,0.7,2.2c0.1,1.4,0.1,2.4,0.5,3.2c0.4,0.8,2.4,3.2,2.3,4.5
			c-0.1,1.3,0.2,2.4,0,3.2c-0.2,0.8-0.8,9,0.1,11.7c0.8,2.7,1.4,6.3,0.7,8.2c-0.7,1.9-1.5,2-1.4,3.6s0.5,6,0.5,6h0.8l1.3-1.1
			c0,0-1-1.3-1.2-2.1c-0.2-0.8,0.1-2.4,0.7-2.7c0.6-0.3,2.2-0.5,2.5-0.8c0.3-0.3,0.4-0.9-0.8-1.3c-1.3-0.4-1.3-3.4-1.3-4
			c0-0.6,2.6-4.1,2.3-5.5c-0.3-1.3-0.7-1.9-1.5,0.2c-0.8,2.1-1.2,2.3-1.3,0.9c-0.1-1.4,0.6-4.6,0.4-6.7s-0.2-9.4-0.5-10
			c-0.3-0.6,0.5-1.3,0.5-1.9c0-0.6-2.4-0.7-2.7-2c-0.3-1.3,1.6-1.8,2-3c0.4-1.2-1.6-1.1-2.1-2c-0.5-0.9-1.3,0.5,0.2-1.4
			c1.5-1.9-0.1-1.2-0.1-2.7s-1.2-3.8-0.4-5c0.8-1.2,0.2-1.8,0-2.4c-0.2-0.6,0.6-5.3,1.1-6.9c0.5-1.6,1.3-11.8,0.6-13.2
			s-2-1.9-0.6-3.1c1.4-1.2,3.6-1.3,4.5-3.3c0.9-2,0-7.1,0-7.1L172.5,117.2z"/>
		<path class="st10" d="M150.9,113.1c0,0,0.8,8.6-0.1,9.9c-0.9,1.2-0.9,1.2-0.9,1.2l-3.8-4.7v-3.8l3.4-2.9L150.9,113.1z"/>
		<path class="st11" d="M146.1,119.4c0.9,1.3,3.8,4.7,3.8,4.7s-3.8-5.6-3.3-7c0.5-1.4,4.3-4.1,4.3-4.1l-0.1-1.9l-5.6,3.7
			c0,0,0.2,2,0,2.8C145.1,118.5,146.1,119.4,146.1,119.4z"/>
	</g>
	<g>
		<path class="st12" d="M172.3,31.4l-1.2-3.5c0,0-1.6-1.8-4.2-1.8c-2.6,0-8,1.6-9.3,3.8s-2.1,3.1-1.8,4.2c0.3,1.1,0.9,2,0.9,2
			L172.3,31.4z"/>
		<g>
			<path class="st12" d="M144.1,95.9c-0.4,2.3-0.9,6.2,0,7.9c0.9,1.7,0.7,6,0.5,7.5c0,0-0.9,5.2-1.3,6.4c-0.4,1.2,0.7,1.8,0.7,1.8
				l0-2.4c0,0,0.8-1.6,2.9-3c2.1-1.4,7.2-3.1,7.7-2.9c0.5,0.2,0.7,0.4,1.9,0.5c1.2,0.1,2.5-1,3.2-0.5c0.7,0.5,1.9,3.2,1.8,4.3
				s2,4.9,4.4,6.3c2.4,1.4,7,3.3,10.9,3.6c3.8,0.2,5.1-1.1,5.2-2.1c0.1-1,0.4-2.4,0.6-2.7c0.2-0.3,1.1-3.3,1-4.2
				c-0.1-0.9,0.6-3.8,0.6-3.8l-18.7-26.9L144.1,95.9"/>
			<g>
				<g>
					<path class="st13" d="M137.6,69.6c-0.8,0-1.6-0.2-1.9-0.7c-0.3-0.5-1.1-1.4-1.1-1.4s-0.6,1.4-1.1,2.1c-0.5,0.7-1,2.4-1.3,3
						c-0.3,0.6-0.9,2.6-1.3,2.8c-0.4,0.2,0.4,0,1.2,0.3c0.8,0.3,1.6,0.8,2.1,1.4c0.5,0.6,1.1,0.9,1.1,0.9s0.1,1.4,0.3,1.5
						c0.2,0.2,1.7,1.2,3,1.3c1.4,0.1-0.3-9.5-0.3-9.5L137.6,69.6z"/>
					<path class="st14" d="M172.3,31.4c-0.3-1-2.4-2-5.6-1.8c-3.1,0.2-4.9,1.1-6,1.8s-2.1,1.6-2.7,1.7c-0.6,0.1-5.1,2.5-6.3,2.9
						c-1.1,0.4-5.3,2.4-6.6,5.6c-1.3,3.1-3,11.7-3.6,12.5c-0.6,0.8,0.2,1.9-0.6,3.7c-0.8,1.8-1.9,2.8-1.9,3.6c0,0.8-0.3,0.6-0.8,1.7
						s-1.2,2.6-1.1,3.4c0.1,0.8,0.9,2.2,0.5,2.9c-0.4,0.7-0.1,2.6,0.2,3.6c0.3,1,0.5,4.9,0.3,5.7s0.6,1.4,0.6,2.4s1.3,3.2,1.5,4.8
						c0.2,1.6-1.1,3.1-0.1,4.5c1,1.4,1.9,1.3,2.1,2.2c0.2,0.9,0.8,1.8,2.3,2c1.5,0.2,3.8-0.9,4.3-1.2c0.5-0.4,1.4-1,1.4-1l2.6,6.3
						c0,0,2.6,5.8,2.9,6.4c0.4,0.6,1.9,3.8,2.5,4.2c0.6,0.4,2.8-0.9,4-0.7c1.2,0.2,3.9,1.6,4.9,2.5c1,0.9,4,3,6.6,2.1
						c2.5-0.9,6.2-1.9,7.3-1.5c1.2,0.5,3.6,1.7,3.6,1.7s0.1-1.9,0.4-2.6c0.4-0.7,1.7-1.9,1.6-3.2s0.7-4.7,0.6-5.8s0.3-13.9,0.3-17.1
						c0-3.3-0.5-18,0-19.5s1.5-5.1,1.3-7.6s-0.4-4.5-0.5-4.9c-0.1-0.5-1.8-5.2-2.9-6.3c-1.1-1.1-2-4.1-3-5.5
						c-1.1-1.4-5.4-5.2-6.1-5.7c-0.8-0.5-1.7-1.7-2.3-2C173.5,33.1,172.7,33.1,172.3,31.4z"/>
					<path class="st15" d="M173.2,40.8c-2.1-2.7-8.6-8-10.1-8.5c-1.2-0.4-3.9,3.1-4.9,4.5l-1.4-0.7l-2.2,0.8c-1,0.6-2.3,1.6-2.5,3.6
						c-0.2,2-0.9,3-2.3,3.5c-1.5,0.5-2.2,1.2-2.9,1.8c-0.7,0.6-0.9,1.8,0.6,1.1c1.5-0.7,2.2-0.2,2.8,0.2c0.6,0.4,1.5,0.8,3.3,0.8
						c1.8-0.1,3.2,0.3,2.3,0.5c-0.9,0.2-7,1.7-8,3.5c-1,1.8-3.7,7.4-3.4,9.1c0.3,1.8-2.7,2.7-2.6,3.6c0.1,0.9,0.6,3.2,1.6,4.1
						c1,0.9-1.2,2.6-1.9,2.8c-0.7,0.2-2.8,1.1-1.8,2.9c1,1.8,0.3,4.9,1.6,5.8c1.3,0.9,2.6,1.1,2.5,2.7c-0.1,1.6-2,2.5-1.5,4.4
						c0.5,1.9,0.8,6.7,1.8,7c1,0.3,4.1-0.8,5.2-1.6c1.1-0.8,2-2.8,2-2.8l4.7-5.1l2.7,18.5l-0.5,6.4c0,0,1,0.1,2-0.5
						c1-0.5,2-0.3,3.4,0.2c1.4,0.4,3.5,2.1,5.8,3.6c2.3,1.6,4.2,0.6,4.2,0.6s0.5-6.3-0.6-9.8c-1.1-3.5-0.3-10.9,0.2-14.5
						c0.5-3.6-0.3-8-0.8-12.9c-0.5-4.8,2-5.5,2.7-9.1c0.8-3.6-2.9-11.4-3.2-15c-0.3-3.6,3.9-1.5,4.5-2.4
						C177.3,48.8,175.3,43.5,173.2,40.8z"/>
					<path class="st16" d="M147.5,39.2c1-0.6,2.7-1.7,3.8-1.6c1.1,0.1,2.5-0.9,3.3-0.8s2.8-0.7,3.1,0.6s1.7,5.9,2.6,6.9
						c0.9,1.1-0.2,2.9,0,3.6s1.2,3.3,1.3,3.9c0.1,0.6,0.1,3.8-0.5,4.3s0.6-2-0.4-3.7c-1-1.7-3-3.2-4.3-3.4c-1.4-0.2-4.6,1.3-4.6,1.3
						s3.9-1.3,5.8-0.1c1.9,1.3,2.1,3.1,2,4s-0.8,0.9-0.5,1.6s0.5,1.6,0,2.1s-3.2,3.2-3.4,3.6c-0.3,0.4-0.2,1.5-0.9,1.7
						c-0.7,0.3-1.1,0.5-1.2,1.5c-0.2,1.1,0.3,2.3,0.1,3.4c-0.2,1.1-0.6,1.7-0.8,1.7c-0.3,0.1-0.1,0.2,0,0.7c0.1,0.5-0.4,1.2-0.2,1.3
						c0.2,0.2,0.9,0.1,0.6,0.8c-0.3,0.7-0.7,3.8-0.6,4.7c0.1,1-0.4,2.2-0.9,2.5c-0.5,0.3-0.4,0.3-0.1,1c0.3,0.7-0.1,2.1-0.6,2.5
						c-0.5,0.4,0.2,1.8,0,2.4c-0.2,0.7,0.3,1.9,0.3,1.9s0.9-0.2,1.6,0c0.7,0.2,0.1,11.2,0.1,11.2s2,4.5,2.5,5.4
						c0.5,0.9,2.2,4.9,3,5.1c0.8,0.3,1.7-0.7,4-2.5s3.5-2.6,3.1-3.4s-1.8-5.8-2.4-6.9c-0.6-1.1-1.8-2.6-1.8-2.6s-2.3-8.2-2.6-10.7
						c-0.3-2.6-1-12.6,0.3-16.4c1.3-3.8,2.1-7.4,3.1-9.1c0.9-1.7,0.9-7.4,0.5-8.2c-0.5-0.8-1.6-1.3-1.3-2.7c0.3-1.4-0.2-3.7-0.8-4.3
						c-0.6-0.6-1.9-4-2.1-4.9c-0.2-0.9-0.7-2-1.4-1.8c-0.8,0.2-2.7,0.5-3.2,0.6c-0.6,0.1-1.2,0.6-1.7,0.5c-0.6-0.1-1.9,0.2-2.2,0.3
						C149.4,37.6,147.5,39.2,147.5,39.2z"/>
					<g>
						<path class="st16" d="M137.8,66.4c-0.2-0.4-0.2-0.6-0.3-0.9c-0.1-0.2,0-0.4,0-0.6c0.1-0.3,0.2-0.5,0.5-0.4
							c0.3,0.1,0.8,0.7,1,0.7c0.2,0.1,0.3-0.2,0.5-0.6c0.2-0.4,0.4-0.7,0.6-0.8c0.2-0.1,0.5-0.3,0.7-0.2c0.2,0.1,0.4,0.3,0.5,0.6
							c0.1,0.3,0.2,0.8,0.3,1.4l-0.1,0.4c-0.3,0.6-0.5,1-0.7,1.3c-0.2,0.3-0.3,0.5-0.4,0.5c-0.1,0.1-0.2-0.1-0.3-0.3
							c0-0.1-0.1-0.1-0.1-0.3c0-0.1-0.1-0.3-0.2-0.5c-0.1-0.4-0.3-0.5-0.4-0.4c-0.1,0.2,0.1,0.8,0.1,1.1c0,0.3-0.1,0.2-0.3,0.1
							c-0.1-0.1-0.2-0.2-0.4-0.3c-0.2-0.1-0.4-0.3-0.7-0.6L137.8,66.4z"/>
					</g>
					<g>
						<path class="st16" d="M151.9,69c-0.7,0.4-0.9,0.8-1.1,1c-0.2,0.2-0.4,0.3-0.6,0.1c-0.3-0.2-0.7-0.8-1-0.9
							c-0.3-0.1-0.6,0.2-0.9,0.6c-0.1,0.2-0.3,0.4-0.4,0.6c-0.1,0.2-0.5,0.3-0.7,0.4c-0.5,0.2-1,0.3-1.4,0.2
							c-0.4-0.1-0.8-0.4-1.1-0.8c-0.3-0.4-0.6-0.9-0.7-1.6l0.1-0.4c0.5-0.5,0.9-0.8,1.3-1.1c0.4-0.2,0.7-0.4,0.9-0.4
							c0.3,0,0.5,0.1,0.7,0.3l0.9,0.7c0.4,0.3,0.8,0.4,1.1,0.2c0.3-0.2,0.6-0.9,1-1.2c0.4-0.3,0.9-0.1,1.4,0.2
							c0.5,0.3,1,0.9,0.8,1.8L151.9,69z"/>
					</g>
					<g>
						<path class="st16" d="M151.7,70.2c-0.1,1-0.7,1.6-1.2,1.9c-0.6,0.4-1.2,0.5-1.8,0.5c-0.6,0-1.1-0.2-1.6-0.6
							c-0.5-0.4-1-0.9-1.2-1.9c0.7-0.7,1.2-1,1.7-1.2c0.5-0.2,0.9-0.3,1.3-0.3c0.4,0,0.8,0.1,1.2,0.4
							C150.5,69.3,150.9,69.7,151.7,70.2z"/>
					</g>
					<g>
						<path class="st16" d="M151.8,72.7l-0.9,1.1c-0.3,0.4-0.7,0.7-1.2,1c-0.2,0.1-0.5,0.4-0.8,0.5c-0.3,0.2-0.6,0.2-0.9,0.1
							c-0.3-0.1-0.6-0.3-0.8-0.7c-0.2-0.3-0.4-0.7-0.4-1.3l0.1-0.4l0.8-1c0.2-0.3,0.3-0.4,0.4-0.5c0.1-0.1,0.2-0.1,0.3,0
							c0.1,0.1,0.3,0.3,0.5,0.3c0.3,0.1,0.7,0.2,1.2,0.2c0.5,0.1,1,0.1,1.5,0.4L151.8,72.7z"/>
					</g>
					<path class="st16" d="M138.8,72.5c0.8-0.2,3.1-0.2,3.8,0.5c0.7,0.7,3,1.1,3.3,1.1s-1.6,0.4-2.6,0.4s-2-1-2.6-1.1
						C140.1,73.3,138.8,72.5,138.8,72.5z"/>
					<path class="st16" d="M151,87.2c-0.9,2.6-5.3,4.9-6,5.3s0.8,0.2,1.7,0c1-0.2,3.3-1.4,3.3-1.4s-0.6,0.8-1.9,1.6
						c-1.3,0.8-5.8,0.2-5.8,0.2s0,0.7,0.6,1.2c0.5,0.5,1.1,1,2.6,0.9s5.3-1.6,6-3c0.6-1,1.2-3.5,1.2-3.5l-0.8,0L151,87.2z"/>
					<path class="st16" d="M131.1,75.3c0.4-0.2,1-2.2,1.3-2.8c0.3-0.6,0.8-2.2,1.3-3c0.5-0.7,1.1-2.1,1.1-2.1l1.1,1.4l1,0.6
						c0,0,0.2,1.8-0.5,1.9c-0.7,0.1-2.1,1.4-1.9,2.1c0.2,0.6,0.4,2.2,0.4,2.7c0,0.5-0.5,0.8-0.5,0.8s-1-1-1.5-1.2
						S131.1,75.3,131.1,75.3z"/>
					<path class="st16" d="M137.1,72.4c-0.8,0.7-1.5,1.6-1.5,2.4c-0.1,0.8,1.1,3,0.8,3.4c-0.3,0.5,0.7,1.2,0.8,1.2
						c0.1,0,0.3-2.1,0.3-3C137.4,75.4,137.1,72.4,137.1,72.4z"/>
					<path class="st0" d="M151.1,87.7c1-0.1,2.3,0,3,0.5c0.6,0.5,0.8,1,1.2,1c0.5,0,1.2,0.9,1.7,1.1s2.6,1.4,3.7,1.5
						c1.1,0.1,2.5,1,1.6,1.7s-1.7,0.9-2.4,0.8s-3.6-1-4.2-0.9c-0.6,0-1.1,0.7-1.7,0.8s-3.7-0.4-4.2,0c-0.4,0.3-1.6,2.3-2.7,2.9
						s-1.6,0.7-2.5,0c-0.9-0.7-1.4-1.3-1.4-1.9c0-0.5,0-0.5,0-0.5s1,0.6,2,0.4s3.6-1.3,3.9-1.5s1.7-0.9,2.2-2.1s0.6-2.7,0.3-2.8
						s-1.2,0.1-1-0.1C151,88.2,151.1,87.7,151.1,87.7z"/>
				</g>
				<path class="st1" d="M145.4,97.4c-0.6-0.1,1.4,0.5,1.7,0.6c0.2,0.2,1.9,1.4,2.7,1.5c0.7,0.1,1.8-0.2,2-0.5
					c0.2-0.4,0.2-0.4,0.2-0.4s1.2,0.1,1.6,0c0.5-0.1,1-0.5,1.1-0.7c0-0.2,0-0.6,0-0.6s0.5,0.2,1.1,0c0.6-0.2,0.9-0.5,0.9-0.7
					s0-0.5,0-0.5s0.2,0.8,0.7,0.8c0.5,0,1.2,0.1,1.3-0.6c0.2-0.7,0.4-2,0-2.4c0,0-0.9-0.2-1.3-0.3c-0.4-0.1-1-0.5-1.6-0.3
					s-1.2,0.8-1.7,0.8s-1.7-0.1-2.4-0.1c-0.6,0-1.4-0.3-1.8,0.1c-0.4,0.4-1.3,1.9-2,2.4C147.2,96.9,146.5,97.5,145.4,97.4z"/>
			</g>
		</g>
	</g>
	<g>
		<path class="st1" d="M151.9,16.7c0.4,0,0.5,0.1,0.4,0.2c-0.1,0.1-0.2,0.1-0.2,0.2c0,0.1,0,0.1,0.1,0.1c0.2,0,0.3,0.1,0.3,0.1
			c0,0-0.2,0.1-0.2,0.4l0,0.1c-0.3,0.2-0.5,0.1-0.6,0c-0.1-0.1-0.1-0.3,0.1-0.5c0.1-0.1,0.1-0.1,0.1-0.2c0,0-0.2-0.1-0.3-0.1
			C151.4,17,151.4,16.9,151.9,16.7L151.9,16.7z"/>
	</g>
	<g>
		<path class="st1" d="M152.6,19.5c0.3,0.3,0.3,0.6,0.2,0.7c0,0.1-0.1,0.1-0.2,0.1c-0.1,0-0.2,0-0.4,0.1c-0.2-0.1-0.3-0.3-0.3-0.4
			c0-0.1,0-0.3,0-0.3C152,19.6,152.2,19.5,152.6,19.5z"/>
	</g>
	<g>
		<path class="st1" d="M147.8,29c-0.2-0.4-0.2-0.5-0.1-0.6c0.1-0.1,0.2-0.1,0.6,0.2c0.2,0.4,0.2,0.5,0.1,0.6
			C148.3,29.2,148.2,29.2,147.8,29z"/>
	</g>
	<path class="st17" d="M168.9,8.3c0.8,1.6,0.5,4.3,0,5c-0.5,0.7-0.6,2.5-0.6,4c0,1.5-0.5,2.8-0.6,4.2c0,0.5,0,1,0.2,1.6
		c0,0-3.7-3-5.5-1.7c-1.9,1.2-2.5,2.4-2.5,2.4s-1.8-4.5-2.7-6.1c-0.8-1.6-2.3-3.1-3.2-2.8s-3.1,0.1-3.5,3.1c-0.4,3,1.8,8.3,1.8,8.3
		l-2.7,1.8c0,0,0.2-4.5,0-5.6c-0.2-1.1-2-5.8-2.1-6.7c-0.1-0.9-0.7-3.2-0.7-3.2l10.4-4.5H168.9z"/>
	<path class="st18" d="M168.9,13.3c-0.2,0.3-0.3,0.8-0.4,1.3c0,0-1.6-0.7-1.9-0.7s-1.1,0.7-1.1,0.7s-0.5-0.7-0.9-0.9
		s-2.5,0.2-2.5,0.2s-0.2-0.9-0.8-1.2s-5.5,0.4-5.5,0.4s-0.8-2.2-2.3-1.7c-1.6,0.6-3.1,1.5-3.3,2c-0.2,0.5-1-0.1-1-0.1l-0.8,0.8
		c0,0,0.2-1-0.2-1c-0.4,0-1.6,0.3-1.6,0.3s1.1-2.7,0.4-2.4s-1.5,2-1.5,2s-0.9-1.9-0.8-3c0.2-1.1,0.4-1.8,0.4-1.8l0.3,0.7
		c0,0,0.4-1.8,0.8-2.5c0.4-0.7,1.8-2.1,1.8-2.1v0.8c0,0,1.6-1.3,2-1.8s0.8-1.5,1.4-1.8c0.6-0.3,1.3-0.2,1.3-0.2s-0.5,0.3-0.6,0.7
		c-0.1,0.4,0.6,0.1,0.6,0.1s1.4-1,1.7-1.1c0.3-0.1,1.2,0,1.2,0l-0.8-0.8c0,0,0.7,0.1,0.8,0.2C155.7,0.8,156,0,156,0l0,1
		c0,0,0.5-0.6,0.8-0.8s-0.3,0.3-0.3,0.6c0,0.3,0.7,0.1,0.9,0s1-0.2,1.8-0.2s0.8,0,0.8,0L159.5,1c0,0,2.7,0.5,3.1,0.8
		c0.4,0.2-0.6,0.2-0.6,0.2s2.8,1.1,3.4,1.6s-0.8-0.1-0.8-0.1s4,2.7,4.2,3l-0.7,0.1c0,0,0.9,0.9,1.4,1.6c0.4,0.6,0.5,2.3,0.5,2.7
		c0,0.5-0.3,1.1-0.3,1.1l-0.1-0.5l-0.3,2.2L168.9,13.3z"/>
	<path class="st18" d="M155.5,35.4l-5.3,2.4c0,0-0.7-0.6-0.8-1.3c-0.1-0.6,0.3-1.2,0.5-2.3c0.2-1.1,0.1-0.3-0.3-0.4
		c-0.4,0-0.6,0.6-0.6,0.2c0-0.4,0.2-1.4,0.2-1.8c-0.1-0.4-1.4-0.2-1.4-0.2s-0.7-0.9-0.4-1.7c0.4-0.8,1.7-0.2,2-0.3
		c0.3-0.2,0.5-1.1,0.1-1.4s0.8-1.9,0.9-2.5s1-1.1,1.1-1.7c0,0,1.1,0.2,1.2,0.5c0.2,0.3-0.3,0.2-0.3,0.2s0.8,0.2,1.1,1
		s1.1,2.1,1.1,2.1l-0.5-0.3c0,0,0.2,0.3,0.6,1c0.3,0.7,0.3,1.1,0.3,1.1s-0.8-0.5-0.7-0.2c0.1,0.2,1,1.9,1,1.9L155.5,35.4z"/>
	<path class="st19" d="M150.4,16.2c0.1,0.4,0.3,0.7,0.7,0.5c0.4-0.3,0.7-0.7,1.2-0.2c0.5,0.5,1.1,1.7,1.2,2.1
		c0.1,0.4-0.4,3.9-0.2,4.1c0.2,0.2,0.8-1.1,0.7-1.5c-0.1-0.4,0-3.2,0-3.2l-1.3-2.3l-1.5-0.2L150.4,16.2z"/>
	<path class="st1" d="M150.4,16c-0.1-0.5,1.9-1.5,2.6-0.6c0.7,0.9,1.4,2.2,1.3,3s-0.2,1.9-0.3,2.9c-0.1,1-0.1,2-0.5,2
		c-0.4,0-0.8-0.3-0.8-0.3s0.6,0.4,0.8-0.9s0.3-3.9,0.2-4.2s-1.4-1.9-1.7-1.8C151.7,16,150.6,16.6,150.4,16z"/>
	<path class="st18" d="M145.2,20.2c-0.2,0.2-0.1,0.9-0.1,1.1c0,0.2,0.3-0.3,1.4-0.2c1.1,0.2,1.3,0.3,1.3,0.3s-0.5-0.9-0.8-1
		c-0.3-0.1-0.6-0.3-0.6-0.3s-0.3-0.3-0.4-0.2c-0.1,0.1-0.2,0.3-0.5,0.3C145.2,20.2,145.2,20.2,145.2,20.2z"/>
</g>
<path class="st20" d="M42.9,64.4c1.4,1.6,3.6,5.6,3.5,7.8s-1.3,4-1.7,6.3s-1.1,9.5-1.1,9.5l-7-9.7L42.9,64.4z"/>
<path class="st21" d="M40.6,42.4c0.8,2.1,0.5,7.9,0,8.9s-0.4,3-0.4,3s0,0.2,0.9-1.3c0.8-1.4,2.2-1.4,2.6-1.6s2.6-9.4,2.6-9.4
	L40.6,42.4z"/>
<g>
	<g>
		<g>
			<path class="st22" d="M5.1,197.7c0,0-0.4,3-0.6,3.4c-0.2,0.5-1.2,3.9-1.4,4.8c-0.2,1-2.2,3.8-2.2,3.8l2.1,4.8l13.3-0.8l5.1-2.4
				l1-1.5l-1-0.5c0,0-2.9-0.6-3.4-1.1c-0.6-0.5-3.5-1.5-3.8-2.2c-0.3-0.7-0.8-2.5-0.6-4.2c0.2-1.7,0.3-4.3,0.3-4.3H5.1z"/>
			<g>
				<path class="st23" d="M9,199.4c0,0,1.9,2.7,2.7,3.1c0.8,0.4,0.8,0.4,0.8,0.4s0.9-0.9,0.4-2.5C12.3,198.7,9,199.4,9,199.4z"/>
				<path class="st24" d="M0.9,209.8c0,0-1,2.4-0.9,4.1c0.1,1.6-0.3,4,2,4.2c2.3,0.2,7.1-0.9,8.7-1.3c1.6-0.4,5.7-0.9,7.3-1
					s4.5-0.6,4.5-0.6l2.5-1.2l-0.5-3.3l-2-0.6c0,0-0.9,0.6-2,1c-1.1,0.4-7.5,1.8-11.4,1.1S2,210.8,0.9,209.8z"/>
			</g>
		</g>
		<g>
			<path class="st22" d="M22.9,206.6c0.3,1.3,0.4,3.4,0.4,4.2s0,2-0.2,2.5s-0.4,1.2-0.6,1.9c-0.2,0.7,1.8,4.6,1.8,4.6l14.8-0.4
				l5.1-3.5l-3.7-3.1c0,0-2-0.9-2.6-1.1c-0.6-0.2-2.1-0.6-2.9-0.9s-2.4-0.6-2.3-3s-0.9-4.1-0.9-4.1L22.9,206.6z"/>
			<path class="st23" d="M26.7,206.8c0,0-0.8,3.7-0.4,4.5c0.5,0.8,1.9,0.8,1.9,0.8s0.2-1.6,0.4-2.2S26.7,206.8,26.7,206.8z"/>
			<path class="st24" d="M22.5,215.2c0,0-0.8,2.2-0.7,3.3c0.1,1.1-0.1,3.5,0.7,4c0.8,0.5,4.3,0.6,6.1,0s3.6-0.9,5.9-1.3
				c2.3-0.3,5.3-0.2,6.7-0.6c1.5-0.5,4.2-1.4,5.1-2.6c0.9-1.2,1.5-2.7,1.1-3.7c-0.4-1-0.6-1.5-1.5-1.5c-0.9,0-5.5,0-5.5,0
				s2.3,1.7,2.1,2.6c-0.2,0.9-0.7,2.3-2.9,2.7c-2.2,0.4-9,0.1-11.9-0.7S22.5,215.2,22.5,215.2z"/>
		</g>
		<path class="st25" d="M11.6,100.8c-0.3,1.9-2.6,3.8-3,7.4s-1.1,13.7,1.5,18.9c2.7,5.2,5.2,17.5,5.4,20s2,9.2,2,9.2l-0.8,1.6
			c0.9,2.2,2.2,4.1,0.8,5c-1.4,0.9-1.9,1.4-2,2.2s-1.8,1.6-2.3,2.5c-0.5,0.9-4.9,8.4-5,10.3c-0.1,1.9-0.7,5.5-1.5,8.9
			c-0.8,3.4-3.6,9.9-3.6,9.9s2.7,3,5.9,3.6c3.3,0.6,6.4-0.6,6.4-0.6s0.6-7.3,1.4-9.5c0.8-2.2,3.4-6.4,3.4-6.4s-0.8,6.3,0,8.8
			c0.8,2.5,0.7,6.7,1,9.7c0.3,3-0.1,5.8,1.9,5.6s8.4-1.4,9.4-2.3c1-0.9,1.3,0.8,0.8-5.8c-0.4-6.6,1.4-22.7,1.9-23.9s-0.8-2,0-3.3
			c0.8-1.3,0.8-1.3,0.8-1.3c-0.9-1.3,0.2-1.5,0.4-2.6c0.2-1.1-1.2-1.8-0.4-3.2c0.8-1.4,0.8-2,1.3-3.9c0.5-1.9,5.6-22.5,5.6-23.9
			c0.1-1.4,4.4-17.4,3.8-19.9c-0.6-2.5-11.4-22.5-15.4-22.2C27.4,95.8,11.6,100.8,11.6,100.8z"/>
		<path class="st26" d="M15.5,108.3c-2.6,2.5-4.1,8.8,0.7,13.8c4.8,5,3.1,4.7,3.9,6.3c0.8,1.6,0.7,53.3,0.7,53.3s-0.8,5.1-0.8,6.7
			c0,1.6,0.6,4.5,0.7,5.9c0.2,1.3,0.6,7.8,0.7,9.7c0.1,1.9-0.1,3.8,0.9,3.8s3-0.3,4.2-0.5c1.2-0.2,2.7-0.6,2.7-0.6l1.7-0.5
			c0,0-0.7-6.1-0.8-8.1s1-18.5,1.7-20.2c0.8-1.7,3.1-30.2,5-33.2c1.9-3,6.3-26.4,0.5-32.4C31.7,106.2,21.8,102.2,15.5,108.3z"/>
		<g>
			<path class="st22" d="M23.2,45.4c4.1,2.2,20.1,8.1,20.7,13.9c0.3,2.8,0.9,3.5,0.7,6.6c-0.2,3-0.5,17.5,0.1,18.9
				c0.5,1.4,0.6,4.8,0.9,5.1c0.2,0.3,3.6,10.1,4.1,14.5c0.4,4.4,0.6,7.4,0.9,8.1c0.3,0.7-0.4,0.9,0,2.2s1.1,5.3,0.7,6.3
				c-0.4,1-3.4,8.1-3.7,9.1c-0.2,1.1-0.5,2.8-1,3.5c-0.5,0.7-3.6,4-3.6,4s0-3,0.4-3.5s1.6-3.1,1.4-3.6c-0.2-0.5-0.8-6.6-0.2-7.3
				c0.6-0.8,1.4-1.8,0.9-3.5c-0.5-1.7-3.6-9.2-4.5-10.6c-0.9-1.3-4.5-10.9-4.8-13.5c-0.2-2.7-1.3-5.6-2-12.2
				c-0.7-6.6-0.6-9.2-0.6-9.2l-9.8-5.3l-8.6-14L23.2,45.4z"/>
			<path class="st23" d="M43.3,93.3c0.8-0.5,1.4,1.4,1,2.3s-2.1,3.8-3.2,3.6S37.4,96,37.4,96s2.1,2.2,3.5,1S42.4,93.9,43.3,93.3z"/>
			<path class="st23" d="M32.3,69.1c0.6-0.4,0.8,0.6,1,1.5c0.2,0.8,0.5,3.6,0.5,3.6l-2.1-1.2C31.7,72.9,30.6,70.2,32.3,69.1z"/>
		</g>
		<path class="st20" d="M39.2,104.4c0,0-1.5-4.2-1.8-5.1s-0.9-3.8-1.5-7.1c-0.6-3.4-1.4-8.8-1.6-10.4s-0.5-7.7-0.5-7.7l-1.3-0.7
			c0,0-3-2.7-3.3-5.6c-0.2-2.9,0.6-5.2,2-7.9c1.4-2.7,7.8-6.4,7.8-6.4L37,52c0,0-4.3,2.9-6.6,3.2s-7.3-3.4-8.7-5
			c-1.4-1.6,1.5-4.8,1.5-4.8l-1.8-0.8c-1.6,0.7-4.7,2-5.2,3.1c-0.5,1.1-2.7,7.2-3.1,8.1c-0.4,0.9-1.4,5.3-1.1,8.5
			c0.2,3.2-0.4,5.8,0,7.2c0.3,1.4,1.2,2.1,1.1,3.7c-0.1,1.6,0.6,4.3,0.8,5.2c0.2,0.9-0.5,6.3-0.2,7.3c0.3,1-0.7,2.9-0.8,3.8
			c-0.1,0.8,0.2,1.4,0.2,2.9c0,1.5-0.9,2.1-1.2,2.7s0,1.6,0,1.6c-0.6,1.8,0.5,2.2,1.7,1.9c1.3-0.3,3.5-0.6,7.9-0.4
			c4.4,0.2,9.7-0.2,12.9,2.1s5.9,4.7,5.9,4.7L39.2,104.4z"/>
		<path class="st22" d="M23.2,45.4c1.7-0.8,2.3-2.4,2.7-3.2c0.4-0.8,0.4-6.3,0.4-6.3l19.2,1.5c0,0-7.5,10.2-8.2,11.3S37,52,37,52
			l-8.3,1.2L23.2,45.4z"/>
		<path class="st22" d="M45.6,41.4c-5.4,9.2-6.8,8.8-7.9,7.3c-0.8-1-1-1.7-1-1.7L45.6,41.4z"/>
		<path class="st21" d="M25.6,38.8c0,0,0.8,0.1,0.5,2.5c-0.2,2.5-0.8,3.2-0.8,3.2l1.4-0.5c0,0,0.3,1.4,0.8,2
			c0.5,0.6,1.2-0.7,1.2-0.7s0.6,0.7,1.1,1.4c0.5,0.6,1.6,0,1.6,0l1.3,1.5c0,0,0.9-1.4,1.3-1.3c0.3,0.1,1.9,0.4,1.9,0.4
			s1.2-2.3,2.6-3.8s0-4.7,0-4.7H25.6z"/>
		<path class="st21" d="M23.9,39.8l-0.7,5.6c0,0,0.1,0.4,1-0.7c0.9-1.1,1.3-1.6,1.9-3.3s0.5-4,0.5-4L23.9,39.8z"/>
		<path class="st27" d="M27.5,41.8c0,0,0.3-0.7,1.1-1.5c0.8-0.8,1.6,1.1,1.6,1.1s-0.4,1.6,0,1.6s1.6-1.2,1.8-1.9s1.5,0.1,1.5,0.1
			s-0.7,0.9-0.8,1.4c-0.2,0.5,1.8,1.9,1.8,1.9s-0.1-0.8,0-1.4s1.3-1.2,1.3-1.2s0.2,0.4,0.5,1.3c0.2,0.9-1.3,2.7-1.3,2.7
			s1.3,0.5,3.4,0.1s5-1.5,5-1.5s0.2,1.7,0.8,1.7c0.6,0-1.3,1.9-0.3,5.5c1,3.6-2.2,7-2.2,7s3.7-2.2,4.5-3.8c0.8-1.6,5.1-7.3,5.4-9.6
			s1.9-12.7,3.3-16s-0.9-7.8-2.5-9.5c-1.6-1.7-3.1-2.7-4-3.1c-0.9-0.5-2.2-2.2-2.2-2.2S42.8,13,40.9,13c-1.9-0.1-8.5-0.8-11.9,4.8
			s-5.5,7.3-6.8,16.1s-0.8,10.6-0.8,10.6l1.8,0.8c0,0,1-3.5,1.3-4C24.8,40.8,27.5,40.6,27.5,41.8z"/>
		<g>
			<g>
				<path class="st24" d="M17.1,123.5c1-0.8,2.7,2.7,3.9,3.6c1.3,0.9,2.2,2.7,2,4.8c-0.2,2.2-0.4,7.3,0,9.5c0.5,2.2,1.1,5.9,0,10.2
					S21.3,165,21.9,167s0.5,3.1-0.3,4.7c-0.8,1.6-0.2,6.4-0.3,7.5c-0.2,1.1-0.9,4.5-0.9,4.5s-1.3,2.1-2,3.5s-1.9,4.5-2.2,6.8
					c-0.3,2.3-0.6,5.7-0.6,5.7s-1.7,0.6-2.6,0.7c-0.9,0.1,0.9-8.2,1.5-10c0.6-1.9,3.8-6.9,3.7-9.4c-0.1-2.5,1.8-7.5,0.7-7.5
					s-2-0.5-4.1,0s-3.8,1.1-3.8,1.1s2.8-2.2,4.5-2.5c1.7-0.3,5.6-0.9,4.7-1.4s-1.4-0.2-3.9-0.2s-3.6,0.8-3.6,0.8s1.9-2.2,3.8-2.5
					s3.5-0.2,3.6-0.9c0.1-0.6-3.2-2.7-2.7-3.2s2.1-2.7,2.1-3.5s-1.6-2.7-1.4-2.9c0.2-0.2,2.1-1.5,2.4-2.9c0.3-1.4,0.5-13.1-0.2-14.5
					c-0.7-1.5-1.9-10.6-3.5-11.7C15.1,127.9,16,124.4,17.1,123.5z"/>
				<path class="st24" d="M23.6,166.4c1.2,0.2,2.7,0.6,3.9,0.3c1.2-0.3,3.6,0,3.9,0.1c0.3,0.1,1.1,0.7-1.2,1s-5.9,0.4-6.2,0
					C23.8,167.4,23.6,166.4,23.6,166.4z"/>
				<path class="st24" d="M34.5,163.6c-1.7,0.9-3.2,1.8-3.5,1.9s0.3,0.9,1.8,0.9c1.4,0,3.4-0.9,3.4-0.9s-1.5-0.3-1.9-0.5
					C33.9,164.8,34.5,163.6,34.5,163.6z"/>
			</g>
			<path class="st24" d="M34.5,168c-1.7,0.1-4.1,0.4-4.4,0.4c-0.2,0.1,1.2,0.9,1.7,1s3.1-0.7,3.4-0.7C35.6,168.7,34.5,168,34.5,168z
				"/>
			<path class="st24" d="M36.1,171.2c0,0-3,1.6-3.8,2.3c-0.8,0.8-4.6,3.8-4.6,3.8s4.7-2.3,5.8-3.1s1.8-1.8,1.8-1.8L36.1,171.2z"/>
		</g>
		<path class="st28" d="M12.6,69.6c0.3,1,0.3,2.5,1.1,3.8c0.8,1.3,2.3,7.9,3.6,9.7c1.2,1.8,4.5,5.6,5.9,7c1.5,1.4,6.7,3.3,6.7,3.3
			s-7.4-3.9-10.8-9.2c-3.4-5.3-2.4-7.6-2.6-7.9c-0.2-0.3-1.7-4-2.1-4.6C13.9,70.9,12.6,69.6,12.6,69.6z"/>
		<path class="st28" d="M20.6,80.9c0,0,2.8,4.4,5.3,6s6.9,3.3,7.5,3.6c0.6,0.3,2.1,0,2.1,0l-0.8-3.5c0,0-0.4,1.7-2.2,1.4
			c-1.8-0.3-5.1-1.1-7.7-3.6C22.3,82.3,20.6,80.9,20.6,80.9z"/>
		<path class="st28" d="M13.5,89.3c0,0,0.9,2.4,1.4,3.3c0.5,0.9,2.4,2.9,2.4,2.9S13,95.4,13,94.4c-0.1-1-0.2-2.9-0.2-2.9L13.5,89.3z
			"/>
	</g>
	<g>
		<path class="st29" d="M50.9,56.7c0,0-0.7,0.1-0.7,1c0.1,0.9,0.6,9.5,0.7,10.5c0.1,1.1,1.4,1.1,1.4,1.1l19.1-0.8
			c0,0,1.7,0.1,1.6-1.1c-0.1-1.3-0.6-10.6-0.6-10.6s-0.3-0.4-1.6-0.4C69.4,56.5,50.9,56.7,50.9,56.7z"/>
		<g>
			<path class="st30" d="M78.1,40.9c0.4,0.6,0.7,1.1,0.9,1.8c0.2,0.6,0.4,1.3,0.3,2c0,0.7-0.2,1.3-0.2,1.9c0,0.6,0,1.3,0.1,1.9
				c0,0.3,0.1,0.7,0.1,1c0,0.3,0,0.7,0,1c0,0.6,0,1.2,0,1.9c0,1.3-0.1,2.6-0.4,3.9l-0.1,0c-0.4-1.3-0.6-2.6-0.6-3.9
				c0-0.7,0-1.3,0.1-2l0.3-1.9c0.1-0.6,0.2-1.3,0.1-1.9c-0.1-0.6-0.2-1.3-0.3-1.9C78.4,43.4,78,42.2,78.1,40.9L78.1,40.9z"/>
		</g>
		<polygon class="st3" points="51.2,57.6 51.8,68.5 72.2,67.6 71.6,57.3 		"/>
		<path class="st31" d="M79.4,42.5c0,0.5,0.1,1.5,0.4,2c0.3,0.5,0.3,2.6,0.4,3.1s1.3,2.7,1.3,2.7l2.1-6L79.4,42.5z"/>
		<g>
			<path class="st32" d="M64.5,71.4c0,0-1,1.2-1.5,1.8c-0.5,0.6-1,2.1-1.6,2.4c-0.6,0.4-1.2,1.9-1.1,2.3s0,1,0,1l-3.4-0.2l-0.8,0.7
				c0,0-0.4,0-0.9-0.9s-0.7-2.6-0.2-3.5c0.5-0.9,1.1-3.4,1.1-3.8c0.1-0.5-0.1-2-0.1-2h4.2c0,0,1.6-0.2,2-0.4c0.4-0.2,1.7-1.5,2-1.6
				c0.4-0.1,1-0.1,0.9,0.3s-0.2,1.2-0.5,1.5c-0.3,0.4-0.4,0.8-0.4,0.8L64.5,71.4z"/>
			<path class="st31" d="M68.3,68.7c-0.1,0.3-0.3,0.6-0.6,0.8c-0.4,0.3-2,1.6-2.8,1.7c0,0-2.2,1.3-2.6,1.6s-1.1,0.5-1.6,1.3
				c-0.4,0.7-1.4,1.6-1.8,1.8c-0.5,0.2-2.3,0-2.3,0s2.3,0.2,2.7-0.8c0.5-0.9,0.9-2.2,0.8-2.6s0.3-1.3,1-1.5c0.7-0.2,1.4,0.1,1.9-0.3
				c0.6-0.4,1.2-0.9,1.2-0.9s1.4-0.5,1.7-0.8c0.1-0.1,0.1-0.1,0.3-0.2L68.3,68.7z"/>
			<path class="st33" d="M64.2,67.1c-0.3,0.3-1,1.1-0.8,1.3c0.2,0.2,0.5,0.5,0.8,0.3c0.3-0.2,0.6-0.6,0.9-1.3
				C65.4,67,64.5,66.9,64.2,67.1z"/>
			<path class="st32" d="M71.4,57.8c0,0.5-0.1,2.1,0.4,2.5c0.4,0.5,0.8,0.8,0.8,0.8l0.4,6.3l5,4.5l4-4c0,0-3.7-3.2-4-4
				c-0.3-0.8-0.3-2.1-0.5-2.5c-0.3-0.4-3.8-1.8-4.1-2.7c-0.3-0.9-0.5-2-0.8-2.2C72.3,56.4,71.5,57.1,71.4,57.8z"/>
			<path class="st33" d="M72.6,56.5c0,0-0.4,0.5-0.3,0.8c0.1,0.3,0.4,0.8,0.6,0.8c0.2,0,0.3,0,0.3,0S73,57,72.6,56.5z"/>
			<path class="st31" d="M72.6,61.2c0,0,1,1.1,1.3,1.4c0.2,0.4-0.1,1.2,0,1.7c0.1,0.6-1-0.1-1-0.1L72.6,61.2z"/>
		</g>
		<g>
			<path class="st32" d="M77.1,212.1c0.1,0.3,0.2,1.4,0,1.5c-0.2,0.1-2,0.4-2.3,0.7s-0.7,0.7-1.3,0.7s-4.2,0.8-4.2,0.8l-0.9,2.4
				l6.2,3.1l6.7-0.5l3-2.3v-8L77.1,212.1z"/>
			<path class="st32" d="M107.9,207.9c0,0,0.1,2.3,0,2.6s-0.2,1.4-0.2,1.9s0.1,2.2,0.1,2.2s-0.6,0.4-0.7,0.5
				c-0.1,0.2-0.5,2.1-0.5,2.1l4.3,5.6l4.4-0.9l1.1-3.3l-0.8-2.7c0,0,0.1-1.7,0-2s-0.7-1.2-0.8-1.8s-0.2-1.8-0.2-2.5
				c0-0.7-0.1-3.5-0.1-3.5L107.9,207.9z"/>
			<g>
				<path class="st31" d="M78.7,213.2c0,0.4-0.4,1.6,0,2.3s2.3,1.7,2.9,1.6c0.7-0.2,1.1-0.7,1.1-0.7s-2.9-0.9-2.9-1.4
					S78.7,213.2,78.7,213.2z"/>
				<path class="st31" d="M107.9,210.5c0,0-0.3,1-0.2,1.9c0,0.9,0.1,2.2,0.1,2.2s1,1.3,1.7,1.8s0.6,0.5,0.6,0.5s0.4-2.2,0-3
					C109.7,213.1,107.9,210.5,107.9,210.5z"/>
				<path class="st31" d="M115.7,214c0.2,0.7,0,2,0,2l-0.5,0.7c0,0-1.2-1.7-1.1-2.4s0.9-2.1,0.9-2.1L115.7,214z"/>
			</g>
			<path class="st34" d="M115.7,215.9c0,0,1.1,1,1.1,1.6c0.1,0.6,0.2,2.7,0.3,3.1c0.2,0.4,0.9,1.7,0.7,2.7c-0.2,0.9-0.5,3.1-3.3,3.1
				s-3.9-2.1-4.5-3.2c-0.6-1.1-1.4-2.6-1.9-2.9s-2.1-1.9-2.2-2.3c-0.1-0.5-0.2-2.4,0.4-3.2s1.6-0.3,1.6-0.3s-0.8,0.6-0.7,1.3
				s0.9,1.5,1,2.1c0,0.6,0.2,0.7,0.8,1c0.6,0.2,1.9,0.4,3.2,0.4c1.4-0.1,1.3-0.5,1.8-0.6c0.5-0.1,1.1,0,1.4,0.1
				c0.3,0.1,0.5-0.2,0.5-0.7S115.7,215.9,115.7,215.9z"/>
			<path class="st34" d="M72.4,215.2c0,0-2.1,0.3-2.8,0c-0.8-0.3-2.2,0-2.7,0.7s-1,1.5-0.7,2.6c0.3,1.1,1.3,3.2,4.1,3.8
				c2.9,0.6,4,1.3,4.5,1.6c0.5,0.3,4.5,2.5,6.5,2.7c2,0.2,3.4-0.4,3.7-1.1s0.9-2.5,0.4-4.1c-0.4-1.7-1.1-2.9-1.1-2.9
				s-3.3,0.6-5.4,0.7s-8.5,0.2-9.6-0.4c-1.1-0.5-0.5-1.4-0.1-1.9C70.1,216.3,72.4,215.2,72.4,215.2z"/>
		</g>
		<g>
			<g>
				<path class="st34" d="M72.6,102.8c0,0,0.1,0.2-0.8,1.3c-0.8,1.1-1.5,2-1.8,3.7c-0.3,1.7-1.6,7.3-1.3,10.2s-0.4,8.3,0,11.3
					c0.4,2.9,1.6,22.8,1.9,25.2c0.3,2.4,2.3,13.4,2,16c-0.4,2.5-0.2,11.5,0.5,14.5s1.5,13.3,1.4,14.8c-0.1,1.5,0.6,5.3,0.6,7.1
					s0,4.9,0,4.9s3,1.2,5.8,1.1c2.8-0.1,5.2-1.1,5.2-1.1s0-5.6,0-7.5s1.2-10.7,1.7-12.5c0.6-1.8,0.1-9.1,0.4-10c0.3-0.9-0.1-2.3,0-3
					s-0.3-5.2,0.1-6.7s0.8-4.8,0.8-6.7s-1.2-7.5-0.9-8.4s0.9-4.6,0.9-4.6s2.6,8.3,3.5,11.2s4.5,17.5,5.3,19.5
					c0.8,2.1,2.8,9.3,2.9,10.8c0.1,1.6,1.6,9.6,1.7,10.2c0.1,0.6,0.7,4.9,0.7,4.9s3.4-0.5,5.5-0.3c2.1,0.2,7.1-1.4,7.1-1.4
					s-1.9-14.5-2.1-17.6c-0.2-3.1-1.5-11.9-2.4-13.9c-0.9-2-1.7-4.9-1.9-7.1c-0.2-2.2-2.7-12.2-3.5-13.9c-0.8-1.8-1-6.9-1-7.9
					s-0.4-1.7-0.5-3.2s0.4-4.4,0.3-5.3c-0.1-0.9-1.4-1.5-0.9-2.5s0.7-2.1,0.6-2.9s0-1.4,0.2-2.1c0.2-0.7,0.4-1.7,0-2.5
					c-0.4-0.8-1.4-1.9-1.3-2.5s0.1-2,0-3.3c-0.1-1.4,0.1-6-0.6-7.7c-0.7-1.7-3.4-8.8-3.4-8.8l-22.9-5.9L72.6,102.8z"/>
				<path class="st35" d="M89.1,152.4c0,0-1.3-8,0.3-10.8c1.6-2.8,3.3-12.8,2.8-15.8s0-5.2,0-5.2s4.5,7.2,4.4,12.2
					c0,5-1.1,26.1,1.1,32.2c2.2,6.1,5.8,11.4,6.9,16.9c1.1,5.5,2.5,26.9,2.5,26.9l-3.9,0.4c0,0-1.3-7.6-1.9-11.4
					c-0.5-3.8-1.6-12.1-4.4-17.6c-1.8-3.7-5.5-19.9-5.5-19.9L89.1,152.4z"/>
			</g>
			<g>
				<path class="st36" d="M87.7,64.4c-2.2,1.3-4.5,2.1-6.1,2.6c-1.6,0.5-6.1,6.7-6.4,7.2c-0.3,0.5-4.1,6-3.8,6.8
					c0.3,0.8,1.2,2.2,0,2.9c-1.2,0.6-3.6,2.1-3.6,2.1s-2.7-3-3.3-3.3c-0.6-0.3-3.7-4.2-3.7-4.2s-4.3-1.1-4.9,0c-0.6,1.1-1.6,5-1.6,5
					s-0.4,2.1,0.7,2.5c1.1,0.5,4.9,4.1,5,4.9c0.2,0.9,1.7,0.7,2.3,1.6s2.8,4.2,3.8,4.9s4.7,1.1,4.7,1.1l1.5-1.1c0,0-2.3,1.7-1.5,3
					c0.7,1.3,1.2,4.5,3.1,4.2c1.9-0.3,4.7-1.9,4.7-1.9s2.3,1.8,4.2,1.9c1.9,0.1,2.3-0.1,3.3,0.8c0.9,0.9,3.9,1.5,5.6,1.7
					c1.7,0.2,2.5,0.2,5.2,0.6c2.7,0.5,5.3,0.2,5.5-1.4c0.2-1.6,0.8-6.4,1.3-6.9c0.5-0.5,7.3-11.3,7.8-13.2c0.5-2,3.4-12.6,3-16.5
					c-0.5-3.9-0.5-8-3-8.9c-2.5-0.9-10.8,0.7-14.2,3.7C94,67.4,87.7,64.4,87.7,64.4z"/>
				<path class="st37" d="M66.3,97.3c0.9,0.6,4.7,1.1,4.7,1.1l1.5-1.1c0,0-2.3,1.7-1.5,3c0.7,1.3,1.2,4.5,3.1,4.2
					c1.9-0.3,4.7-1.9,4.7-1.9s2.3,1.8,4.2,1.9c1.9,0.1,2.3-0.1,3.3,0.8c0,0,2.2,0.6,4.5-0.5c2.3-1.1,15.1-12.4,16.7-15.3
					c1.6-2.9,5.6-21.4,2.9-23.1c-2.7-1.7-9.9,3-13.3,2.1s-8.7-0.5-10-0.7c-1.3-0.2-8.1,9-10.6,12.8S69,94,67.8,94.4
					c-1.2,0.3-2.9-1.1-2.9-1.1L66.3,97.3z"/>
				<g>
					<path class="st38" d="M57.3,87.5c-0.4-0.6-0.6-1.3-0.5-2c0-0.3,0.2-0.7,0.2-1c0-0.3,0-0.7-0.1-1c0-0.2,0-0.4,0-0.6
						c0.1-0.3,0.3-0.5,0.4-0.6c0.3-0.3,0.5-0.5,0.8-0.6c0.6-0.3,1.3-0.5,2-0.5l0,0.1c-0.4,0.6-1,1-1.5,1.3c-0.3,0.2-0.6,0.3-0.8,0.5
						c-0.1,0.1-0.2,0.1-0.2,0.1c-0.1,0.1-0.1,0.2-0.2,0.4c-0.1,0.3-0.2,0.6-0.1,1c0,0.3,0.2,0.6,0.3,1
						C57.7,86.1,57.7,86.8,57.3,87.5L57.3,87.5z"/>
				</g>
				<path class="st37" d="M67.9,85.9c0,0-2.7-3-3.3-3.3c-0.6-0.3-3.7-4.2-3.7-4.2s-4.3-1.1-4.9,0c-0.6,1.1-1.6,5-1.6,5
					s2.7-3.1,3.7-3.1c0.9,0,4.3,1.7,4.2,2.8c-0.1,1.1-0.3,2.3,0,3.5c0.3,1.2,1.1,1.8,1.1,1.8l1.7-2.3L67.9,85.9z"/>
				<g>
					<path class="st38" d="M86,81.4c-0.5,0.7-1.7,2.9-2.6,4.2c-0.9,1.3-2.3,4.5-3,4.7c-0.6,0.2-2.3,0.7-3.3,1.1
						c-0.9,0.4-1.9,2-2,2.6c-0.2,0.6-0.5,2-1.1,2.2s-1.5,1-1.5,1v1.3l0.8-1.1c0,0,1.5-1.7,2.3-1.9c0.8-0.2,1.8-0.5,1.8-1.3
						c0-0.8,0.5-1.5,1.4-2c0.9-0.5,2.3-1.6,3.2-2.8c0.9-1.3,0.9-2.3,1.6-2.9c0.7-0.6,1.6-2.5,2.4-2.9s1.4-2.8,1.2-3.3
						S86,81.4,86,81.4z"/>
					<path class="st38" d="M67.9,85.9c-1.1-0.3-2.5-0.4-3-0.2c-0.5,0.3-2,3.7-1.8,4.6c0.1,0.4,0.4,0.9,0.8,1.4
						c0.4,0.6,0.9,1.3,1,1.6c0.2,0.6,1.4,4,1.4,4l0.8,0.3c0,0-0.6-1.1-0.8-1.6c-0.2-0.5-1.5-3.4-1.8-3.7c-0.2-0.3-1.4-1.9-1-3.1
						s0.8-2.9,1.6-3c0.8-0.1,2-0.1,2.4,0C67.9,86.2,67.9,85.9,67.9,85.9z"/>
					<path class="st38" d="M78,98.5c0,0,2,1.6,3,2.1s4.1,0.9,3.8,1.4c-0.3,0.5-1.7,1-2.6,0.7C81.4,102.3,78.5,99.1,78,98.5z"/>
					<path class="st38" d="M78.8,102.6c0,0-1.1-0.5-1.6-0.9s-1.1,0-0.4,0.5s1.6,0.7,1.6,0.7L78.8,102.6z"/>
					<path class="st38" d="M90.8,103.2c-0.7,0-2,0.1-3,0.2c-0.9,0.2-3,0.9-3,0.9s1.4,0.6,1.9,0.4s2.5-0.5,2.8-0.8
						S90.8,103.2,90.8,103.2z"/>
					<path class="st38" d="M94.2,92.1c0,0-5.9,2.7-7.4,3.7c-1.5,1-2.5,2.1-1.9,1.9s3.9-2,4.9-2.6c1-0.6,3.5-1.6,3.9-2
						S94.2,92.1,94.2,92.1z"/>
					<path class="st38" d="M104.6,87.6c0,0-10.4,8.4-11.7,8.8c-1.4,0.4-4.9,1.6-4.3,2.1c0.6,0.4,2.8,1.1,3.8,0.8s4.7-1.4,5.3-2.1
						c0.6-0.7,2.4-1.5,3.3-3.3s4.2-5.9,4.4-6C105.7,87.7,105.6,86.9,104.6,87.6z"/>
				</g>
				<path class="st30" d="M87,78.4c-0.2,2.1-1.1,6.3-1.4,6.9c-0.3,0.6,0.3,1.8,0.4,2.9s0,1.2,0,1.2s0.6-0.3,0.7-0.9
					c0.1-0.6-0.4-2.1-0.1-2.8c0.4-0.7,1.1-1.9,1.1-1.9s0.5,1.1,0.4,1.8s-0.4,1.5-0.4,3.2c0,1.7,1.7,3.6,1.7,3.6s0.5-0.3,0.9-0.5
					s0.5-1.1,0.5-1.1s0.3,0.3,0.4,0.9c0.1,0.6,1.2,0.6,1.2,0.6s0-0.3-0.1-0.6s0-1.6,0.1-2.4c0.1-0.8,0.9-1.4,0.9-1.4s0.6,1,0.6,1.4
					s1,1.7,1,1.7s-0.2-0.5-0.2-1c0.1-0.5,0.6-0.9,0.6-0.9s-0.1,0.6,0.6,1.9c0.7,1.3,1.7,1,1.7,1s0.3-1.8,0.4-3.2
					c0.2-1.4,1-2.6,1-2.6s0.2,0.4,0.2,1.4s-0.7,4.6-0.7,4.6s0.5-0.1,1.7-1.1c1.2-0.9,2.9-3.7,2.9-3.7s0,0.3,0,0.6s-0.5,1.2-0.5,1.2
					s3.2-1.9,3.9-2.7c0.7-0.8,1.5-2.9,1.5-2.9s1.1,0.7,1.6,1.5c0.4,0.7,0.5,1.9,0.5,1.9s0.7-1.3,0.9-2.5c0.2-1.2,1.2-3.6,1.2-3.6
					l1.4,1.9c0,0-0.4,0-0.5-1.2c-0.1-1.2,2.1-7,2.1-8.1c0.1-1.1-1.3-8.4-1.3-8.4l1.3,3.2c0,0-0.4-2-0.4-2.8
					c-0.1-0.8-1.5-2.7-1.2-3.1c0.3-0.4,1.6,1.3,1.6,1.3s-1.6-2.4-2.7-3.1c-1.1-0.7-3.4-2.6-5-3.5c-1.6-0.9-2-5.1-2.7-7.8
					c-0.7-2.7-1.4-11.6-4.3-17.4s-8.8-5.5-10.4-5.4s-2.8,1-4,1.6c0,0-1.3,0.4-1.8,0.4c-0.4,0-4.7,3.6-5.3,5c-0.7,1.3-1.7,7.6-0.9,9
					c0.8,1.4,2.8,3,2.9,4.7c0.1,1.7-0.1,4.4,0.1,5.6c0.2,1.2,1.4,5.2,1.1,7.1c-0.2,1.9-0.7,4.8-0.2,7.2c0.6,2.4,0.5,4.1,0.9,5.7
					s0.9,2.2,0.5,4s-0.2,3.4,0.2,4.1c0.4,0.7,1.6,1.7,1.6,1.7s-1.5-2.5-1.4-3.9c0.1-1.4,0.7-3.4,0.7-4.2S83,68.2,83.4,67
					s0.6-1.2,0.6-1.2s-0.1,3,0.1,3.5c0.2,0.5,1.5,5,1.4,5.8c-0.1,0.9,0.2,3.1,0.2,3.1s0.3-2.2,0.6-2.7C86.2,75.7,87.1,77.1,87,78.4z
					"/>
			</g>
		</g>
	</g>
</g>
</svg>
