<?xml version="1.0" encoding="utf-8"?>
<!-- Generator: Adobe Illustrator 23.1.1, SVG Export Plug-In . SVG Version: 6.00 Build 0)  -->
<svg version="1.1" id="Layer_1" xmlns="http://www.w3.org/2000/svg" xmlns:xlink="http://www.w3.org/1999/xlink" x="0px" y="0px"
	 viewBox="0 0 62.3 96.9" style="enable-background:new 0 0 62.3 96.9;" xml:space="preserve">
<style type="text/css">
	.st0{fill:#E12826;}
	.st1{fill:#F26A69;}
</style>
<g>
	<path class="st0" d="M30,0c4,0,7.7,0.7,11.1,2c3.4,1.3,6.3,3.1,8.7,5.4c2.5,2.3,4.4,5.1,5.8,8.3c1.4,3.2,2.1,6.9,2.1,10.9
		c0,3.4-0.4,6.3-1.1,8.5c-0.8,2.2-1.8,4.1-3,5.7c-1.2,1.6-2.6,3-4.2,4.1c-1.6,1.1-3.2,2.3-4.9,3.5s-3.4,2.6-5,4.1
		c-1.7,1.5-3.2,3.4-4.7,5.7c-0.5,0.9-0.8,2.2-1,3.8c-0.1,0.8-0.1,1.7-0.1,2.6H16.3v-3.8c0-3.1,0.3-5.8,0.9-8.2
		c0.6-2.3,1.4-4.4,2.5-6.2s2.3-3.4,3.7-4.7c1.4-1.3,2.9-2.5,4.6-3.5c3.4-2.2,5.8-4,7-5.5c1.2-1.5,1.8-3,1.8-4.5
		c0-2.2-0.8-3.9-2.4-5.2c-1.6-1.3-3.5-2-5.7-2c-2.5,0-4.6,0.8-6.3,2.4c-1.7,1.6-2.5,3.5-2.5,5.7L0,24.3c0-4,0.8-7.6,2.3-10.6
		c1.6-3,3.7-5.5,6.4-7.5s5.9-3.5,9.5-4.6c3.6-1,7.5-1.6,11.6-1.6L30,0z M33.5,93.6H16.2V76.2h17.3V93.6z"/>
</g>
<g>
	<path class="st1" d="M34.6,3.2c4,0,7.7,0.7,11.1,2c3.4,1.3,6.3,3.1,8.7,5.4c2.5,2.3,4.4,5.1,5.8,8.3c1.4,3.2,2.1,6.9,2.1,10.9
		c0,3.4-0.4,6.3-1.1,8.5c-0.8,2.2-1.8,4.1-3,5.7c-1.2,1.6-2.6,3-4.2,4.1c-1.6,1.1-3.2,2.3-4.9,3.5s-3.4,2.6-5,4.1
		c-1.7,1.5-3.2,3.4-4.7,5.7c-0.5,0.9-0.8,2.2-1,3.8c-0.1,0.8-0.1,1.7-0.1,2.6H20.9V64c0-3.1,0.3-5.8,0.9-8.2
		c0.6-2.3,1.4-4.4,2.5-6.2s2.3-3.4,3.7-4.7c1.4-1.3,2.9-2.5,4.6-3.5c3.4-2.2,5.8-4,7-5.5s1.8-3,1.8-4.5c0-2.2-0.8-3.9-2.4-5.2
		c-1.6-1.3-3.5-2-5.7-2c-2.5,0-4.6,0.8-6.3,2.4c-1.7,1.6-2.5,3.5-2.5,5.7L4.6,27.5c0-4,0.8-7.6,2.3-10.6c1.6-3,3.7-5.5,6.4-7.5
		s5.9-3.5,9.5-4.6c3.6-1,7.5-1.6,11.6-1.6L34.6,3.2z M38.1,96.9H20.8V79.5h17.3V96.9z"/>
</g>
</svg>
