<?xml version="1.0" encoding="utf-8"?>
<!-- Generator: Adobe Illustrator 23.1.1, SVG Export Plug-In . SVG Version: 6.00 Build 0)  -->
<svg version="1.1" id="Layer_1" xmlns="http://www.w3.org/2000/svg" xmlns:xlink="http://www.w3.org/1999/xlink" x="0px" y="0px"
	 viewBox="0 0 63.8 96.3" style="enable-background:new 0 0 63.8 96.3;" xml:space="preserve">
<style type="text/css">
	.st0{fill:#E12826;}
	.st1{fill:#F26A69;}
</style>
<g>
	<path class="st0" d="M22,1.7c3.8-1.3,7.5-1.9,11.1-1.7c3.6,0.2,6.9,0.9,10,2.3c3.1,1.4,5.8,3.4,8.2,6c2.4,2.6,4.2,5.8,5.5,9.7
		c1.1,3.3,1.7,6.1,1.7,8.4c0,2.4-0.3,4.5-1,6.4c-0.6,1.9-1.5,3.6-2.7,5.2c-1.1,1.6-2.3,3.2-3.5,4.9c-1.2,1.7-2.4,3.5-3.5,5.5
		c-1.1,2-2,4.3-2.6,6.9c-0.2,1-0.1,2.3,0.3,3.9c0.2,0.8,0.4,1.7,0.7,2.5l-16.5,5.6l-1.2-3.6c-1-2.9-1.6-5.6-1.8-8
		c-0.2-2.4-0.1-4.6,0.3-6.7c0.4-2,1.1-3.9,2-5.6c0.9-1.7,2-3.3,3.2-4.8c2.6-3.2,4.2-5.7,4.8-7.5c0.7-1.8,0.8-3.5,0.3-4.9
		c-0.7-2.1-2-3.5-4-4.2c-2-0.7-4-0.7-6.1,0c-2.4,0.8-4.1,2.2-5.2,4.3c-1.1,2.1-1.3,4.1-0.6,6.2L1.4,34.4C0.1,30.6-0.3,27,0.2,23.7
		c0.5-3.4,1.7-6.4,3.7-9.2c1.9-2.8,4.4-5.3,7.5-7.4c3.1-2.2,6.6-3.9,10.5-5.2L22,1.7z M55.6,89.2l-16.3,5.6l-5.6-16.5L50,72.8
		L55.6,89.2z"/>
</g>
<g>
	<path class="st1" d="M27.4,3.3c3.8-1.3,7.5-1.9,11.1-1.7c3.6,0.2,6.9,0.9,10,2.3c3.1,1.4,5.8,3.4,8.2,6c2.4,2.6,4.2,5.8,5.5,9.7
		c1.1,3.3,1.7,6.1,1.7,8.4c0,2.4-0.3,4.5-1,6.4c-0.6,1.9-1.5,3.6-2.7,5.2c-1.1,1.6-2.3,3.2-3.5,4.9c-1.2,1.7-2.4,3.5-3.5,5.5
		c-1.1,2-2,4.3-2.6,6.9c-0.2,1-0.1,2.3,0.3,3.9c0.2,0.8,0.4,1.7,0.7,2.5l-16.5,5.6l-1.2-3.6c-1-2.9-1.6-5.6-1.8-8
		c-0.2-2.4-0.1-4.6,0.3-6.7c0.4-2,1.1-3.9,2-5.6c0.9-1.7,2-3.3,3.2-4.8c2.6-3.2,4.2-5.7,4.8-7.5c0.7-1.8,0.8-3.5,0.3-4.9
		c-0.7-2.1-2-3.5-4-4.2c-2-0.7-4-0.7-6.1,0c-2.4,0.8-4.1,2.2-5.2,4.3c-1.1,2.1-1.3,4.1-0.6,6.2L6.8,36c-1.3-3.8-1.7-7.4-1.2-10.8
		c0.5-3.4,1.7-6.4,3.7-9.2c1.9-2.8,4.4-5.3,7.5-7.4c3.1-2.2,6.6-3.9,10.5-5.2L27.4,3.3z M61,90.8l-16.3,5.6L39,79.9l16.3-5.6
		L61,90.8z"/>
</g>
</svg>
