<?xml version="1.0" encoding="utf-8"?>
<!-- Generator: Adobe Illustrator 23.1.1, SVG Export Plug-In . SVG Version: 6.00 Build 0)  -->
<svg version="1.1" id="Layer_1" xmlns="http://www.w3.org/2000/svg" xmlns:xlink="http://www.w3.org/1999/xlink" x="0px" y="0px"
	 viewBox="0 0 45.3 44.5" style="enable-background:new 0 0 45.3 44.5;" xml:space="preserve">
<style type="text/css">
	.st0{fill:#424242;}
	.st1{fill:#908D87;}
	.st2{fill:#808383;}
	.st3{fill:#231F20;}
	.st4{fill:#636F6D;}
	.st5{fill:#B8BEBD;}
	.st6{fill:#151515;}
	.st7{fill:#AE3025;}
	.st8{fill:#6C1F1A;}
	.st9{fill:#DD655F;}
	.st10{fill:#768080;}
</style>
<g>
	<ellipse class="st0" cx="37.3" cy="33.5" rx="6.5" ry="6.5"/>
	<ellipse class="st1" cx="36.5" cy="34.4" rx="6.5" ry="6.5"/>
	<ellipse class="st0" cx="36.5" cy="34.7" rx="4.9" ry="4.9"/>
	<ellipse class="st2" cx="36.1" cy="35.1" rx="4.9" ry="4.9"/>
	<line class="st3" x1="30.4" y1="27.8" x2="30.4" y2="42.1"/>
	<path class="st0" d="M30.4,44c-1,0-1.9-0.8-1.9-1.9V27.8c0-1,0.8-1.9,1.9-1.9c1,0,1.9,0.8,1.9,1.9v14.3C32.3,43.2,31.5,44,30.4,44z
		"/>
	<path class="st1" d="M39.1,33.1l-3.1,1.2c0,0-2.2,0-2.8-0.8l-0.7-1.7C32.6,31.8,35.7,31,39.1,33.1z"/>
	<path class="st4" d="M39.1,38.5l-3.1,1.2c0,0-2.2,0-2.8-0.8l-0.7-1.7C32.5,37.1,35.7,36.4,39.1,38.5z"/>
	<path class="st5" d="M36.1,34.2v5.4c0,0-2.2-0.1-2.9-0.8v-5.4C33.2,33.5,34.1,34.2,36.1,34.2z"/>
	<polygon class="st5" points="39.1,33.1 36.1,34.2 36.1,39.6 39.1,38.4 	"/>
	<polygon class="st5" points="32.6,31.8 33.2,33.5 33.2,38.3 32.5,35.3 	"/>
	<path class="st1" d="M36.7,35.9v1.9l-5,3.3c0,0-2.2,0.9-3.1-0.4V39c0,0,0.9,1.1,3.1,0.3c0,0,0.6-0.3,0.6-0.6l0-3.3l0.8-0.4
		c0,0,0.4,0.7,1.1,0.9c0.7,0.2,1.7,0.1,1.7,0.1L36.7,35.9z"/>
	<path class="st3" d="M36.9,33.5c-0.5,0-0.8-0.2-0.9-0.4c-0.3-0.4-0.4-1-0.1-1.7c0.1-0.4,0.5-0.6,0.9-0.4c0.4,0.1,0.6,0.5,0.4,0.9
		c0,0.1,0,0.1,0,0.2c1.2-0.4,4.3-3,5.6-6.8c1.9-5.5,1.4-15.5-1.1-20.6c-0.5-1.1-1.2-1.7-1.9-1.8c-1.5-0.2-3.4,1.7-4,2.5
		c-0.2,0.3-0.7,0.4-1,0.1c-0.3-0.2-0.4-0.7-0.1-1c0.1-0.1,2.6-3.3,5.3-3c1.3,0.1,2.3,1,3,2.6c2.6,5.4,3.1,15.9,1.1,21.7
		c-1.5,4.2-5,7.5-6.8,7.8C37.1,33.5,37,33.5,36.9,33.5z"/>
	<g>
		<path class="st5" d="M4.7,32.7c0.1-0.2,0.2-0.4,0.4-0.6l0.6-0.9L26.1,2.5L27,1.3c2.1-2,6.4-1.6,10.2,0.9c3.9,2.7,5.8,6.8,4.4,9.5
			L41,12.6L20.3,41.8l-0.5,0.7c-0.3,0.4-0.6,0.8-0.9,1.1c-2.2,1.5-6.1,1.1-9.6-1.4C5.5,39.5,3.7,35.5,4.7,32.7z"/>
		<g>
			<path d="M9.4,41.7C5.8,39.2,4,35.5,5.1,33L6,31.8c2-1.9,6-1.5,9.6,0.9c3.7,2.5,5.5,6.4,4.2,8.9l-0.6,0.9
				C17.2,44.4,13,44.1,9.4,41.7z"/>
			<path class="st0" d="M9.9,40.7c-2.9-1.9-4.3-4.9-3.4-6.9l0.7-0.9c1.6-1.5,4.8-1.2,7.6,0.7c2.9,2,4.3,5.1,3.3,7.1l-0.5,0.7
				C16.1,42.9,12.8,42.7,9.9,40.7z"/>
			<path d="M10.5,39.8c-1.9-1.3-2.8-3.2-2.2-4.6l0.4-0.6c1-1,3.2-0.8,5,0.5c1.9,1.3,2.9,3.3,2.2,4.7l-0.3,0.5
				C14.6,41.2,12.4,41.1,10.5,39.8z"/>
			<path d="M10,40.3c-1.9-1.3-2.8-3.2-2.2-4.6l0.4-0.6c1-1,3.2-0.8,5,0.5c1.9,1.3,2.9,3.3,2.2,4.7l-0.3,0.5
				C14.1,41.7,11.9,41.6,10,40.3z"/>
			<path class="st6" d="M10.3,40c-1.7-1.1-2.5-2.9-2-4l0.4-0.5c0.9-0.9,2.8-0.7,4.4,0.4c1.7,1.2,2.5,3,1.9,4.1l-0.3,0.4
				C13.9,41.3,12,41.1,10.3,40z"/>
			<ellipse transform="matrix(0.702 -0.7122 0.7122 0.702 -21.3419 23.0459)" class="st7" cx="16.9" cy="37" rx="0.4" ry="0.6"/>
			<polygon class="st7" points="16.5,36.6 16.2,36.9 17,37.7 17.3,37.3 			"/>
			<g>
				<ellipse transform="matrix(0.702 -0.7122 0.7122 0.702 -21.609 22.9456)" class="st7" cx="16.6" cy="37.3" rx="0.4" ry="0.6"/>
				<path class="st8" d="M16.7,37.7C16.7,37.7,16.8,37.6,16.7,37.7c0.2-0.2,0.2-0.4,0-0.6C16.6,37,16.5,37,16.4,37
					c0.1-0.1,0.3,0,0.4,0.1c0.2,0.2,0.2,0.4,0.1,0.5C16.9,37.7,16.8,37.7,16.7,37.7z"/>
				<ellipse transform="matrix(0.702 -0.7122 0.7122 0.702 -21.5574 22.7511)" class="st9" cx="16.4" cy="37.1" rx="0.1" ry="0.1"/>
			</g>
			<ellipse transform="matrix(0.702 -0.7122 0.7122 0.702 -20.6416 22.2316)" class="st7" cx="16.2" cy="35.8" rx="0.4" ry="0.6"/>
			<polygon class="st7" points="15.9,35.4 15.5,35.7 16.4,36.4 16.7,36.1 			"/>
			<g>
				<ellipse transform="matrix(0.702 -0.7122 0.7122 0.702 -20.9086 22.1312)" class="st7" cx="16" cy="36.1" rx="0.4" ry="0.6"/>
				<path class="st8" d="M16.1,36.4C16.1,36.4,16.2,36.4,16.1,36.4c0.2-0.2,0.2-0.4,0-0.6c-0.1-0.1-0.2-0.1-0.3-0.1
					c0.1-0.1,0.3,0,0.4,0.1c0.2,0.2,0.2,0.4,0.1,0.5C16.3,36.4,16.2,36.4,16.1,36.4z"/>
				<ellipse transform="matrix(0.702 -0.7122 0.7122 0.702 -20.857 21.9367)" class="st9" cx="15.8" cy="35.9" rx="0.1" ry="0.1"/>
			</g>
			<ellipse transform="matrix(0.702 -0.7122 0.7122 0.702 -20.1239 21.1963)" class="st7" cx="15.3" cy="34.6" rx="0.4" ry="0.6"/>
			<polygon class="st7" points="14.9,34.2 14.6,34.6 15.4,35.3 15.7,35 			"/>
			<g>
				<ellipse transform="matrix(0.702 -0.7122 0.7122 0.702 -20.391 21.0959)" class="st7" cx="15" cy="34.9" rx="0.4" ry="0.6"/>
				<path class="st8" d="M15.1,35.3C15.1,35.3,15.2,35.3,15.1,35.3c0.2-0.2,0.2-0.4,0-0.6c-0.1-0.1-0.2-0.1-0.3-0.1
					c0.1-0.1,0.3,0,0.4,0.1c0.2,0.2,0.2,0.4,0.1,0.5C15.3,35.3,15.2,35.3,15.1,35.3z"/>
				<ellipse transform="matrix(0.702 -0.7122 0.7122 0.702 -20.3394 20.9014)" class="st9" cx="14.8" cy="34.8" rx="0.1" ry="0.1"/>
			</g>
			<ellipse transform="matrix(0.702 -0.7122 0.7122 0.702 -19.9187 20.1)" class="st7" cx="14.1" cy="33.9" rx="0.4" ry="0.6"/>
			<polygon class="st7" points="13.7,33.4 13.4,33.8 14.2,34.5 14.5,34.2 			"/>
			<g>
				<ellipse transform="matrix(0.702 -0.7122 0.7122 0.702 -20.1857 19.9996)" class="st7" cx="13.8" cy="34.1" rx="0.4" ry="0.6"/>
				<path class="st8" d="M13.9,34.5C13.9,34.5,14,34.5,13.9,34.5c0.2-0.2,0.2-0.4,0-0.6c-0.1-0.1-0.2-0.1-0.3-0.1
					c0.1-0.1,0.3,0,0.4,0.1c0.2,0.2,0.2,0.4,0.1,0.5C14.1,34.5,14,34.5,13.9,34.5z"/>
				<ellipse transform="matrix(0.702 -0.7122 0.7122 0.702 -20.1341 19.8051)" class="st9" cx="13.6" cy="34" rx="0.1" ry="0.1"/>
			</g>
			<ellipse transform="matrix(0.702 -0.7122 0.7122 0.702 -19.8282 18.9363)" class="st7" cx="12.7" cy="33.2" rx="0.4" ry="0.6"/>
			<polygon class="st7" points="12.3,32.7 12,33.1 12.9,33.8 13.2,33.5 			"/>
			<g>
				<ellipse transform="matrix(0.702 -0.7122 0.7122 0.702 -20.0953 18.8359)" class="st7" cx="12.5" cy="33.4" rx="0.4" ry="0.6"/>
				<path class="st8" d="M12.6,33.8C12.6,33.8,12.6,33.8,12.6,33.8c0.2-0.2,0.2-0.4,0-0.6c-0.1-0.1-0.2-0.1-0.3-0.1
					c0.1-0.1,0.3,0,0.4,0.1c0.2,0.2,0.2,0.4,0.1,0.5C12.7,33.8,12.7,33.8,12.6,33.8z"/>
				<ellipse transform="matrix(0.702 -0.7122 0.7122 0.702 -20.0437 18.6414)" class="st9" cx="12.3" cy="33.3" rx="0.1" ry="0.1"/>
			</g>
			<ellipse transform="matrix(0.702 -0.7122 0.7122 0.702 -19.9734 17.7227)" class="st7" cx="11.2" cy="32.7" rx="0.4" ry="0.6"/>
			<polygon class="st7" points="10.8,32.3 10.5,32.7 11.3,33.4 11.7,33 			"/>
			<g>
				<ellipse transform="matrix(0.702 -0.7122 0.7122 0.702 -20.2404 17.6223)" class="st7" cx="10.9" cy="33" rx="0.4" ry="0.6"/>
				<path class="st8" d="M11,33.4C11.1,33.4,11.1,33.3,11,33.4c0.2-0.2,0.2-0.4,0-0.6c-0.1-0.1-0.2-0.1-0.3-0.1
					c0.1-0.1,0.3,0,0.4,0.1c0.2,0.2,0.2,0.4,0.1,0.5C11.2,33.4,11.1,33.4,11,33.4z"/>
				<ellipse transform="matrix(0.702 -0.7122 0.7122 0.702 -20.1888 17.4278)" class="st9" cx="10.7" cy="32.8" rx="0.1" ry="0.1"/>
			</g>
			<ellipse transform="matrix(0.702 -0.7122 0.7122 0.702 -20.3315 16.6641)" class="st7" cx="9.7" cy="32.6" rx="0.4" ry="0.6"/>
			<polygon class="st7" points="9.4,32.2 9,32.5 9.9,33.3 10.2,32.9 			"/>
			<g>
				<ellipse transform="matrix(0.702 -0.7122 0.7122 0.702 -20.5985 16.5638)" class="st7" cx="9.5" cy="32.9" rx="0.4" ry="0.6"/>
				<path class="st8" d="M9.6,33.3C9.6,33.3,9.7,33.2,9.6,33.3c0.2-0.2,0.2-0.4,0-0.6c-0.1-0.1-0.2-0.1-0.3-0.1
					c0.1-0.1,0.3,0,0.4,0.1c0.2,0.2,0.2,0.4,0.1,0.5C9.8,33.3,9.7,33.3,9.6,33.3z"/>
				<ellipse transform="matrix(0.702 -0.7122 0.7122 0.702 -20.5469 16.3692)" class="st9" cx="9.3" cy="32.7" rx="0.1" ry="0.1"/>
			</g>
			<ellipse transform="matrix(0.702 -0.7122 0.7122 0.702 -20.8384 16.039)" class="st7" cx="8.7" cy="32.9" rx="0.4" ry="0.6"/>
			<polygon class="st7" points="8.4,32.5 8,32.8 8.9,33.6 9.2,33.2 			"/>
			<g>
				<ellipse transform="matrix(0.702 -0.7122 0.7122 0.702 -21.1055 15.9387)" class="st7" cx="8.5" cy="33.2" rx="0.4" ry="0.6"/>
				<path class="st8" d="M8.6,33.6C8.6,33.5,8.7,33.5,8.6,33.6c0.2-0.2,0.2-0.4,0-0.6c-0.1-0.1-0.2-0.1-0.3-0.1
					c0.1-0.1,0.3,0,0.4,0.1c0.2,0.2,0.2,0.4,0.1,0.5C8.8,33.6,8.7,33.6,8.6,33.6z"/>
				<ellipse transform="matrix(0.702 -0.7122 0.7122 0.702 -21.0539 15.7442)" class="st9" cx="8.3" cy="33" rx="0.1" ry="0.1"/>
			</g>
			<ellipse transform="matrix(0.702 -0.7122 0.7122 0.702 -21.4579 15.4899)" class="st7" cx="7.8" cy="33.4" rx="0.4" ry="0.6"/>
			<polygon class="st7" points="7.4,33 7.1,33.3 7.9,34.1 8.2,33.7 			"/>
			<g>
				<ellipse transform="matrix(0.702 -0.7122 0.7122 0.702 -21.725 15.3896)" class="st7" cx="7.5" cy="33.7" rx="0.4" ry="0.6"/>
				<path class="st8" d="M7.6,34C7.7,34,7.7,34,7.6,34c0.2-0.2,0.2-0.4,0-0.6c-0.1-0.1-0.2-0.1-0.3-0.1c0.1-0.1,0.3,0,0.4,0.1
					C7.9,33.6,8,33.8,7.9,34C7.8,34,7.7,34,7.6,34z"/>
				<ellipse transform="matrix(0.702 -0.7122 0.7122 0.702 -21.6734 15.195)" class="st9" cx="7.3" cy="33.5" rx="0.1" ry="0.1"/>
			</g>
			<ellipse transform="matrix(0.702 -0.7122 0.7122 0.702 -22.2366 15.3538)" class="st7" cx="7.2" cy="34.2" rx="0.4" ry="0.6"/>
			<polygon class="st7" points="6.9,33.8 6.5,34.2 7.4,34.9 7.7,34.6 			"/>
			<g>
				<ellipse transform="matrix(0.702 -0.7122 0.7122 0.702 -22.5036 15.2535)" class="st7" cx="7" cy="34.5" rx="0.4" ry="0.6"/>
				<path class="st8" d="M7.1,34.9C7.1,34.9,7.1,34.9,7.1,34.9c0.2-0.2,0.2-0.4,0-0.6c-0.1-0.1-0.2-0.1-0.3-0.1
					c0.1-0.1,0.3,0,0.4,0.1c0.2,0.2,0.2,0.4,0.1,0.5C7.3,34.9,7.2,34.9,7.1,34.9z"/>
				<ellipse transform="matrix(0.702 -0.7122 0.7122 0.702 -22.452 15.059)" class="st9" cx="6.8" cy="34.4" rx="0.1" ry="0.1"/>
			</g>
			<ellipse transform="matrix(0.702 -0.7122 0.7122 0.702 -23.0047 15.4154)" class="st7" cx="6.9" cy="35.2" rx="0.4" ry="0.6"/>
			<polygon class="st7" points="6.5,34.8 6.2,35.1 7.1,35.9 7.4,35.5 			"/>
			<g>
				<ellipse transform="matrix(0.702 -0.7122 0.7122 0.702 -23.2718 15.3151)" class="st7" cx="6.7" cy="35.5" rx="0.4" ry="0.6"/>
				<path class="st8" d="M6.8,35.8C6.8,35.8,6.8,35.8,6.8,35.8c0.2-0.2,0.2-0.4,0-0.6c-0.1-0.1-0.2-0.1-0.3-0.1
					c0.1-0.1,0.3,0,0.4,0.1c0.2,0.2,0.2,0.4,0.1,0.5C6.9,35.8,6.9,35.9,6.8,35.8z"/>
				<ellipse transform="matrix(0.702 -0.7122 0.7122 0.702 -23.2202 15.1205)" class="st9" cx="6.5" cy="35.3" rx="0.1" ry="0.1"/>
			</g>
			<ellipse transform="matrix(0.702 -0.7122 0.7122 0.702 -23.7566 15.6852)" class="st7" cx="6.9" cy="36.2" rx="0.3" ry="0.5"/>
			<polygon class="st7" points="6.6,35.9 6.3,36.2 7,36.8 7.2,36.5 			"/>
			<g>
				<ellipse transform="matrix(0.702 -0.7122 0.7122 0.702 -23.9749 15.6032)" class="st7" cx="6.7" cy="36.5" rx="0.3" ry="0.5"/>
				<path class="st8" d="M6.7,36.8C6.8,36.7,6.8,36.7,6.7,36.8c0.2-0.1,0.1-0.3,0-0.5c-0.1-0.1-0.2-0.1-0.2-0.1c0.1,0,0.2,0,0.4,0.1
					C7,36.4,7,36.6,6.9,36.7C6.9,36.7,6.8,36.8,6.7,36.8z"/>
				<ellipse transform="matrix(0.702 -0.7122 0.7122 0.702 -23.9327 15.4442)" class="st9" cx="6.5" cy="36.3" rx="0.1" ry="0.1"/>
			</g>
			<ellipse transform="matrix(0.702 -0.7122 0.7122 0.702 -24.2799 16.1423)" class="st7" cx="7.1" cy="37.1" rx="0.3" ry="0.5"/>
			<polygon class="st7" points="6.8,36.7 6.6,37 7.3,37.6 7.5,37.3 			"/>
			<g>
				<ellipse transform="matrix(0.702 -0.7122 0.7122 0.702 -24.4981 16.0603)" class="st7" cx="6.9" cy="37.3" rx="0.3" ry="0.5"/>
				<path class="st8" d="M7,37.6C7.1,37.6,7.1,37.6,7,37.6c0.2-0.1,0.1-0.3,0-0.5C7,37.1,6.9,37,6.8,37c0.1,0,0.2,0,0.4,0.1
					c0.1,0.1,0.2,0.3,0.1,0.4C7.2,37.6,7.1,37.6,7,37.6z"/>
				<ellipse transform="matrix(0.702 -0.7122 0.7122 0.702 -24.456 15.9013)" class="st9" cx="6.8" cy="37.2" rx="0.1" ry="0.1"/>
			</g>
			<ellipse transform="matrix(0.702 -0.7122 0.7122 0.702 -23.2565 24.099)" class="st7" cx="17.2" cy="39.8" rx="0.4" ry="0.6"/>
			<polygon class="st7" points="16.8,39.4 16.5,39.8 17.3,40.5 17.6,40.2 			"/>
			<g>
				<ellipse transform="matrix(0.702 -0.7122 0.7122 0.702 -23.5236 23.9987)" class="st7" cx="16.9" cy="40.1" rx="0.4" ry="0.6"/>
				<path class="st8" d="M17,40.5C17.1,40.5,17.1,40.5,17,40.5c0.2-0.2,0.2-0.4,0-0.6c-0.1-0.1-0.2-0.1-0.3-0.1
					c0.1-0.1,0.3,0,0.4,0.1c0.2,0.2,0.2,0.4,0.1,0.5C17.2,40.5,17.1,40.5,17,40.5z"/>
				<ellipse transform="matrix(0.702 -0.7122 0.7122 0.702 -23.472 23.8042)" class="st9" cx="16.7" cy="39.9" rx="0.1" ry="0.1"/>
			</g>
			<g>
				<ellipse transform="matrix(0.702 -0.7122 0.7122 0.702 -23.9553 23.997)" class="st7" cx="16.7" cy="40.6" rx="0.4" ry="0.6"/>
				<polygon class="st7" points="16.3,40.2 16,40.5 16.8,41.3 17.2,40.9 				"/>
				<g>
					
						<ellipse transform="matrix(0.702 -0.7122 0.7122 0.702 -24.2224 23.8967)" class="st7" cx="16.4" cy="40.9" rx="0.4" ry="0.6"/>
					<path class="st8" d="M16.6,41.3C16.6,41.3,16.6,41.2,16.6,41.3c0.2-0.2,0.2-0.4,0-0.6c-0.1-0.1-0.2-0.1-0.3-0.1
						c0.1-0.1,0.3,0,0.4,0.1c0.2,0.2,0.2,0.4,0.1,0.5C16.7,41.3,16.6,41.3,16.6,41.3z"/>
					
						<ellipse transform="matrix(0.702 -0.7122 0.7122 0.702 -24.1708 23.7022)" class="st9" cx="16.2" cy="40.7" rx="0.1" ry="0.1"/>
				</g>
			</g>
			<ellipse transform="matrix(0.702 -0.7122 0.7122 0.702 -22.6975 23.986)" class="st7" cx="17.3" cy="39.1" rx="0.4" ry="0.6"/>
			<polygon class="st7" points="16.9,38.7 16.6,39 17.5,39.8 17.8,39.4 			"/>
			<g>
				<ellipse transform="matrix(0.702 -0.7122 0.7122 0.702 -22.9646 23.8857)" class="st7" cx="17.1" cy="39.4" rx="0.4" ry="0.6"/>
				<path class="st8" d="M17.2,39.8C17.2,39.7,17.2,39.7,17.2,39.8c0.2-0.2,0.2-0.4,0-0.6c-0.1-0.1-0.2-0.1-0.3-0.1
					c0.1-0.1,0.3,0,0.4,0.1c0.2,0.2,0.2,0.4,0.1,0.5C17.3,39.7,17.3,39.8,17.2,39.8z"/>
				<ellipse transform="matrix(0.702 -0.7122 0.7122 0.702 -22.913 23.6912)" class="st9" cx="16.9" cy="39.2" rx="0.1" ry="0.1"/>
			</g>
			<ellipse transform="matrix(0.702 -0.7122 0.7122 0.702 -21.9552 23.6213)" class="st7" cx="17.2" cy="38" rx="0.4" ry="0.6"/>
			<polygon class="st7" points="16.9,37.6 16.5,38 17.4,38.7 17.7,38.4 			"/>
			<g>
				<ellipse transform="matrix(0.702 -0.7122 0.7122 0.702 -22.2223 23.521)" class="st7" cx="17" cy="38.3" rx="0.4" ry="0.6"/>
				<path class="st8" d="M17.1,38.7C17.1,38.7,17.2,38.7,17.1,38.7c0.2-0.2,0.2-0.4,0-0.6C17,38,16.9,38,16.8,38
					c0.1-0.1,0.3,0,0.4,0.1c0.2,0.2,0.2,0.4,0.1,0.5C17.3,38.7,17.2,38.7,17.1,38.7z"/>
				<ellipse transform="matrix(0.702 -0.7122 0.7122 0.702 -22.1707 23.3264)" class="st9" cx="16.8" cy="38.2" rx="0.1" ry="0.1"/>
			</g>
			<ellipse transform="matrix(0.702 -0.7122 0.7122 0.702 -24.5845 23.8672)" class="st7" cx="16.2" cy="41.3" rx="0.3" ry="0.4"/>
			<polygon class="st7" points="15.9,41 15.7,41.2 16.3,41.8 16.6,41.6 			"/>
			<g>
				<ellipse transform="matrix(0.702 -0.7122 0.7122 0.702 -24.7946 23.7882)" class="st7" cx="16" cy="41.5" rx="0.3" ry="0.4"/>
				<path class="st8" d="M16.1,41.8C16.1,41.8,16.2,41.8,16.1,41.8c0.2-0.1,0.1-0.3,0-0.4c-0.1-0.1-0.1-0.1-0.2-0.1
					c0.1,0,0.2,0,0.3,0.1c0.1,0.1,0.2,0.3,0.1,0.4C16.3,41.8,16.2,41.8,16.1,41.8z"/>
				<ellipse transform="matrix(0.702 -0.7122 0.7122 0.702 -24.754 23.6353)" class="st9" cx="15.9" cy="41.4" rx="0.1" ry="0.1"/>
			</g>
			<ellipse transform="matrix(0.702 -0.7122 0.7122 0.702 -25.0305 23.474)" class="st7" cx="15.5" cy="41.6" rx="0.3" ry="0.4"/>
			<polygon class="st7" points="15.3,41.3 15,41.6 15.7,42.2 15.9,41.9 			"/>
			<g>
				<ellipse transform="matrix(0.702 -0.7122 0.7122 0.702 -25.2405 23.3951)" class="st7" cx="15.3" cy="41.9" rx="0.3" ry="0.4"/>
				<path class="st8" d="M15.4,42.2C15.4,42.1,15.5,42.1,15.4,42.2c0.2-0.1,0.1-0.3,0-0.4c-0.1-0.1-0.1-0.1-0.2-0.1
					c0.1,0,0.2,0,0.3,0.1c0.1,0.1,0.2,0.3,0.1,0.4C15.6,42.1,15.5,42.2,15.4,42.2z"/>
				<ellipse transform="matrix(0.702 -0.7122 0.7122 0.702 -25.2 23.2421)" class="st9" cx="15.2" cy="41.7" rx="0.1" ry="0.1"/>
			</g>
			<ellipse transform="matrix(0.702 -0.7122 0.7122 0.702 -25.4035 23.0806)" class="st7" cx="14.9" cy="41.9" rx="0.3" ry="0.4"/>
			<polygon class="st7" points="14.6,41.6 14.3,41.8 15,42.4 15.2,42.1 			"/>
			<g>
				<ellipse transform="matrix(0.702 -0.7122 0.7122 0.702 -25.6135 23.0017)" class="st7" cx="14.7" cy="42.1" rx="0.3" ry="0.4"/>
				<path class="st8" d="M14.8,42.4C14.8,42.4,14.8,42.4,14.8,42.4c0.2-0.1,0.1-0.3,0-0.4c-0.1-0.1-0.1-0.1-0.2-0.1
					c0.1,0,0.2,0,0.3,0.1c0.1,0.1,0.2,0.3,0.1,0.4C14.9,42.4,14.8,42.4,14.8,42.4z"/>
				<ellipse transform="matrix(0.702 -0.7122 0.7122 0.702 -25.5729 22.8487)" class="st9" cx="14.5" cy="42" rx="0.1" ry="0.1"/>
			</g>
			<g>
				<ellipse transform="matrix(0.702 -0.7122 0.7122 0.702 -25.8972 22.0467)" class="st7" cx="13.4" cy="42" rx="0.3" ry="0.4"/>
				<polygon class="st7" points="13.1,41.6 12.8,41.9 13.5,42.5 13.8,42.2 				"/>
				<g>
					
						<ellipse transform="matrix(0.702 -0.7122 0.7122 0.702 -26.1072 21.9678)" class="st7" cx="13.2" cy="42.2" rx="0.3" ry="0.4"/>
					<path class="st8" d="M13.3,42.5C13.3,42.5,13.3,42.5,13.3,42.5c0.2-0.1,0.1-0.3,0-0.4c-0.1-0.1-0.1-0.1-0.2-0.1
						c0.1,0,0.2,0,0.3,0.1c0.1,0.1,0.2,0.3,0.1,0.4C13.4,42.5,13.4,42.5,13.3,42.5z"/>
					<ellipse transform="matrix(0.702 -0.7122 0.7122 0.702 -26.0666 21.8148)" class="st9" cx="13" cy="42.1" rx="0.1" ry="0.1"/>
				</g>
			</g>
			<g>
				<ellipse transform="matrix(0.702 -0.7122 0.7122 0.702 -25.705 22.5648)" class="st7" cx="14.1" cy="42" rx="0.3" ry="0.4"/>
				<polygon class="st7" points="13.8,41.7 13.6,41.9 14.2,42.5 14.5,42.2 				"/>
				<g>
					
						<ellipse transform="matrix(0.702 -0.7122 0.7122 0.702 -25.9151 22.4859)" class="st7" cx="13.9" cy="42.2" rx="0.3" ry="0.4"/>
					<path class="st8" d="M14,42.5C14,42.5,14,42.5,14,42.5c0.2-0.1,0.1-0.3,0-0.4c-0.1-0.1-0.1-0.1-0.2-0.1c0.1,0,0.2,0,0.3,0.1
						c0.1,0.1,0.2,0.3,0.1,0.4C14.1,42.5,14.1,42.5,14,42.5z"/>
					
						<ellipse transform="matrix(0.702 -0.7122 0.7122 0.702 -25.8745 22.3329)" class="st9" cx="13.7" cy="42.1" rx="0.1" ry="0.1"/>
				</g>
			</g>
			<g>
				<ellipse transform="matrix(0.702 -0.7122 0.7122 0.702 -25.9663 21.4689)" class="st7" cx="12.7" cy="41.8" rx="0.3" ry="0.4"/>
				<polygon class="st7" points="12.4,41.4 12.1,41.7 12.8,42.3 13,42 				"/>
				<g>
					<ellipse transform="matrix(0.702 -0.7122 0.7122 0.702 -26.1764 21.3899)" class="st7" cx="12.5" cy="42" rx="0.3" ry="0.4"/>
					<path class="st8" d="M12.6,42.3C12.6,42.3,12.6,42.2,12.6,42.3c0.2-0.1,0.1-0.3,0-0.4c-0.1-0.1-0.1-0.1-0.2-0.1
						c0.1,0,0.2,0,0.3,0.1c0.1,0.1,0.2,0.3,0.1,0.4C12.7,42.3,12.6,42.3,12.6,42.3z"/>
					
						<ellipse transform="matrix(0.702 -0.7122 0.7122 0.702 -26.1358 21.2369)" class="st9" cx="12.3" cy="41.8" rx="0.1" ry="0.1"/>
				</g>
			</g>
			<g>
				<ellipse transform="matrix(0.702 -0.7122 0.7122 0.702 -26.1026 20.7278)" class="st7" cx="11.7" cy="41.6" rx="0.3" ry="0.4"/>
				<polygon class="st7" points="11.4,41.2 11.2,41.5 11.8,42.1 12.1,41.8 				"/>
				<g>
					
						<ellipse transform="matrix(0.702 -0.7122 0.7122 0.702 -26.3126 20.6488)" class="st7" cx="11.5" cy="41.8" rx="0.3" ry="0.4"/>
					<path class="st8" d="M11.6,42.1C11.6,42,11.6,42,11.6,42.1c0.2-0.1,0.1-0.3,0-0.4c-0.1-0.1-0.1-0.1-0.2-0.1
						c0.1,0,0.2,0,0.3,0.1c0.1,0.1,0.2,0.3,0.1,0.4C11.7,42.1,11.7,42.1,11.6,42.1z"/>
					
						<ellipse transform="matrix(0.702 -0.7122 0.7122 0.702 -26.2721 20.4959)" class="st9" cx="11.4" cy="41.6" rx="0.1" ry="0.1"/>
				</g>
			</g>
			<g>
				<ellipse transform="matrix(0.702 -0.7122 0.7122 0.702 -26.1242 19.9862)" class="st7" cx="10.8" cy="41.2" rx="0.3" ry="0.4"/>
				<polygon class="st7" points="10.5,40.9 10.3,41.1 10.9,41.7 11.2,41.5 				"/>
				<g>
					
						<ellipse transform="matrix(0.702 -0.7122 0.7122 0.702 -26.3342 19.9073)" class="st7" cx="10.6" cy="41.4" rx="0.3" ry="0.4"/>
					<path class="st8" d="M10.7,41.7C10.7,41.7,10.8,41.7,10.7,41.7c0.2-0.1,0.1-0.3,0-0.4c-0.1-0.1-0.1-0.1-0.2-0.1
						c0.1,0,0.2,0,0.3,0.1c0.1,0.1,0.2,0.3,0.1,0.4C10.8,41.7,10.8,41.7,10.7,41.7z"/>
					
						<ellipse transform="matrix(0.702 -0.7122 0.7122 0.702 -26.2937 19.7543)" class="st9" cx="10.5" cy="41.3" rx="0.1" ry="0.1"/>
				</g>
			</g>
			<g>
				<ellipse transform="matrix(0.702 -0.7122 0.7122 0.702 -26.0104 19.2518)" class="st7" cx="10" cy="40.7" rx="0.3" ry="0.4"/>
				<polygon class="st7" points="9.7,40.4 9.4,40.6 10.1,41.2 10.4,41 				"/>
				<g>
					<ellipse transform="matrix(0.702 -0.7122 0.7122 0.702 -26.2204 19.1728)" class="st7" cx="9.8" cy="40.9" rx="0.3" ry="0.4"/>
					<path class="st8" d="M9.9,41.2C9.9,41.2,9.9,41.2,9.9,41.2c0.2-0.1,0.1-0.3,0-0.4c-0.1-0.1-0.1-0.1-0.2-0.1
						c0.1,0,0.2,0,0.3,0.1c0.1,0.1,0.2,0.3,0.1,0.4C10,41.2,10,41.2,9.9,41.2z"/>
					<ellipse transform="matrix(0.702 -0.7122 0.7122 0.702 -26.1798 19.0198)" class="st9" cx="9.6" cy="40.8" rx="0.1" ry="0.1"/>
				</g>
			</g>
			<g>
				<ellipse transform="matrix(0.702 -0.7122 0.7122 0.702 -25.8856 18.5247)" class="st7" cx="9.2" cy="40.2" rx="0.3" ry="0.4"/>
				<polygon class="st7" points="8.9,39.9 8.6,40.1 9.3,40.7 9.6,40.4 				"/>
				<g>
					<ellipse transform="matrix(0.702 -0.7122 0.7122 0.702 -26.0956 18.4458)" class="st7" cx="9" cy="40.4" rx="0.3" ry="0.4"/>
					<path class="st8" d="M9.1,40.7C9.1,40.7,9.1,40.7,9.1,40.7c0.2-0.1,0.1-0.3,0-0.4c-0.1-0.1-0.1-0.1-0.2-0.1
						c0.1,0,0.2,0,0.3,0.1c0.1,0.1,0.2,0.3,0.1,0.4C9.2,40.7,9.1,40.7,9.1,40.7z"/>
					<ellipse transform="matrix(0.702 -0.7122 0.7122 0.702 -26.055 18.2928)" class="st9" cx="8.8" cy="40.3" rx="0.1" ry="0.1"/>
				</g>
			</g>
			<g>
				<ellipse transform="matrix(0.702 -0.7122 0.7122 0.702 -25.5901 17.8228)" class="st7" cx="8.5" cy="39.5" rx="0.3" ry="0.4"/>
				<polygon class="st7" points="8.2,39.2 7.9,39.4 8.6,40 8.9,39.7 				"/>
				<g>
					<ellipse transform="matrix(0.702 -0.7122 0.7122 0.702 -25.8001 17.7438)" class="st7" cx="8.3" cy="39.7" rx="0.3" ry="0.4"/>
					<path class="st8" d="M8.4,40C8.4,40,8.4,40,8.4,40c0.2-0.1,0.1-0.3,0-0.4c-0.1-0.1-0.1-0.1-0.2-0.1c0.1,0,0.2,0,0.3,0.1
						c0.1,0.1,0.2,0.3,0.1,0.4C8.5,40,8.5,40,8.4,40z"/>
					<ellipse transform="matrix(0.702 -0.7122 0.7122 0.702 -25.7595 17.5908)" class="st9" cx="8.1" cy="39.6" rx="0.1" ry="0.1"/>
				</g>
			</g>
			<g>
				<ellipse transform="matrix(0.702 -0.7122 0.7122 0.702 -25.2628 17.2153)" class="st7" cx="7.9" cy="38.8" rx="0.3" ry="0.4"/>
				<polygon class="st7" points="7.6,38.5 7.4,38.7 8.1,39.3 8.3,39 				"/>
				<g>
					<ellipse transform="matrix(0.702 -0.7122 0.7122 0.702 -25.4729 17.1363)" class="st7" cx="7.7" cy="39" rx="0.3" ry="0.4"/>
					<path class="st8" d="M7.8,39.3C7.8,39.3,7.9,39.3,7.8,39.3C8,39.2,8,39,7.8,38.9c-0.1-0.1-0.1-0.1-0.2-0.1c0.1,0,0.2,0,0.3,0.1
						C8.1,39,8.1,39.2,8,39.2C8,39.3,7.9,39.3,7.8,39.3z"/>
					<ellipse transform="matrix(0.702 -0.7122 0.7122 0.702 -25.4323 16.9833)" class="st9" cx="7.6" cy="38.9" rx="0.1" ry="0.1"/>
				</g>
			</g>
			<g>
				<ellipse transform="matrix(0.702 -0.7122 0.7122 0.702 -24.9213 16.6454)" class="st7" cx="7.4" cy="38.1" rx="0.3" ry="0.4"/>
				<polygon class="st7" points="7.1,37.8 6.9,38 7.5,38.6 7.8,38.3 				"/>
				<g>
					<ellipse transform="matrix(0.702 -0.7122 0.7122 0.702 -25.1314 16.5664)" class="st7" cx="7.2" cy="38.3" rx="0.3" ry="0.4"/>
					<path class="st8" d="M7.3,38.6C7.3,38.6,7.4,38.6,7.3,38.6c0.2-0.1,0.1-0.3,0-0.4c-0.1-0.1-0.1-0.1-0.2-0.1
						c0.1,0,0.2,0,0.3,0.1c0.1,0.1,0.2,0.3,0.1,0.4C7.5,38.6,7.4,38.6,7.3,38.6z"/>
					<ellipse transform="matrix(0.702 -0.7122 0.7122 0.702 -25.0908 16.4134)" class="st9" cx="7.1" cy="38.2" rx="0.1" ry="0.1"/>
				</g>
			</g>
		</g>
		<path class="st5" d="M7.8,28.3l12.7,2.3l0.1-0.1l0.1,0.1l1.8,0.3l-0.7,1l1.6,1.9l-3.4,5c-0.4-2.7-3.7,0.8-3.7,0.8s-0.9,1-2.2-0.3
			C12.9,38,10,36,7.3,36c-2.7,0-5.7,1.5-7,3.5L0,39.2L7.8,28.3z"/>
		<polygon class="st1" points="34.4,25.6 34.3,28.1 29.9,34.8 27.8,34 		"/>
		<polygon class="st1" points="35.8,19.7 35.8,23.6 28.3,34.5 28.3,30.4 		"/>
		<polygon class="st10" points="28.3,34.5 26,33.6 28.3,30.4 		"/>
		<polygon class="st10" points="29.9,34.8 29.9,32.2 28.5,34.3 		"/>
	</g>
	<path class="st0" d="M15.3,36.6c-0.3,0-0.6-0.1-0.8-0.3c-0.6-0.5-0.8-1.3-0.3-2L34.6,5.6c0.5-0.6,1.3-0.8,2-0.3
		c0.6,0.5,0.8,1.3,0.3,2L16.5,36C16.2,36.4,15.8,36.6,15.3,36.6z"/>
	<path class="st0" d="M14.1,31.4c-0.1,0-0.3,0-0.4-0.1c-0.3-0.2-0.4-0.7-0.2-1L32.4,3.7c0.2-0.3,0.7-0.4,1-0.2
		c0.3,0.2,0.4,0.7,0.2,1L14.7,31.1C14.6,31.3,14.4,31.4,14.1,31.4z"/>
</g>
</svg>
