<?xml version="1.0" encoding="utf-8"?>
<!-- Generator: Adobe Illustrator 23.1.1, SVG Export Plug-In . SVG Version: 6.00 Build 0)  -->
<svg version="1.1" id="Layer_1" xmlns="http://www.w3.org/2000/svg" xmlns:xlink="http://www.w3.org/1999/xlink" x="0px" y="0px"
	 viewBox="0 0 43.4 42.6" style="enable-background:new 0 0 43.4 42.6;" xml:space="preserve">
<style type="text/css">
	.st0{fill:#303030;}
	.st1{fill:#B8BEBD;}
	.st2{fill:#768080;}
	.st3{fill:#808383;}
	.st4{fill:#231F20;}
	.st5{fill:#424242;}
	.st6{fill:#636F6D;}
	.st7{fill:#908D87;}
	.st8{fill:#151515;}
	.st9{fill:#AE3025;}
	.st10{fill:#6C1F1A;}
	.st11{fill:#DD655F;}
</style>
<g>
	<ellipse class="st0" cx="7.7" cy="32.1" rx="6.2" ry="6.2"/>
	<ellipse class="st1" cx="8.4" cy="32.9" rx="6.2" ry="6.2"/>
	<ellipse class="st2" cx="8.4" cy="33.2" rx="4.7" ry="4.7"/>
	<ellipse class="st3" cx="8.8" cy="33.6" rx="4.7" ry="4.7"/>
	<line class="st4" x1="14.3" y1="26.7" x2="14.3" y2="40.4"/>
	<path class="st5" d="M14.3,42.2c-1,0-1.8-0.8-1.8-1.8V26.7c0-1,0.8-1.8,1.8-1.8s1.8,0.8,1.8,1.8v13.7
		C16.1,41.4,15.3,42.2,14.3,42.2z"/>
	<path class="st1" d="M5.9,31.7l2.9,1.1c0,0,2.1,0,2.7-0.7l0.6-1.6C12.2,30.5,9.2,29.7,5.9,31.7z"/>
	<path class="st6" d="M5.9,36.9L8.9,38c0,0,2.1,0,2.7-0.7l0.6-1.6C12.2,35.6,9.2,34.9,5.9,36.9z"/>
	<path class="st7" d="M8.8,32.8V38c0,0,2.1-0.1,2.7-0.7v-5.2C11.6,32.1,10.8,32.8,8.8,32.8z"/>
	<polygon class="st1" points="5.9,31.7 8.8,32.8 8.8,38 5.9,36.8 	"/>
	<polygon class="st1" points="12.2,30.5 11.6,32.1 11.6,36.7 12.2,33.9 	"/>
	<path class="st1" d="M8.2,34.4v1.8l4.8,3.1c0,0,2.1,0.8,3-0.4v-1.5c0,0-0.9,1.1-3,0.3c0,0-0.6-0.3-0.6-0.6l0-3.2l-0.8-0.4
		c0,0-0.4,0.6-1.1,0.8C9.9,34.5,9,34.4,9,34.4L8.2,34.4z"/>
	<path class="st4" d="M8,32.2c-0.1,0-0.2,0-0.3,0c-1.7-0.3-5.2-3.4-6.5-7.5C-0.8,19.1-0.2,9,2.2,3.8c0.7-1.5,1.7-2.3,2.9-2.5
		c2.5-0.3,4.9,2.7,5,2.9c0.2,0.3,0.2,0.7-0.1,1c-0.3,0.2-0.7,0.2-1-0.1C8.5,4.4,6.7,2.5,5.3,2.7C4.6,2.8,3.9,3.4,3.4,4.4
		c-2.3,4.9-2.8,14.5-1,19.8c1.3,3.7,4.2,6.2,5.3,6.6c0,0,0-0.1,0-0.1c-0.1-0.4,0.1-0.7,0.4-0.9c0.4-0.1,0.7,0.1,0.9,0.4
		c0.2,0.7,0.2,1.3-0.1,1.6C8.8,31.9,8.5,32.2,8,32.2z"/>
	<path class="st1" d="M38.9,31.4c-0.1-0.2-0.2-0.4-0.4-0.6l-0.6-0.9L18.4,2.4l-0.8-1.2c-2-1.9-6.2-1.6-9.8,0.9
		C4,4.7,2.2,8.6,3.5,11.2l0.6,0.9L24,40l0.5,0.7c0.3,0.4,0.6,0.7,0.9,1c2.1,1.5,5.9,1,9.2-1.3C38.1,37.9,39.9,34,38.9,31.4z"/>
	<path d="M34.4,39.9c3.4-2.3,5.2-5.9,4.1-8.3l-0.8-1.1c-1.9-1.8-5.8-1.5-9.2,0.8c-3.5,2.4-5.2,6.1-4,8.5l0.6,0.8
		C27,42.6,30.9,42.3,34.4,39.9z"/>
	<path class="st5" d="M33.9,39c2.7-1.9,4.1-4.7,3.3-6.6l-0.6-0.9c-1.5-1.4-4.6-1.2-7.3,0.7c-2.8,1.9-4.2,4.9-3.2,6.8l0.5,0.7
		C28,41.1,31.2,40.9,33.9,39z"/>
	<path d="M33.3,38.1c1.8-1.2,2.7-3.1,2.1-4.4l-0.4-0.6c-1-0.9-3-0.8-4.8,0.4c-1.9,1.3-2.7,3.2-2.1,4.5l0.3,0.4
		C29.4,39.5,31.5,39.4,33.3,38.1z"/>
	<path d="M33.8,38.6c1.8-1.2,2.7-3.1,2.1-4.4l-0.4-0.6c-1-0.9-3-0.8-4.8,0.4c-1.9,1.3-2.7,3.2-2.1,4.5l0.3,0.4
		C29.9,40,32,39.9,33.8,38.6z"/>
	<path class="st8" d="M33.6,38.3c1.6-1.1,2.4-2.8,1.9-3.9l-0.4-0.5c-0.9-0.8-2.7-0.7-4.3,0.4c-1.6,1.1-2.4,2.8-1.9,4l0.3,0.4
		C30.1,39.6,31.9,39.4,33.6,38.3z"/>
	<ellipse transform="matrix(0.7122 -0.702 0.702 0.7122 -17.0725 29.3396)" class="st9" cx="27.2" cy="35.5" rx="0.5" ry="0.4"/>
	<polygon class="st9" points="27.6,35.1 27.9,35.4 27.1,36.1 26.8,35.8 	"/>
	<ellipse transform="matrix(0.7122 -0.702 0.702 0.7122 -17.1835 29.5844)" class="st9" cx="27.5" cy="35.7" rx="0.5" ry="0.4"/>
	<path class="st10" d="M27.4,36.1C27.4,36.1,27.3,36.1,27.4,36.1c-0.2-0.2-0.2-0.4,0-0.5c0.1-0.1,0.2-0.1,0.3-0.1
		c-0.1,0-0.3,0-0.4,0.1c-0.2,0.2-0.2,0.4-0.1,0.5C27.2,36.1,27.3,36.1,27.4,36.1z"/>
	<ellipse transform="matrix(0.7122 -0.702 0.702 0.7122 -17.0196 29.6796)" class="st11" cx="27.7" cy="35.6" rx="0.1" ry="0.1"/>
	<ellipse transform="matrix(0.7122 -0.702 0.702 0.7122 -16.0635 29.4156)" class="st9" cx="27.8" cy="34.3" rx="0.5" ry="0.4"/>
	<polygon class="st9" points="28.2,33.9 28.5,34.2 27.7,34.9 27.4,34.6 	"/>
	<ellipse transform="matrix(0.7122 -0.702 0.702 0.7122 -16.1746 29.6603)" class="st9" cx="28.1" cy="34.6" rx="0.5" ry="0.4"/>
	<path class="st10" d="M28,34.9C28,34.9,27.9,34.9,28,34.9c-0.2-0.2-0.2-0.4,0-0.5c0.1-0.1,0.2-0.1,0.3-0.1c-0.1,0-0.3,0-0.4,0.1
		c-0.2,0.2-0.2,0.4-0.1,0.5C27.8,34.9,27.9,34.9,28,34.9z"/>
	<ellipse transform="matrix(0.7122 -0.702 0.702 0.7122 -16.0106 29.7555)" class="st11" cx="28.3" cy="34.4" rx="0.1" ry="0.1"/>
	<ellipse transform="matrix(0.7122 -0.702 0.702 0.7122 -15.0291 29.7604)" class="st9" cx="28.8" cy="33.2" rx="0.5" ry="0.4"/>
	<polygon class="st9" points="29.1,32.8 29.5,33.1 28.6,33.8 28.3,33.5 	"/>
	<ellipse transform="matrix(0.7122 -0.702 0.702 0.7122 -15.1401 30.0051)" class="st9" cx="29" cy="33.5" rx="0.5" ry="0.4"/>
	<path class="st10" d="M28.9,33.8C28.9,33.8,28.9,33.8,28.9,33.8c-0.2-0.2-0.2-0.4,0-0.5c0.1-0.1,0.2-0.1,0.3-0.1
		c-0.1,0-0.3,0-0.4,0.1c-0.2,0.2-0.2,0.4-0.1,0.5C28.7,33.8,28.8,33.8,28.9,33.8z"/>
	<ellipse transform="matrix(0.7122 -0.702 0.702 0.7122 -14.9762 30.1003)" class="st11" cx="29.2" cy="33.3" rx="0.1" ry="0.1"/>
	<ellipse transform="matrix(0.7122 -0.702 0.702 0.7122 -14.1621 30.3539)" class="st9" cx="29.9" cy="32.4" rx="0.5" ry="0.4"/>
	<polygon class="st9" points="30.3,32 30.6,32.4 29.8,33.1 29.5,32.7 	"/>
	<ellipse transform="matrix(0.7122 -0.702 0.702 0.7122 -14.2731 30.5987)" class="st9" cx="30.2" cy="32.7" rx="0.5" ry="0.4"/>
	<path class="st10" d="M30.1,33.1C30,33.1,30,33,30.1,33.1c-0.2-0.2-0.2-0.4,0-0.5c0.1-0.1,0.2-0.1,0.3-0.1c-0.1,0-0.3,0-0.4,0.1
		c-0.2,0.2-0.2,0.4-0.1,0.5C29.9,33.1,30,33.1,30.1,33.1z"/>
	<ellipse transform="matrix(0.7122 -0.702 0.702 0.7122 -14.1092 30.6939)" class="st11" cx="30.4" cy="32.6" rx="0.1" ry="0.1"/>
	<ellipse transform="matrix(0.7122 -0.702 0.702 0.7122 -13.3267 31.0689)" class="st9" cx="31.2" cy="31.8" rx="0.5" ry="0.4"/>
	<polygon class="st9" points="31.6,31.4 31.9,31.7 31.1,32.4 30.8,32.1 	"/>
	<ellipse transform="matrix(0.7122 -0.702 0.702 0.7122 -13.4377 31.3136)" class="st9" cx="31.5" cy="32" rx="0.5" ry="0.4"/>
	<path class="st10" d="M31.4,32.4C31.3,32.4,31.3,32.4,31.4,32.4c-0.2-0.2-0.2-0.4,0-0.5c0.1-0.1,0.2-0.1,0.3-0.1
		c-0.1,0-0.3,0-0.4,0.1c-0.2,0.2-0.2,0.4-0.1,0.5C31.2,32.4,31.3,32.4,31.4,32.4z"/>
	<ellipse transform="matrix(0.7122 -0.702 0.702 0.7122 -13.2738 31.4088)" class="st11" cx="31.7" cy="31.9" rx="0.1" ry="0.1"/>
	<ellipse transform="matrix(0.7122 -0.702 0.702 0.7122 -12.615 31.9739)" class="st9" cx="32.7" cy="31.4" rx="0.5" ry="0.4"/>
	<polygon class="st9" points="33,31 33.4,31.3 32.5,32 32.2,31.7 	"/>
	<ellipse transform="matrix(0.7122 -0.702 0.702 0.7122 -12.726 32.2186)" class="st9" cx="32.9" cy="31.6" rx="0.5" ry="0.4"/>
	<path class="st10" d="M32.8,32C32.8,32,32.8,32,32.8,32c-0.2-0.2-0.2-0.4,0-0.5c0.1-0.1,0.2-0.1,0.3-0.1c-0.1,0-0.3,0-0.4,0.1
		c-0.2,0.2-0.2,0.4-0.1,0.5C32.7,32,32.7,32,32.8,32z"/>
	<ellipse transform="matrix(0.7122 -0.702 0.702 0.7122 -12.5621 32.3138)" class="st11" cx="33.1" cy="31.5" rx="0.1" ry="0.1"/>
	<ellipse transform="matrix(0.7122 -0.702 0.702 0.7122 -12.1484 32.9176)" class="st9" cx="34.1" cy="31.3" rx="0.5" ry="0.4"/>
	<polygon class="st9" points="34.4,30.9 34.7,31.2 33.9,31.9 33.6,31.6 	"/>
	<ellipse transform="matrix(0.7122 -0.702 0.702 0.7122 -12.2594 33.1623)" class="st9" cx="34.3" cy="31.5" rx="0.5" ry="0.4"/>
	<path class="st10" d="M34.2,31.9C34.2,31.9,34.2,31.9,34.2,31.9c-0.2-0.2-0.2-0.4,0-0.5c0.1-0.1,0.2-0.1,0.3-0.1
		c-0.1,0-0.3,0-0.4,0.1c-0.2,0.2-0.2,0.4-0.1,0.5C34,31.9,34.1,31.9,34.2,31.9z"/>
	<ellipse transform="matrix(0.7122 -0.702 0.702 0.7122 -12.0955 33.2575)" class="st11" cx="34.5" cy="31.4" rx="0.1" ry="0.1"/>
	<ellipse transform="matrix(0.7122 -0.702 0.702 0.7122 -12.0697 33.6717)" class="st9" cx="35" cy="31.6" rx="0.5" ry="0.4"/>
	<polygon class="st9" points="35.4,31.2 35.7,31.5 34.9,32.2 34.6,31.9 	"/>
	<ellipse transform="matrix(0.7122 -0.702 0.702 0.7122 -12.1807 33.9164)" class="st9" cx="35.3" cy="31.8" rx="0.5" ry="0.4"/>
	<path class="st10" d="M35.2,32.2C35.1,32.2,35.1,32.1,35.2,32.2c-0.2-0.2-0.2-0.4,0-0.5c0.1-0.1,0.2-0.1,0.3-0.1
		c-0.1,0-0.3,0-0.4,0.1c-0.2,0.2-0.2,0.4-0.1,0.5C35,32.2,35.1,32.2,35.2,32.2z"/>
	<ellipse transform="matrix(0.7122 -0.702 0.702 0.7122 -12.0168 34.0116)" class="st11" cx="35.5" cy="31.7" rx="0.1" ry="0.1"/>
	<ellipse transform="matrix(0.7122 -0.702 0.702 0.7122 -12.1166 34.4501)" class="st9" cx="36" cy="32" rx="0.5" ry="0.4"/>
	<polygon class="st9" points="36.3,31.6 36.6,31.9 35.8,32.6 35.5,32.3 	"/>
	<ellipse transform="matrix(0.7122 -0.702 0.702 0.7122 -12.2276 34.6948)" class="st9" cx="36.2" cy="32.3" rx="0.5" ry="0.4"/>
	<path class="st10" d="M36.1,32.6C36.1,32.6,36,32.6,36.1,32.6c-0.2-0.2-0.2-0.4,0-0.5c0.1-0.1,0.2-0.1,0.3-0.1
		c-0.1,0-0.3,0-0.4,0.1c-0.2,0.2-0.2,0.4-0.1,0.5C35.9,32.6,36,32.6,36.1,32.6z"/>
	<ellipse transform="matrix(0.7122 -0.702 0.702 0.7122 -12.0637 34.79)" class="st11" cx="36.4" cy="32.1" rx="0.1" ry="0.1"/>
	<ellipse transform="matrix(0.7122 -0.702 0.702 0.7122 -12.5446 35.0594)" class="st9" cx="36.5" cy="32.8" rx="0.5" ry="0.4"/>
	<polygon class="st9" points="36.8,32.4 37.2,32.8 36.3,33.5 36,33.1 	"/>
	<ellipse transform="matrix(0.7122 -0.702 0.702 0.7122 -12.6556 35.3041)" class="st9" cx="36.7" cy="33.1" rx="0.5" ry="0.4"/>
	<path class="st10" d="M36.6,33.4C36.6,33.4,36.6,33.4,36.6,33.4c-0.2-0.2-0.2-0.4,0-0.5c0.1-0.1,0.2-0.1,0.3-0.1
		c-0.1,0-0.3,0-0.4,0.1c-0.2,0.2-0.2,0.4-0.1,0.5C36.5,33.4,36.5,33.5,36.6,33.4z"/>
	<ellipse transform="matrix(0.7122 -0.702 0.702 0.7122 -12.4917 35.3993)" class="st11" cx="36.9" cy="32.9" rx="0.1" ry="0.1"/>
	<ellipse transform="matrix(0.7122 -0.702 0.702 0.7122 -13.0973 35.53)" class="st9" cx="36.8" cy="33.7" rx="0.5" ry="0.4"/>
	<polygon class="st9" points="37.1,33.3 37.5,33.7 36.6,34.4 36.3,34 	"/>
	<ellipse transform="matrix(0.7122 -0.702 0.702 0.7122 -13.2083 35.7748)" class="st9" cx="37" cy="34" rx="0.5" ry="0.4"/>
	<path class="st10" d="M36.9,34.4C36.9,34.3,36.9,34.3,36.9,34.4c-0.2-0.2-0.2-0.4,0-0.5c0.1-0.1,0.2-0.1,0.3-0.1
		c-0.1,0-0.3,0-0.4,0.1c-0.2,0.2-0.2,0.4-0.1,0.5C36.8,34.3,36.8,34.4,36.9,34.4z"/>
	<ellipse transform="matrix(0.7122 -0.702 0.702 0.7122 -13.0444 35.87)" class="st11" cx="37.2" cy="33.8" rx="0.1" ry="0.1"/>
	<ellipse transform="matrix(0.7122 -0.702 0.702 0.7122 -13.7779 35.8512)" class="st9" cx="36.8" cy="34.7" rx="0.4" ry="0.3"/>
	<polygon class="st9" points="37.1,34.4 37.4,34.7 36.7,35.3 36.5,35 	"/>
	<ellipse transform="matrix(0.7122 -0.702 0.702 0.7122 -13.8686 36.0512)" class="st9" cx="37" cy="34.9" rx="0.4" ry="0.3"/>
	<path class="st10" d="M36.9,35.2C36.9,35.2,36.9,35.2,36.9,35.2c-0.2-0.1-0.1-0.3,0-0.4c0.1-0.1,0.1-0.1,0.2-0.1
		c-0.1,0-0.2,0-0.3,0.1c-0.1,0.1-0.2,0.3-0.1,0.4C36.8,35.2,36.9,35.2,36.9,35.2z"/>
	<ellipse transform="matrix(0.7122 -0.702 0.702 0.7122 -13.7346 36.129)" class="st11" cx="37.2" cy="34.8" rx="0.1" ry="0.1"/>
	<ellipse transform="matrix(0.7122 -0.702 0.702 0.7122 -14.4309 35.8953)" class="st9" cx="36.6" cy="35.5" rx="0.4" ry="0.3"/>
	<polygon class="st9" points="36.9,35.2 37.1,35.5 36.4,36.1 36.2,35.8 	"/>
	<ellipse transform="matrix(0.7122 -0.702 0.702 0.7122 -14.5217 36.0953)" class="st9" cx="36.8" cy="35.8" rx="0.4" ry="0.3"/>
	<path class="st10" d="M36.7,36C36.7,36,36.6,36,36.7,36c-0.2-0.1-0.1-0.3,0-0.4c0.1-0.1,0.1-0.1,0.2-0.1c-0.1,0-0.2,0-0.3,0.1
		c-0.1,0.1-0.2,0.3-0.1,0.4C36.5,36,36.6,36.1,36.7,36z"/>
	<ellipse transform="matrix(0.7122 -0.702 0.702 0.7122 -14.3877 36.1731)" class="st11" cx="36.9" cy="35.6" rx="0.1" ry="0.1"/>
	<ellipse transform="matrix(0.7122 -0.702 0.702 0.7122 -19.0493 29.9135)" class="st9" cx="27" cy="38.2" rx="0.5" ry="0.4"/>
	<polygon class="st9" points="27.3,37.8 27.6,38.1 26.8,38.8 26.5,38.5 	"/>
	<ellipse transform="matrix(0.7122 -0.702 0.702 0.7122 -19.1604 30.1582)" class="st9" cx="27.2" cy="38.4" rx="0.5" ry="0.4"/>
	<path class="st10" d="M27.1,38.8C27.1,38.8,27,38.8,27.1,38.8c-0.2-0.2-0.2-0.4,0-0.5c0.1-0.1,0.2-0.1,0.3-0.1
		c-0.1,0-0.3,0-0.4,0.1c-0.2,0.2-0.2,0.4-0.1,0.5C26.9,38.8,27,38.8,27.1,38.8z"/>
	<ellipse transform="matrix(0.7122 -0.702 0.702 0.7122 -18.9964 30.2534)" class="st11" cx="27.4" cy="38.3" rx="0.1" ry="0.1"/>
	<ellipse transform="matrix(0.7122 -0.702 0.702 0.7122 -19.4469 30.4469)" class="st9" cx="27.4" cy="38.9" rx="0.5" ry="0.4"/>
	<polygon class="st9" points="27.8,38.5 28.1,38.9 27.3,39.6 27,39.2 	"/>
	<ellipse transform="matrix(0.7122 -0.702 0.702 0.7122 -19.5579 30.6917)" class="st9" cx="27.6" cy="39.2" rx="0.5" ry="0.4"/>
	<path class="st10" d="M27.5,39.6C27.5,39.5,27.5,39.5,27.5,39.6c-0.2-0.2-0.2-0.4,0-0.5c0.1-0.1,0.2-0.1,0.3-0.1
		c-0.1,0-0.3,0-0.4,0.1c-0.2,0.2-0.2,0.4-0.1,0.5C27.4,39.5,27.5,39.6,27.5,39.6z"/>
	<ellipse transform="matrix(0.7122 -0.702 0.702 0.7122 -19.394 30.7869)" class="st11" cx="27.8" cy="39" rx="0.1" ry="0.1"/>
	<ellipse transform="matrix(0.7122 -0.702 0.702 0.7122 -18.6017 29.6164)" class="st9" cx="26.8" cy="37.5" rx="0.5" ry="0.4"/>
	<polygon class="st9" points="27.2,37.1 27.5,37.4 26.7,38.1 26.4,37.8 	"/>
	<ellipse transform="matrix(0.7122 -0.702 0.702 0.7122 -18.7128 29.8611)" class="st9" cx="27.1" cy="37.8" rx="0.5" ry="0.4"/>
	<path class="st10" d="M27,38.1C26.9,38.1,26.9,38.1,27,38.1c-0.2-0.2-0.2-0.4,0-0.5c0.1-0.1,0.2-0.1,0.3-0.1c-0.1,0-0.3,0-0.4,0.1
		c-0.2,0.2-0.2,0.4-0.1,0.5C26.8,38.1,26.9,38.1,27,38.1z"/>
	<ellipse transform="matrix(0.7122 -0.702 0.702 0.7122 -18.5488 29.9563)" class="st11" cx="27.3" cy="37.6" rx="0.1" ry="0.1"/>
	<ellipse transform="matrix(0.7122 -0.702 0.702 0.7122 -17.8643 29.3649)" class="st9" cx="26.9" cy="36.5" rx="0.5" ry="0.4"/>
	<polygon class="st9" points="27.2,36.1 27.6,36.4 26.7,37.1 26.4,36.8 	"/>
	<ellipse transform="matrix(0.7122 -0.702 0.702 0.7122 -17.9753 29.6096)" class="st9" cx="27.1" cy="36.7" rx="0.5" ry="0.4"/>
	<path class="st10" d="M27,37.1C27,37.1,27,37.1,27,37.1c-0.2-0.2-0.2-0.4,0-0.5c0.1-0.1,0.2-0.1,0.3-0.1c-0.1,0-0.3,0-0.4,0.1
		c-0.2,0.2-0.2,0.4-0.1,0.5C26.9,37.1,26.9,37.1,27,37.1z"/>
	<ellipse transform="matrix(0.7122 -0.702 0.702 0.7122 -17.8114 29.7048)" class="st11" cx="27.3" cy="36.6" rx="0.1" ry="0.1"/>
	<ellipse transform="matrix(0.7122 -0.702 0.702 0.7122 -19.7795 30.9526)" class="st9" cx="27.9" cy="39.6" rx="0.4" ry="0.3"/>
	<polygon class="st9" points="28.1,39.3 28.4,39.5 27.7,40.1 27.5,39.8 	"/>
	<ellipse transform="matrix(0.7122 -0.702 0.702 0.7122 -19.8668 31.145)" class="st9" cx="28" cy="39.8" rx="0.4" ry="0.3"/>
	<path class="st10" d="M28,40.1C27.9,40.1,27.9,40.1,28,40.1c-0.1-0.1-0.1-0.3,0-0.4c0.1-0.1,0.1-0.1,0.2-0.1c-0.1,0-0.2,0-0.3,0.1
		c-0.1,0.1-0.2,0.3-0.1,0.4C27.8,40.1,27.9,40.1,28,40.1z"/>
	<ellipse transform="matrix(0.7122 -0.702 0.702 0.7122 -19.7379 31.2199)" class="st11" cx="28.2" cy="39.7" rx="0.1" ry="0"/>
	<ellipse transform="matrix(0.7122 -0.702 0.702 0.7122 -19.8147 31.5115)" class="st9" cx="28.5" cy="39.9" rx="0.4" ry="0.3"/>
	<polygon class="st9" points="28.8,39.6 29,39.9 28.4,40.4 28.2,40.2 	"/>
	<ellipse transform="matrix(0.7122 -0.702 0.702 0.7122 -19.902 31.704)" class="st9" cx="28.7" cy="40.1" rx="0.4" ry="0.3"/>
	<path class="st10" d="M28.6,40.4C28.6,40.4,28.6,40.4,28.6,40.4c-0.1-0.1-0.1-0.3,0-0.4c0.1-0.1,0.1-0.1,0.2-0.1
		c-0.1,0-0.2,0-0.3,0.1c-0.1,0.1-0.2,0.3-0.1,0.4C28.5,40.4,28.6,40.4,28.6,40.4z"/>
	<ellipse transform="matrix(0.7122 -0.702 0.702 0.7122 -19.7731 31.7789)" class="st11" cx="28.9" cy="40" rx="0.1" ry="0"/>
	<ellipse transform="matrix(0.7122 -0.702 0.702 0.7122 -19.8011 32.022)" class="st9" cx="29.1" cy="40.2" rx="0.4" ry="0.3"/>
	<polygon class="st9" points="29.4,39.8 29.7,40.1 29,40.7 28.8,40.4 	"/>
	<ellipse transform="matrix(0.7122 -0.702 0.702 0.7122 -19.8884 32.2145)" class="st9" cx="29.3" cy="40.4" rx="0.4" ry="0.3"/>
	<path class="st10" d="M29.3,40.6C29.2,40.6,29.2,40.6,29.3,40.6c-0.1-0.1-0.1-0.3,0-0.4c0.1-0.1,0.1-0.1,0.2-0.1
		c-0.1,0-0.2,0-0.3,0.1c-0.1,0.1-0.2,0.3-0.1,0.4C29.1,40.6,29.2,40.7,29.3,40.6z"/>
	<ellipse transform="matrix(0.7122 -0.702 0.702 0.7122 -19.7595 32.2893)" class="st11" cx="29.5" cy="40.2" rx="0.1" ry="0"/>
	<ellipse transform="matrix(0.7122 -0.702 0.702 0.7122 -19.4412 33.0395)" class="st9" cx="30.6" cy="40.2" rx="0.4" ry="0.3"/>
	<polygon class="st9" points="30.9,39.9 31.1,40.2 30.5,40.7 30.2,40.5 	"/>
	<ellipse transform="matrix(0.7122 -0.702 0.702 0.7122 -19.5286 33.232)" class="st9" cx="30.8" cy="40.4" rx="0.4" ry="0.3"/>
	<path class="st10" d="M30.7,40.7C30.7,40.7,30.6,40.7,30.7,40.7c-0.1-0.1-0.1-0.3,0-0.4c0.1-0.1,0.1-0.1,0.2-0.1
		c-0.1,0-0.2,0-0.3,0.1c-0.1,0.1-0.2,0.3-0.1,0.4C30.5,40.7,30.6,40.7,30.7,40.7z"/>
	<ellipse transform="matrix(0.7122 -0.702 0.702 0.7122 -19.3996 33.3069)" class="st11" cx="30.9" cy="40.3" rx="0.1" ry="0"/>
	<ellipse transform="matrix(0.7122 -0.702 0.702 0.7122 -19.6584 32.5664)" class="st9" cx="29.9" cy="40.3" rx="0.4" ry="0.3"/>
	<polygon class="st9" points="30.2,39.9 30.4,40.2 29.8,40.8 29.5,40.5 	"/>
	<ellipse transform="matrix(0.7122 -0.702 0.702 0.7122 -19.7457 32.7589)" class="st9" cx="30.1" cy="40.5" rx="0.4" ry="0.3"/>
	<path class="st10" d="M30,40.7C30,40.7,30,40.7,30,40.7c-0.1-0.1-0.1-0.3,0-0.4c0.1-0.1,0.1-0.1,0.2-0.1c-0.1,0-0.2,0-0.3,0.1
		c-0.1,0.1-0.2,0.3-0.1,0.4C29.9,40.7,29.9,40.7,30,40.7z"/>
	<ellipse transform="matrix(0.7122 -0.702 0.702 0.7122 -19.6168 32.8338)" class="st11" cx="30.2" cy="40.3" rx="0.1" ry="0"/>
	<ellipse transform="matrix(0.7122 -0.702 0.702 0.7122 -19.1024 33.4706)" class="st9" cx="31.3" cy="40" rx="0.4" ry="0.3"/>
	<polygon class="st9" points="31.5,39.7 31.8,40 31.2,40.5 30.9,40.3 	"/>
	<ellipse transform="matrix(0.7122 -0.702 0.702 0.7122 -19.1897 33.663)" class="st9" cx="31.5" cy="40.2" rx="0.4" ry="0.3"/>
	<path class="st10" d="M31.4,40.5C31.4,40.5,31.3,40.5,31.4,40.5c-0.1-0.1-0.1-0.3,0-0.4c0.1-0.1,0.1-0.1,0.2-0.1
		c-0.1,0-0.2,0-0.3,0.1c-0.1,0.1-0.2,0.3-0.1,0.4C31.2,40.5,31.3,40.5,31.4,40.5z"/>
	<ellipse transform="matrix(0.7122 -0.702 0.702 0.7122 -19.0608 33.7379)" class="st11" cx="31.6" cy="40.1" rx="0.1" ry="0"/>
	<ellipse transform="matrix(0.7122 -0.702 0.702 0.7122 -18.6995 34.055)" class="st9" cx="32.2" cy="39.8" rx="0.4" ry="0.3"/>
	<polygon class="st9" points="32.5,39.5 32.7,39.8 32.1,40.3 31.8,40.1 	"/>
	<ellipse transform="matrix(0.7122 -0.702 0.702 0.7122 -18.7868 34.2475)" class="st9" cx="32.4" cy="40" rx="0.4" ry="0.3"/>
	<path class="st10" d="M32.3,40.3C32.3,40.3,32.2,40.3,32.3,40.3c-0.1-0.1-0.1-0.3,0-0.4c0.1-0.1,0.1-0.1,0.2-0.1
		c-0.1,0-0.2,0-0.3,0.1c-0.1,0.1-0.2,0.3-0.1,0.4C32.2,40.3,32.2,40.3,32.3,40.3z"/>
	<ellipse transform="matrix(0.7122 -0.702 0.702 0.7122 -18.6579 34.3223)" class="st11" cx="32.5" cy="39.9" rx="0.1" ry="0"/>
	<ellipse transform="matrix(0.7122 -0.702 0.702 0.7122 -18.2199 34.5633)" class="st9" cx="33" cy="39.5" rx="0.4" ry="0.3"/>
	<polygon class="st9" points="33.3,39.2 33.6,39.4 32.9,40 32.7,39.7 	"/>
	<ellipse transform="matrix(0.7122 -0.702 0.702 0.7122 -18.3073 34.7558)" class="st9" cx="33.2" cy="39.7" rx="0.4" ry="0.3"/>
	<path class="st10" d="M33.1,40C33.1,40,33.1,40,33.1,40c-0.1-0.1-0.1-0.3,0-0.4c0.1-0.1,0.1-0.1,0.2-0.1c-0.1,0-0.2,0-0.3,0.1
		c-0.1,0.1-0.2,0.3-0.1,0.4C33,40,33.1,40,33.1,40z"/>
	<ellipse transform="matrix(0.7122 -0.702 0.702 0.7122 -18.1783 34.8307)" class="st11" cx="33.4" cy="39.6" rx="0.1" ry="0"/>
	<ellipse transform="matrix(0.7122 -0.702 0.702 0.7122 -17.6549 34.9767)" class="st9" cx="33.8" cy="39" rx="0.4" ry="0.3"/>
	<polygon class="st9" points="34.1,38.7 34.4,39 33.7,39.5 33.5,39.3 	"/>
	<ellipse transform="matrix(0.7122 -0.702 0.702 0.7122 -17.7422 35.1692)" class="st9" cx="34" cy="39.2" rx="0.4" ry="0.3"/>
	<path class="st10" d="M33.9,39.5C33.9,39.5,33.9,39.5,33.9,39.5c-0.1-0.1-0.1-0.3,0-0.4C34,39,34.1,39,34.2,39
		c-0.1,0-0.2,0-0.3,0.1c-0.1,0.1-0.2,0.3-0.1,0.4C33.8,39.5,33.9,39.5,33.9,39.5z"/>
	<ellipse transform="matrix(0.7122 -0.702 0.702 0.7122 -17.6132 35.2441)" class="st11" cx="34.2" cy="39.1" rx="0.1" ry="0"/>
	<ellipse transform="matrix(0.7122 -0.702 0.702 0.7122 -17.0874 35.3779)" class="st9" cx="34.6" cy="38.5" rx="0.4" ry="0.3"/>
	<polygon class="st9" points="34.9,38.2 35.1,38.5 34.5,39 34.2,38.8 	"/>
	<ellipse transform="matrix(0.7122 -0.702 0.702 0.7122 -17.1747 35.5704)" class="st9" cx="34.8" cy="38.7" rx="0.4" ry="0.3"/>
	<path class="st10" d="M34.7,39C34.7,39,34.7,39,34.7,39c-0.1-0.1-0.1-0.3,0-0.4c0.1-0.1,0.1-0.1,0.2-0.1c-0.1,0-0.2,0-0.3,0.1
		c-0.1,0.1-0.2,0.3-0.1,0.4C34.6,39,34.6,39,34.7,39z"/>
	<ellipse transform="matrix(0.7122 -0.702 0.702 0.7122 -17.0458 35.6453)" class="st11" cx="34.9" cy="38.6" rx="0.1" ry="0"/>
	<ellipse transform="matrix(0.7122 -0.702 0.702 0.7122 -16.423 35.6486)" class="st9" cx="35.3" cy="37.9" rx="0.4" ry="0.3"/>
	<polygon class="st9" points="35.5,37.5 35.8,37.8 35.1,38.4 34.9,38.1 	"/>
	<ellipse transform="matrix(0.7122 -0.702 0.702 0.7122 -16.5103 35.8411)" class="st9" cx="35.5" cy="38.1" rx="0.4" ry="0.3"/>
	<path class="st10" d="M35.4,38.3C35.3,38.3,35.3,38.3,35.4,38.3c-0.1-0.1-0.1-0.3,0-0.4c0.1-0.1,0.1-0.1,0.2-0.1
		c-0.1,0-0.2,0-0.3,0.1c-0.1,0.1-0.2,0.3-0.1,0.4C35.2,38.3,35.3,38.3,35.4,38.3z"/>
	<ellipse transform="matrix(0.7122 -0.702 0.702 0.7122 -16.3814 35.916)" class="st11" cx="35.6" cy="37.9" rx="0.1" ry="0"/>
	<ellipse transform="matrix(0.7122 -0.702 0.702 0.7122 -15.8004 35.8353)" class="st9" cx="35.8" cy="37.2" rx="0.4" ry="0.3"/>
	<polygon class="st9" points="36.1,36.9 36.3,37.1 35.7,37.7 35.4,37.4 	"/>
	<ellipse transform="matrix(0.7122 -0.702 0.702 0.7122 -15.8877 36.0278)" class="st9" cx="36" cy="37.4" rx="0.4" ry="0.3"/>
	<path class="st10" d="M35.9,37.7C35.9,37.7,35.9,37.7,35.9,37.7c-0.1-0.1-0.1-0.3,0-0.4c0.1-0.1,0.1-0.1,0.2-0.1
		c-0.1,0-0.2,0-0.3,0.1c-0.1,0.1-0.2,0.3-0.1,0.4C35.8,37.7,35.8,37.7,35.9,37.7z"/>
	<ellipse transform="matrix(0.7122 -0.702 0.702 0.7122 -15.7588 36.1027)" class="st11" cx="36.1" cy="37.3" rx="0.1" ry="0"/>
	<ellipse transform="matrix(0.7122 -0.702 0.702 0.7122 -15.1933 35.9875)" class="st9" cx="36.3" cy="36.5" rx="0.4" ry="0.3"/>
	<polygon class="st9" points="36.6,36.2 36.8,36.5 36.2,37 35.9,36.8 	"/>
	<ellipse transform="matrix(0.7122 -0.702 0.702 0.7122 -15.2806 36.18)" class="st9" cx="36.5" cy="36.7" rx="0.4" ry="0.3"/>
	<path class="st10" d="M36.4,37C36.4,37,36.4,37,36.4,37c-0.1-0.1-0.1-0.3,0-0.4c0.1-0.1,0.1-0.1,0.2-0.1c-0.1,0-0.2,0-0.3,0.1
		c-0.1,0.1-0.2,0.3-0.1,0.4C36.3,37,36.3,37,36.4,37z"/>
	<ellipse transform="matrix(0.7122 -0.702 0.702 0.7122 -15.1517 36.2548)" class="st11" cx="36.6" cy="36.6" rx="0.1" ry="0"/>
	<path class="st1" d="M35.9,27.1l-12.1,2.2l-0.1-0.1l-0.1,0.1l-1.7,0.3l0.7,0.9L21,32.4l3.3,4.7c0.4-2.6,3.5,0.7,3.5,0.7
		s0.9,0.9,2.1-0.3c1.2-1.2,4-3.1,6.5-3.1c2.6,0,5.5,1.4,6.7,3.3l0.3-0.2L35.9,27.1z"/>
	<polygon class="st3" points="10.5,24.5 10.5,27 14.7,33.3 16.8,32.6 	"/>
	<polygon class="st5" points="9.1,18.8 9.1,22.6 16.3,33 16.3,29.1 	"/>
	<polygon class="st8" points="16.3,33 18.5,32.2 16.3,29.1 	"/>
	<polygon class="st2" points="14.7,33.3 14.7,30.9 16.1,32.8 	"/>
	<path class="st5" d="M28.5,33.8c-0.3,0-0.6-0.1-0.7-0.4L7.8,5.7C7.5,5.3,7.6,4.7,8,4.4c0.4-0.3,1-0.2,1.3,0.2l19.9,27.8
		c0.3,0.4,0.2,1-0.2,1.3C28.9,33.8,28.7,33.8,28.5,33.8z"/>
	<path class="st5" d="M21.6,19.8c-0.1,0-0.3-0.1-0.4-0.2L10.1,4.1C10,3.9,10,3.6,10.2,3.5c0.2-0.1,0.5-0.1,0.6,0.1l11.1,15.5
		c0.1,0.2,0.1,0.5-0.1,0.6C21.8,19.8,21.7,19.8,21.6,19.8z"/>
	<path class="st5" d="M28.2,28.9c-0.1,0-0.3-0.1-0.4-0.2l-4.5-6.3c-0.1-0.2-0.1-0.5,0.1-0.6c0.2-0.1,0.5-0.1,0.6,0.1l4.5,6.3
		c0.1,0.2,0.1,0.5-0.1,0.6C28.4,28.9,28.3,28.9,28.2,28.9z"/>
	<path class="st5" d="M21.6,29.4c-0.3,0-0.6-0.1-0.7-0.4L9.7,13.5c-0.3-0.4-0.2-1,0.2-1.3c0.4-0.3,1-0.2,1.3,0.2l11.1,15.5
		c0.3,0.4,0.2,1-0.2,1.3C21.9,29.3,21.8,29.4,21.6,29.4z"/>
</g>
</svg>
