<?xml version="1.0" encoding="utf-8"?>
<!-- Generator: Adobe Illustrator 23.1.1, SVG Export Plug-In . SVG Version: 6.00 Build 0)  -->
<svg version="1.1" id="Layer_1" xmlns="http://www.w3.org/2000/svg" xmlns:xlink="http://www.w3.org/1999/xlink" x="0px" y="0px"
	 viewBox="0 0 803 425" style="enable-background:new 0 0 803 425;" xml:space="preserve">
<style type="text/css">
	.st0{fill-rule:evenodd;clip-rule:evenodd;fill:#FFFFFF;}
	.st1{fill:none;}
</style>
<polygon id="Fill-1" class="st0" points="590,283 548.8,283 528,247.3 548.6,212 550,212.8 529.9,247.3 549.8,281.4 590,281.4 "/>
<path id="Fill-3" class="st0" d="M610.7,317.4h39.6l19.8-34.4l-19.8-34.4h-39.6L590.9,283L610.7,317.4z M651.2,319h-41.5L589,283
	l20.7-36h41.5l20.8,36L651.2,319z"/>
<polygon id="Fill-5" class="st0" points="670.6,354 651,318.8 652.4,318 672,353.2 "/>
<polygon id="Fill-7" class="st0" points="712.7,353 711.3,352.2 731.1,317.7 711,282.8 712.4,282 733,317.7 "/>
<polygon id="Fill-9" class="st0" points="712.4,284 711,283.2 731.6,247 733,247.8 "/>
<polygon id="Clip-12" class="st1" points="72,425 803,425 803,0 72,0 "/>
<polygon id="Fill-11" class="st0" points="732,318 776,318 776,316 732,316 "/>
<path id="Fill-14" class="st0" d="M522.3,167h-41.5L460,203l20.7,36h41.5l20.7-36L522.3,167z M521.2,168.8L541,203l-19.7,34.2h-39.5
	L462,203l19.7-34.2H521.2z"/>
<path id="Fill-16" class="st0" d="M614,246c0,1.7-1.3,3-3,3c-1.7,0-3-1.3-3-3c0-1.7,1.3-3,3-3C612.7,243,614,244.3,614,246"/>
<path id="Fill-18" class="st0" d="M735,246c0,1.7-1.3,3-3,3c-1.7,0-3-1.3-3-3c0-1.7,1.3-3,3-3C733.7,243,735,244.3,735,246"/>
<path id="Fill-20" class="st0" d="M674,354c0,1.7-1.3,3-3,3c-1.7,0-3-1.3-3-3c0-1.7,1.3-3,3-3C672.7,351,674,352.3,674,354"/>
<path id="Fill-22" class="st0" d="M614,317c0,1.7-1.3,3-3,3c-1.7,0-3-1.3-3-3s1.3-3,3-3C612.7,314,614,315.3,614,317"/>
<path id="Fill-24" class="st0" d="M776,317c0,1.7-1.3,3-3,3c-1.7,0-3-1.3-3-3c0-1.7,1.3-3,3-3C774.7,314,776,315.3,776,317"/>
<path id="Fill-26" class="st0" d="M735,317c0,1.7-1.3,3-3,3c-1.7,0-3-1.3-3-3c0-1.7,1.3-3,3-3C733.7,314,735,315.3,735,317"/>
<path id="Fill-28" class="st0" d="M533,246c0,1.7-1.3,3-3,3c-1.7,0-3-1.3-3-3c0-1.7,1.3-3,3-3C531.7,243,533,244.3,533,246"/>
<path id="Fill-30" class="st0" d="M553,212c0,1.7-1.3,3-3,3s-3-1.3-3-3c0-1.7,1.3-3,3-3S553,210.3,553,212"/>
<path id="Fill-33" class="st0" d="M177.2,96.8L174,95l0.6-1l3.2,1.8L177.2,96.8z M182.1,99.7l-3.2-1.8l0.6-1l3.2,1.8L182.1,99.7z
	 M187.1,102.5l-3.2-1.8l0.6-1l3.2,1.8L187.1,102.5z M192,105.4l-3.2-1.8l0.6-1l3.2,1.8L192,105.4z M196.9,108.2l-3.2-1.8l0.6-1
	l3.2,1.8L196.9,108.2z M201.9,111.1l-3.2-1.8l0.6-1l3.2,1.8L201.9,111.1z M206.8,114l-3.2-1.8l0.6-1l3.2,1.8L206.8,114z
	 M211.8,116.8l-3.2-1.8l0.6-1l3.2,1.8L211.8,116.8z M216.7,119.7l-3.2-1.8l0.6-1l3.2,1.8L216.7,119.7z M221.7,122.6l-3.2-1.8l0.6-1
	l3.2,1.8L221.7,122.6z M226.6,125.4l-3.2-1.8l0.6-1l3.2,1.8L226.6,125.4z M231.6,128.3l-3.2-1.8l0.6-1l3.2,1.8L231.6,128.3z
	 M236.5,131.1l-3.2-1.8l0.6-1l3.2,1.8L236.5,131.1z M241.4,134l-3.2-1.8l0.6-1l3.2,1.8L241.4,134z"/>
<path id="Fill-35" class="st0" d="M315.8,185.8l-0.6-1l3.2-1.8l0.6,1L315.8,185.8z M310.9,188.7l-0.6-1l3.2-1.8l0.6,1L310.9,188.7z
	 M306,191.5l-0.6-1l3.2-1.8l0.6,1L306,191.5z M301,194.4l-0.6-1l3.2-1.8l0.6,1L301,194.4z M296.1,197.2l-0.6-1l3.2-1.8l0.6,1
	L296.1,197.2z M291.1,200.1l-0.6-1l3.2-1.8l0.6,1L291.1,200.1z M286.2,203l-0.6-1l3.2-1.8l0.6,1L286.2,203z M281.2,205.8l-0.6-1
	l3.2-1.8l0.6,1L281.2,205.8z M276.3,208.7l-0.6-1l3.2-1.8l0.6,1L276.3,208.7z M271.3,211.5l-0.6-1l3.2-1.8l0.6,1L271.3,211.5z
	 M266.4,214.4l-0.6-1l3.2-1.8l0.6,1L266.4,214.4z M261.4,217.3l-0.6-1l3.2-1.8l0.6,1L261.4,217.3z M256.5,220.1l-0.6-1l3.2-1.8
	l0.6,1L256.5,220.1z M251.6,223l-0.6-1l3.2-1.8l0.6,1L251.6,223z"/>
<path id="Fill-37" class="st0" d="M239.1,51.8l-0.6-1l3.2-1.8l0.6,1L239.1,51.8z M254.6,52.3l-3.2-1.9l0.6-1l3.2,1.9L254.6,52.3z
	 M234,54.6l-0.6-1l3.2-1.8l0.6,1L234,54.6z M259.6,55.2l-3.2-1.9l0.6-1l3.2,1.9L259.6,55.2z M229,57.5l-0.6-1l3.2-1.8l0.6,1
	L229,57.5z M264.5,58.2l-3.2-1.9l0.6-1l3.2,1.9L264.5,58.2z M223.9,60.3l-0.6-1l3.2-1.8l0.6,1L223.9,60.3z M269.5,61.1l-3.2-1.9
	l0.6-1l3.2,1.9L269.5,61.1z M218.8,63.1l-0.6-1l3.2-1.8l0.6,1L218.8,63.1z M274.5,64.1l-3.2-1.9l0.6-1l3.2,1.9L274.5,64.1z
	 M213.8,66l-0.6-1l3.2-1.8l0.6,1L213.8,66z M279.5,67l-3.2-1.9l0.6-1l3.2,1.9L279.5,67z M208.7,68.8l-0.6-1l3.2-1.8l0.6,1
	L208.7,68.8z M284.5,69.9l-3.2-1.9l0.6-1l3.2,1.9L284.5,69.9z M203.6,71.6l-0.6-1l3.2-1.8l0.6,1L203.6,71.6z M289.5,72.9l-3.2-1.9
	l0.6-1l3.2,1.9L289.5,72.9z M198.6,74.5l-0.6-1l3.2-1.8l0.6,1L198.6,74.5z M294.5,75.8l-3.2-1.9l0.6-1l3.2,1.9L294.5,75.8z
	 M193.5,77.3l-0.6-1l3.2-1.8l0.6,1L193.5,77.3z M299.5,78.8l-3.2-1.9l0.6-1l3.2,1.9L299.5,78.8z M188.4,80.2l-0.6-1l3.2-1.8l0.6,1
	L188.4,80.2z M304.5,81.7l-3.2-1.9l0.6-1l3.2,1.9L304.5,81.7z M183.4,83l-0.6-1l3.2-1.8l0.6,1L183.4,83z M309.4,84.7l-3.2-1.9l0.6-1
	l3.2,1.9L309.4,84.7z M178.3,85.8l-0.6-1l3.2-1.8l0.6,1L178.3,85.8z M314.4,87.6l-3.2-1.9l0.6-1l3.2,1.9L314.4,87.6z M173.2,88.7
	l-0.6-1l3.2-1.8l0.6,1L173.2,88.7z M319.4,90.6l-3.2-1.9l0.6-1l3.2,1.9L319.4,90.6z M161.6,94.2l-0.4-1l3.3-1.4l0.4,1L161.6,94.2z
	 M156.4,96.4l-0.4-1l3.3-1.4l0.4,1L156.4,96.4z M151.1,98.5l-0.4-1l3.3-1.4l0.4,1L151.1,98.5z M145.9,100.7l-0.4-1l3.3-1.4l0.4,1
	L145.9,100.7z M140.7,102.8l-0.4-1l3.3-1.4l0.4,1L140.7,102.8z M135.4,105l-0.4-1l3.3-1.4l0.4,1L135.4,105z M130.2,107.1l-0.4-1
	l3.3-1.4l0.4,1L130.2,107.1z M125,109.3l-0.4-1l3.3-1.4l0.4,1L125,109.3z M119.7,111.4l-0.4-1l3.3-1.4l0.4,1L119.7,111.4z
	 M114.5,113.6l-0.4-1l3.3-1.4l0.4,1L114.5,113.6z M109.3,115.8l-0.4-1l3.3-1.4l0.4,1L109.3,115.8z M104,117.9l-0.4-1l3.3-1.4l0.4,1
	L104,117.9z M98.8,120.1l-0.4-1l3.3-1.4l0.4,1L98.8,120.1z M93.6,122.2l-0.4-1l3.3-1.4l0.4,1L93.6,122.2z M88.3,124.4l-0.4-1
	l3.3-1.4l0.4,1L88.3,124.4z M83.1,126.5l-0.4-1l3.3-1.4l0.4,1L83.1,126.5z M77.9,128.7l-0.4-1l3.3-1.4l0.4,1L77.9,128.7z
	 M72.7,130.8l-0.4-1l3.3-1.4l0.4,1L72.7,130.8z M67.4,133l-0.4-1l3.3-1.4l0.4,1L67.4,133z"/>
<path id="Fill-39" class="st0" d="M486.2,131.4l-0.8,0.7l0.8,0.8l0.8-0.7L486.2,131.4z M482.3,127.6l-0.8,0.7l2.5,2.5l0.8-0.7
	L482.3,127.6z M400,130.2h1.1v-3.5H400V130.2z M478.4,123.7l-0.8,0.7l2.5,2.5l0.8-0.7L478.4,123.7z M400,124.7h1.1v-3.5H400V124.7z
	 M474.4,119.8l-0.8,0.7l2.5,2.5l0.8-0.7L474.4,119.8z M470.5,115.9l-0.8,0.7l2.5,2.5l0.8-0.7L470.5,115.9z M400,119.3h1.1v-3.5H400
	V119.3z M466.6,112.1l-0.8,0.7l2.5,2.5l0.8-0.7L466.6,112.1z M400,113.8h1.1v-3.5H400V113.8z M462.7,108.2l-0.8,0.7l2.5,2.5l0.8-0.7
	L462.7,108.2z M400,108.4h1.1v-3.5H400V108.4z M458.8,104.3L458,105l2.5,2.5l0.8-0.7L458.8,104.3z M454.9,100.4l-0.8,0.7l2.5,2.5
	l0.8-0.7L454.9,100.4z M400,102.9h1.1v-3.5H400V102.9z M451,96.5l-0.8,0.7l2.5,2.5l0.8-0.7L451,96.5z M400,97.5h1.1V94H400V97.5z
	 M447.1,92.7l-0.8,0.7l2.5,2.5l0.8-0.7L447.1,92.7z M443.1,88.8l-0.8,0.7l2.5,2.5l0.8-0.7L443.1,88.8z M400,92h1.1v-3.5H400V92z
	 M439.2,84.9l-0.8,0.7l2.5,2.5l0.8-0.7L439.2,84.9z M400,86.6h1.1v-3.5H400V86.6z M435.3,81l-0.8,0.7l2.5,2.5l0.8-0.7L435.3,81z
	 M400,81.1h1.1v-3.5H400V81.1z M431.4,77.1l-0.8,0.7l2.5,2.5l0.8-0.7L431.4,77.1z M427.5,73.3l-0.8,0.7l2.5,2.5l0.8-0.7L427.5,73.3z
	 M400,75.7h1.1v-3.5H400V75.7z M423.6,69.4l-0.8,0.7l2.5,2.5l0.8-0.7L423.6,69.4z M400,70.2h1.1v-3.5H400V70.2z M419.7,65.5
	l-0.8,0.7l2.5,2.5l0.8-0.7L419.7,65.5z M415.8,61.6l-0.8,0.7l2.5,2.5l0.8-0.7L415.8,61.6z M400,64.8h1.1v-3.5H400V64.8z M411.8,57.7
	l-0.8,0.7l2.5,2.5l0.8-0.7L411.8,57.7z M400,59.3h1.1v-3.5H400V59.3z M407.9,53.9l-0.8,0.7l2.5,2.5l0.8-0.7L407.9,53.9z M400,53.9
	h1.1v-3.5H400V53.9z M404,50l-0.8,0.7l2.5,2.5l0.8-0.7L404,50z M400,46v2.4h0.9l0.9,0.9l0.8-0.7L400,46z"/>
<path id="Fill-41" class="st0" d="M91,48h3.6v-1H91V48z M96.7,48h3.6v-1h-3.6V48z M102.3,48h3.6v-1h-3.6V48z M108,48h3.6v-1H108V48z
	 M113.7,48h3.6v-1h-3.6V48z M119.4,48h3.6v-1h-3.6V48z M125,48h3.6v-1H125V48z M130.7,48h3.6v-1h-3.6V48z M136.4,48h3.6v-1h-3.6V48z
	"/>
<path id="Fill-43" class="st0" d="M239.7,141.8l-0.6-1l3.3-1.8l0.6,1L239.7,141.8z M234.7,144.7l-0.6-1l3.3-1.8l0.6,1L234.7,144.7z
	 M229.6,147.5l-0.6-1l3.3-1.8l0.6,1L229.6,147.5z M224.5,150.4l-0.6-1l3.3-1.8l0.6,1L224.5,150.4z M219.4,153.3l-0.6-1l3.3-1.8
	l0.6,1L219.4,153.3z M214.3,156.1l-0.6-1l3.3-1.8l0.6,1L214.3,156.1z M209.2,159l-0.6-1l3.3-1.8l0.6,1L209.2,159z M204.1,161.8
	l-0.6-1l3.3-1.8l0.6,1L204.1,161.8z M199,164.7l-0.6-1l3.3-1.8l0.6,1L199,164.7z M193.9,167.6l-0.6-1l3.3-1.8l0.6,1L193.9,167.6z
	 M188.8,170.4l-0.6-1l3.3-1.8l0.6,1L188.8,170.4z M183.7,173.3l-0.6-1l3.3-1.8l0.6,1L183.7,173.3z M178.6,176.1l-0.6-1l3.3-1.8
	l0.6,1L178.6,176.1z M173.6,179l-0.6-1l3.3-1.8l0.6,1L173.6,179z"/>
<polygon id="Fill-45" class="st0" points="222,93 170.2,93 144,47.8 169.9,3 171.3,3.8 145.8,47.8 171.1,91.4 222,91.4 "/>
<polygon id="Fill-47" class="st0" points="222.4,271 221,270.2 246.6,226 248,226.8 "/>
<path id="Fill-49" class="st0" d="M247.2,134.4h50.7l25.3-43.9l-25.3-43.9h-50.7l-25.3,43.9L247.2,134.4z M298.7,136h-52.5L220,90.5
	L246.2,45h52.5L325,90.5L298.7,136z"/>
<polygon id="Fill-51" class="st0" points="298.7,226 246.1,226 220,181.2 221.4,180.4 247,224.4 297.8,224.4 323.2,180.8 
	297.5,136.8 298.9,136 325,180.8 "/>
<polygon id="Fill-53" class="st0" points="221.9,182 169.3,182 143,136.5 169.3,91 221.5,91 221.5,92.6 170.2,92.6 144.8,136.5 
	170.2,180.4 221,180.4 246.6,136.1 248,136.9 "/>
<polygon id="Fill-55" class="st0" points="376.1,182 374.7,181.2 400.2,137.2 374.9,93.6 324,93.6 324,92 375.8,92 402,137.2 "/>
<polygon id="Fill-57" class="st0" points="377.4,91 376,90.2 401.6,46 403,46.8 "/>
<polygon id="Fill-59" class="st0" points="402,137 489,137 489,135 402,135 "/>
<polygon id="Fill-61" class="st0" points="0,137 144,137 144,135 0,135 "/>
<path id="Fill-63" class="st0" d="M224,181c0,1.7-1.3,3-3,3c-1.7,0-3-1.3-3-3s1.3-3,3-3C222.7,178,224,179.3,224,181"/>
<path id="Fill-65" class="st0" d="M173,181c0,1.7-1.3,3-3,3c-1.7,0-3-1.3-3-3s1.3-3,3-3C171.7,178,173,179.3,173,181"/>
<path id="Fill-67" class="st0" d="M224,269.5c0,1.4-1.3,2.5-3,2.5c-1.7,0-3-1.1-3-2.5c0-1.4,1.3-2.5,3-2.5
	C222.7,267,224,268.1,224,269.5"/>
<path id="Fill-69" class="st0" d="M249,135c0,1.7-1.3,3-3,3c-1.7,0-3-1.3-3-3s1.3-3,3-3C247.7,132,249,133.3,249,135"/>
<path id="Fill-71" class="st0" d="M249,224.5c0,1.4-1.3,2.5-3,2.5c-1.7,0-3-1.1-3-2.5s1.3-2.5,3-2.5C247.7,222,249,223.1,249,224.5"
	/>
<path id="Fill-73" class="st0" d="M302,135c0,1.7-1.3,3-3,3s-3-1.3-3-3s1.3-3,3-3S302,133.3,302,135"/>
<path id="Fill-75" class="st0" d="M302,46c0,1.7-1.3,3-3,3s-3-1.3-3-3s1.3-3,3-3S302,44.3,302,46"/>
<path id="Fill-77" class="st0" d="M249,46c0,1.7-1.3,3-3,3c-1.7,0-3-1.3-3-3s1.3-3,3-3C247.7,43,249,44.3,249,46"/>
<path id="Fill-79" class="st0" d="M405,135c0,1.7-1.3,3-3,3c-1.7,0-3-1.3-3-3s1.3-3,3-3C403.7,132,405,133.3,405,135"/>
<path id="Fill-81" class="st0" d="M493,135c0,1.7-1.3,3-3,3c-1.7,0-3-1.3-3-3s1.3-3,3-3C491.7,132,493,133.3,493,135"/>
<path id="Fill-83" class="st0" d="M146,135c0,1.7-1.3,3-3,3s-3-1.3-3-3s1.3-3,3-3S146,133.3,146,135"/>
<path id="Fill-88" class="st0" d="M224,91c0,1.7-1.3,3-3,3c-1.7,0-3-1.3-3-3s1.3-3,3-3C222.7,88,224,89.3,224,91"/>
<path id="Fill-90" class="st0" d="M173,91c0,1.7-1.3,3-3,3c-1.7,0-3-1.3-3-3s1.3-3,3-3C171.7,88,173,89.3,173,91"/>
<path id="Fill-92" class="st0" d="M380,91c0,1.7-1.3,3-3,3c-1.7,0-3-1.3-3-3s1.3-3,3-3C378.7,88,380,89.3,380,91"/>
<path id="Fill-94" class="st0" d="M405,46c0,1.7-1.3,3-3,3c-1.7,0-3-1.3-3-3s1.3-3,3-3C403.7,43,405,44.3,405,46"/>
<path id="Fill-96" class="st0" d="M328,91c0,1.7-1.3,3-3,3c-1.7,0-3-1.3-3-3s1.3-3,3-3C326.7,88,328,89.3,328,91"/>
<path id="Fill-98" class="st0" d="M302,224.5c0,1.4-1.3,2.5-3,2.5s-3-1.1-3-2.5s1.3-2.5,3-2.5S302,223.1,302,224.5"/>
<path id="Fill-100" class="st0" d="M328,181c0,1.7-1.3,3-3,3c-1.7,0-3-1.3-3-3s1.3-3,3-3C326.7,178,328,179.3,328,181"/>
<path id="Fill-102" class="st0" d="M380,181c0,1.7-1.3,3-3,3c-1.7,0-3-1.3-3-3s1.3-3,3-3C378.7,178,380,179.3,380,181"/>
<path id="Fill-104" class="st0" d="M146,46c0,1.7-1.3,3-3,3s-3-1.3-3-3s1.3-3,3-3S146,44.3,146,46"/>
<path id="Fill-106" class="st0" d="M173,3c0,1.7-1.3,3-3,3c-1.7,0-3-1.3-3-3s1.3-3,3-3C171.7,0,173,1.3,173,3"/>
<path id="Fill-109" class="st0" d="M273.3,70.1c-0.1-0.1-0.3-0.1-0.5,0c-0.2,0.1-0.3,0.3-0.3,0.4v4.2C263.3,75.3,256,83,256,92.2
	c0,4.3,1.6,8.4,4.5,11.7c0.1,0.1,0.2,0.2,0.3,0.2c0.1,0,0.2,0,0.3-0.1l4.1-3.2c0.1-0.1,0.2-0.2,0.2-0.3c0-0.1,0-0.3-0.1-0.4
	c-2.1-2.1-3.2-4.9-3.2-7.8c0-5.8,4.6-10.7,10.4-11.1v4.2c0,0.2,0.1,0.4,0.3,0.4c0.2,0.1,0.4,0.1,0.5-0.1l4.8-3.8c0,0,0.1,0,0.1-0.1
	l1.8-1.5l2.8-2.3c0.1-0.1,0.2-0.2,0.2-0.4s-0.1-0.3-0.2-0.4L273.3,70.1z"/>
<path id="Fill-111" class="st0" d="M286,79.1l-4.5,3.4c-0.1,0.1-0.2,0.2-0.2,0.4c0,0.1,0.1,0.3,0.2,0.4c2.4,2.1,3.7,5,3.7,8
	c0,6.1-5.2,10.9-11.5,11V98c0-0.2-0.1-0.4-0.3-0.4c-0.2-0.1-0.4-0.1-0.5,0.1l-4.8,3.6c-0.1,0-0.2,0.1-0.2,0.1c0,0,0,0,0,0l-4.5,3.3
	c-0.1,0.1-0.2,0.2-0.2,0.4c0,0.1,0.1,0.3,0.2,0.4l9.6,7.5c0.1,0.1,0.2,0.1,0.3,0.1c0.1,0,0.1,0,0.2,0c0.2-0.1,0.3-0.2,0.3-0.4v-4.1
	c10.1,0.1,18.4-7.6,18.4-17.2c0-4.6-1.9-8.9-5.3-12.1C286.5,79,286.2,79,286,79.1"/>
<path id="Fill-122" class="st0" d="M417.9,68.3l-0.3-8c0-0.5-0.2-2.4-1.7-2.9c-0.7-0.2-1.4-0.1-2,0.2l-0.1,0l0,0
	c-0.3-1-1-1.6-1.9-1.8c-1.2-0.2-2,0.2-2.4,0.6c-0.5-1-1.5-1.6-2.8-1.4c-1,0.1-1.7,0.6-2.2,1.3l-0.2-6.8c0-1.3-0.1-2.7-0.1-4
	c-0.2-1.4-1.3-2.5-2.8-2.5c-0.8,0-1.6,0.4-2.1,1c-0.6,0.6-0.6,1.4-0.6,2.3l0,3.3l0,9.1c-0.1,0.3,0.1,6.6,0.1,6.6
	c-0.5-0.5-1.1-1.1-1.7-1.7c-1.3-1.3-3.5-2.2-5-2.3c-0.8-0.1-1.4,0.1-1.8,0.4c-0.1,0.1-0.2,0.2-0.4,0.3c-0.7,0.8-1.3,2.1-0.7,3
	c0.2,0.4,0.6,0.6,1.1,0.9c0.6,0.4,1.5,0.7,2.3,1.6c1.2,1.5,4.1,4.9,5.8,6.7c0.4,0.2,1.1,0.9,1.5,1.1c1.1,0.7,2,1.3,2.3,1.6
	c0.2,0.3,1.7,1,1.7,1c1.1,0.7,3.2,1.3,5.6,1.2c2.4-0.1,4.5,0,6-1.5l0.1,0l0-0.1c1.6-1.6,2.5-3.7,2.4-6
	C418,70.8,417.9,68.7,417.9,68.3"/>
<path id="Fill-127" class="st0" d="M274,174c-6.3,0-12.3,2.5-16.9,7.2c-0.7,0.7-1.1,1.7-1.2,2.8c0,1.1,0.3,2.1,1,2.8
	c0.7,0.8,1.7,1.2,2.7,1.2c1,0,1.9-0.4,2.6-1.1c3.2-3.2,7.3-5,11.7-5c4.4,0,8.5,1.8,11.7,4.9c1.5,1.5,3.9,1.4,5.3-0.2
	c0.7-0.8,1.1-1.8,1-2.8c0-1.1-0.4-2-1.2-2.8C286.3,176.5,280.3,174,274,174"/>
<path id="Fill-129" class="st0" d="M298.8,169.6c-6.7-6.2-15.5-9.6-24.8-9.6c-9.3,0-18.1,3.4-24.9,9.7c-0.7,0.7-1.1,1.6-1.2,2.6
	c0,1,0.3,1.9,1,2.6c0.7,0.7,1.7,1.1,2.7,1.1c1,0,1.9-0.4,2.6-1c5.3-4.9,12.3-7.7,19.7-7.7c7.3,0,14.3,2.7,19.6,7.6
	c1.5,1.4,3.9,1.3,5.3-0.1c0.7-0.7,1.1-1.6,1-2.6C300,171.2,299.6,170.3,298.8,169.6"/>
<path id="Fill-131" class="st0" d="M274,188c-3.9,0-7,3.1-7,7c0,3.9,3.1,7,7,7c3.9,0,7-3.1,7-7C281,191.1,277.9,188,274,188"/>
<path id="Fill-134" class="st0" d="M191,50.1l-7.4,7.2c-0.4,0.4-0.9,0.7-1.4,0.7c-0.3,0-0.5,0-0.6-0.1l-4.2-4.1
	c-0.1-0.1-0.1-0.4-0.1-0.6c0-0.5,0.3-1,0.7-1.4l9.6-9.3c-0.1,1.9,0.6,3.6,1.9,4.9l2.2,2.1C191.4,49.7,191.2,49.9,191,50.1L191,50.1z
	 M201.5,38.6l-2.1-2l8-7.8c0.4-0.4,0.9-0.7,1.4-0.7c0.3,0,0.5,0,0.6,0.1l4.2,4.1c0.1,0.1,0.1,0.4,0.1,0.6c0,0.5-0.3,1-0.7,1.4
	l-9.6,9.3C203.5,41.6,202.8,39.8,201.5,38.6L201.5,38.6z M193.9,43.2c-0.1-0.1-0.1-0.4-0.1-0.6c0-0.5,0.3-1,0.7-1.4
	c0.2-0.2,0.3-0.3,0.4-0.5l2.2,2.1c0.1,0.1,0.1,0.4,0.1,0.6c0,0.5-0.3,1-0.7,1.4c-0.2,0.2-0.3,0.3-0.4,0.5L193.9,43.2z M218.1,28
	l-4.2-4.1c-1.4-1.3-3.4-2-5.5-1.9c-2,0.2-3.9,1-5.3,2.5l-8.1,7.8c-0.2,0.2-0.3,0.4-0.5,0.6c-0.8-0.2-1.8-0.3-2.7-0.3
	c-2,0.2-3.9,1-5.3,2.5l-12.9,12.5c-1.4,1.4-2.3,3.2-2.5,5.1c-0.2,2.1,0.5,4,1.9,5.4l4.2,4.1c1.3,1.2,3,1.9,4.8,1.9
	c0.3,0,0.5,0,0.7,0c1.9-0.2,3.8-1.1,5.2-2.5l7.4-7.2c0.4-0.4,0.7-0.9,0.8-1.4c0.8,0.3,1.6,0.4,2.4,0.4c2.2,0,4.3-0.9,6-2.5
	l12.9-12.5c1.4-1.4,2.3-3.2,2.5-5.1C220.2,31.3,219.5,29.4,218.1,28L218.1,28z"/>
<path id="Fill-136" class="st0" d="M694.7,336.4c0,0.8-0.6,1.5-1.4,1.5c-0.8,0-1.4-0.7-1.4-1.5c0-0.8,0.6-1.5,1.4-1.5
	c0.4,0,0.7,0.2,1,0.4C694.6,335.6,694.7,336,694.7,336.4 M704,305.8h-3.7c-1.1,0-2,0.9-2,2v3.9c0,1.1,0.8,2,1.8,2v5.1l-4.9,3.6
	v-21.1l0.8,1.1c0.6,0.9,1.9,1.1,2.7,0.5c0.4-0.3,0.7-0.8,0.8-1.3c0.1-0.5,0-1.1-0.3-1.5l-4.3-6.3c-0.4-0.5-0.9-0.8-1.6-0.8
	c-0.7,0-1.2,0.3-1.6,0.8l-4.3,6.3c-0.3,0.4-0.4,1-0.3,1.5c0.1,0.5,0.4,1,0.8,1.3c0.3,0.2,0.7,0.4,1.1,0.4c0.1,0,0.2,0,0.3,0
	c0.5-0.1,1-0.4,1.3-0.8l0.8-1.1v25l-4.6-3.3v-6.5c1-0.1,1.9-0.9,1.9-2v-3.9c0-1.1-0.9-2-2-2H683c-1.1,0-2,0.9-2,2v3.9
	c0,1.1,0.8,2,1.9,2v7.5c0,0.7,0.3,1.3,0.8,1.7l7.5,5.5c-1.9,0.9-3.3,2.8-3.3,5.1c0,3.1,2.4,5.6,5.4,5.6c3,0,5.4-2.5,5.4-5.6
	c0-1.5-0.6-2.9-1.6-3.9c-0.5-0.6-1.1-1-1.8-1.2v-3.9c0.2-0.1,0.3-0.1,0.4-0.2l7.6-5.5c0.5-0.4,0.8-1,0.8-1.7v-6.2c1,0,1.9-0.9,1.9-2
	v-3.9C706,306.7,705.1,305.8,704,305.8"/>
<path id="Fill-138" class="st0" d="M478.6,215c-0.5,0-1.1-0.3-1.3-0.7c-1.5-3.2-2.3-6.6-2.3-10c0-0.7,0.6-1.2,1.4-1.2
	c0.8,0,1.4,0.5,1.4,1.2c0,3.2,0.7,6.2,2.1,9.1c0.3,0.6,0,1.3-0.7,1.6C479,215,478.8,215,478.6,215"/>
<path id="Fill-140" class="st0" d="M523.3,216c-0.2,0-0.4,0-0.6-0.1c-0.7-0.3-1-0.9-0.6-1.5c1.1-2,1.9-4.2,2.2-6.4
	c0.1-0.6,0.8-1,1.5-1c0.7,0.1,1.2,0.6,1.2,1.2c-0.4,2.5-1.2,4.8-2.5,7.1C524.3,215.8,523.8,216,523.3,216"/>
<path id="Fill-142" class="st0" d="M525.8,204c-0.7,0-1.2-0.5-1.2-1.2c0-9.4-5.5-17.8-13.9-21.5c-0.6-0.3-0.9-1-0.6-1.6
	c0.3-0.6,1-0.9,1.6-0.6c9.3,4,15.4,13.3,15.4,23.7C527,203.5,526.5,204,525.8,204"/>
<path id="Fill-144" class="st0" d="M477.3,196c-0.1,0-0.3,0-0.4-0.1c-0.7-0.2-1-0.9-0.8-1.6c3.8-10.4,14.1-17.4,25.6-17.4
	c0.7,0,1.3,0.5,1.3,1.2c0,0.7-0.6,1.2-1.3,1.2c-10.5,0-19.8,6.3-23.2,15.7C478.3,195.7,477.8,196,477.3,196"/>
<path id="Fill-146" class="st0" d="M482.3,207c-0.6,0-1.1-0.5-1.2-1.1c-0.1-0.8-0.2-1.7-0.2-2.6c0-7.5,3.9-14.4,10.2-18.2
	c0.6-0.3,1.3-0.1,1.6,0.4c0.3,0.6,0.1,1.3-0.4,1.7c-5.6,3.3-9,9.5-9,16.1c0,0.8,0,1.5,0.1,2.3c0.1,0.7-0.4,1.3-1,1.4
	C482.4,207,482.4,207,482.3,207"/>
<path id="Fill-148" class="st0" d="M513.8,189c-0.3,0-0.5-0.1-0.7-0.3c-3.2-2.7-7-4.1-11.1-4.1c-0.9,0-1.8,0.1-2.6,0.2
	c-0.7,0.1-1.3-0.4-1.4-1.1c-0.1-0.7,0.4-1.4,1-1.5c1-0.2,2-0.2,3-0.2c4.6,0,8.9,1.6,12.6,4.7c0.5,0.4,0.6,1.3,0.2,1.8
	C514.5,188.8,514.2,189,513.8,189"/>
<path id="Fill-150" class="st0" d="M514.2,225c-0.3,0-0.5-0.1-0.7-0.3c-0.5-0.4-0.6-1.2-0.2-1.7c6.1-7.7,9-21.1,3.4-30.1
	c-0.4-0.6-0.2-1.3,0.3-1.7c0.5-0.4,1.3-0.2,1.6,0.4c2.9,4.6,4,10.7,3.1,17c-0.8,5.8-3.2,11.6-6.6,16
	C514.8,224.8,514.5,225,514.2,225"/>
<path id="Fill-152" class="st0" d="M502.9,212c-0.6,0-1-0.5-1.1-1.1c-0.1-2.2-0.4-4.4-0.9-6.4c-0.2-0.6,0.2-1.3,0.7-1.4
	c0.6-0.2,1.1,0.2,1.3,0.8c0.5,2.2,0.8,4.5,0.9,6.9C504,211.4,503.6,212,502.9,212C503,212,503,212,502.9,212"/>
<path id="Fill-154" class="st0" d="M499.3,229c-0.2,0-0.3,0-0.5-0.1c-0.7-0.3-1-1-0.7-1.7c1.8-4.2,2.9-8.7,3.2-13.1
	c0.1-0.7,0.7-1.2,1.4-1.2c0.7,0,1.3,0.7,1.2,1.4c-0.3,4.6-1.5,9.4-3.4,13.8C500.4,228.7,499.9,229,499.3,229"/>
<path id="Fill-156" class="st0" d="M482.2,219c-0.1,0-0.2,0-0.3,0c-0.6-0.2-1-0.8-0.8-1.5c0.6-2.3,0.8-4.7,0.5-7.2
	c-0.1-0.6,0.4-1.2,1-1.3c0.6-0.1,1.2,0.4,1.3,1c0.3,2.8,0.1,5.6-0.6,8.1C483.1,218.7,482.7,219,482.2,219"/>
<path id="Fill-158" class="st0" d="M516.8,204c-0.7,0-1.2-0.6-1.2-1.2c0-4.6-2.2-8.9-6-11.5c-0.6-0.4-0.7-1.2-0.3-1.7
	c0.4-0.6,1.1-0.7,1.7-0.3c4.4,3.1,7.1,8.1,7.1,13.5C518,203.4,517.4,204,516.8,204"/>
<path id="Fill-160" class="st0" d="M486.2,204c-0.7,0-1.2-0.5-1.2-1.2c0-8.7,7.3-15.8,16.2-15.8c0.6,0,1.1,0,1.7,0.1
	c0.7,0.1,1.2,0.7,1.1,1.3c-0.1,0.7-0.7,1.1-1.3,1.1c-0.5,0-0.9-0.1-1.4-0.1c-7.6,0-13.8,6-13.8,13.4
	C487.5,203.5,486.9,204,486.2,204"/>
<path id="Fill-162" class="st0" d="M485.9,224c-0.1,0-0.2,0-0.3-0.1c-0.5-0.2-0.7-0.9-0.5-1.6c0.7-2.7,1.1-5.4,1.1-8.3
	c0-1.9-0.2-3.7-0.5-5.5c-0.1-0.7,0.2-1.3,0.7-1.5c0.5-0.2,1,0.2,1.1,0.9c0.4,2,0.5,4,0.5,6.1c0,3.2-0.4,6.2-1.2,9.2
	C486.6,223.7,486.3,224,485.9,224"/>
<path id="Fill-164" class="st0" d="M505.2,228c-0.4,0-0.8-0.2-1-0.5c-0.4-0.5-0.2-1.3,0.3-1.7c6.1-4.1,10-10.4,11.1-17.8
	c0.1-0.6,0.7-1.1,1.4-1c0.7,0.1,1.1,0.7,1,1.3c-1.1,8-5.4,14.9-12.1,19.4C505.7,227.9,505.5,228,505.2,228"/>
<path id="Fill-166" class="st0" d="M493.2,200c-0.2,0-0.4,0-0.6-0.1c-0.6-0.3-0.8-1.1-0.5-1.7c1.9-3.8,5.7-6.2,9.9-6.2
	c2.8,0,5.5,1.1,7.5,3c0.5,0.5,0.5,1.3,0.1,1.8c-0.5,0.5-1.2,0.6-1.7,0.1c-1.6-1.5-3.7-2.3-5.9-2.3c-3.3,0-6.2,1.8-7.7,4.8
	C494.1,199.8,493.7,200,493.2,200"/>
<path id="Fill-168" class="st0" d="M492.1,217c-0.5,0-0.9-0.6-0.9-1.3c0-3.7-0.4-7.5-1.1-11c-0.1-0.7,0.2-1.4,0.7-1.6
	c0.5-0.2,1,0.2,1.2,0.9c0.8,3.8,1.1,7.8,1.2,11.7C493,216.4,492.6,217,492.1,217L492.1,217z"/>
<path id="Fill-170" class="st0" d="M490.9,227c-0.1,0-0.2,0-0.4-0.1c-0.4-0.3-0.6-1.1-0.4-1.8c0.6-1.9,1-3.9,1.2-6
	c0.1-0.7,0.5-1.2,1-1.1c0.5,0.1,0.8,0.8,0.7,1.5c-0.2,2.3-0.7,4.5-1.3,6.7C491.5,226.7,491.2,227,490.9,227"/>
<path id="Fill-172" class="st0" d="M512,210C512,210,511.9,210,512,210c-0.6,0-1-0.6-1-1.3c0.1-2.8-0.2-5.5-0.9-8.2
	c-0.2-0.6,0.1-1.3,0.6-1.5c0.5-0.2,1.1,0.1,1.3,0.7c0.9,2.9,1.2,6,1,9.1C512.9,209.5,512.5,210,512,210"/>
<path id="Fill-174" class="st0" d="M495.9,228c-0.1,0-0.3,0-0.4-0.1c-0.5-0.3-0.7-1.1-0.5-1.7c0.4-1.4,0.8-2.8,1.1-4.2
	c0.1-0.7,0.7-1.1,1.1-0.9c0.5,0.2,0.8,0.9,0.6,1.6c-0.3,1.6-0.7,3.1-1.2,4.6C496.6,227.7,496.3,228,495.9,228"/>
<path id="Fill-176" class="st0" d="M497.4,219c-0.1,0-0.1,0-0.2,0c-0.7-0.1-1.2-0.7-1.1-1.3c0.3-1.8,0.4-3.7,0.3-5.6
	c-0.1-0.9-0.2-1.8-0.3-2.7c-0.1-0.6,0.4-1.2,1.1-1.4c0.7-0.1,1.4,0.3,1.5,1c0.2,1,0.3,1.9,0.4,2.9c0.1,2,0,4.1-0.3,6.1
	C498.6,218.6,498,219,497.4,219"/>
<path id="Fill-178" class="st0" d="M506.8,213c-0.7,0-1.2-0.6-1.2-1.3c0-4.2-1.1-12.2-5.3-12.2c-2.1,0-3.9,1.8-3.9,4.1
	c0,0.1,0,0.2,0,0.2c0,0.7-0.5,1.3-1.1,1.3c-0.7,0-1.2-0.5-1.3-1.2c0-0.1,0-0.2,0-0.4c0-3.6,2.8-6.6,6.3-6.6c5.7,0,7.7,7.9,7.7,14.7
	C508,212.4,507.5,213,506.8,213"/>
<path id="Fill-180" class="st0" d="M505.4,222c-0.2,0-0.4,0-0.6-0.1c-0.7-0.3-1-1-0.7-1.6c1-2,1.8-4.1,2.2-6.3
	c0.1-0.6,0.8-1.1,1.6-1c0.7,0.1,1.3,0.7,1.1,1.4c-0.4,2.4-1.2,4.7-2.4,6.9C506.4,221.7,505.9,222,505.4,222"/>
<path id="Fill-183" class="st0" d="M748.6,199.8c4.8,0,8.7,3.8,8.7,8.6c0,4.7-3.9,8.6-8.7,8.6c-4.8,0-8.7-3.8-8.7-8.6
	C739.9,203.6,743.8,199.8,748.6,199.8 M769.3,229l-9.7-11.2c2.2-2.5,3.6-5.8,3.6-9.4c0-7.9-6.5-14.3-14.6-14.3
	c-8,0-14.6,6.4-14.6,14.3s6.5,14.3,14.6,14.3c2.2,0,4.2-0.5,6-1.3l10,11.5c0.6,0.7,1.4,1.1,2.4,1.1c0.7,0,1.4-0.3,2-0.7
	C770.2,232.2,770.4,230.3,769.3,229"/>
<path id="Fill-185" class="st0" d="M354.8,232.2c-28.3-0.1-51.4,22.8-51.6,51.1c-0.1,28.3,22.8,51.4,51.1,51.6
	c28.3,0.1,51.4-22.8,51.6-51.1C405.9,255.5,383,232.3,354.8,232.2 M354.2,341c-31.7-0.2-57.4-26.1-57.2-57.8
	c0.2-31.7,26.1-57.4,57.8-57.2c31.7,0.2,57.4,26.1,57.2,57.8C411.8,315.5,385.9,341.2,354.2,341"/>
<polygon id="Fill-191" class="st0" points="464,277.4 435,277.2 435,276.6 464,276.8 "/>
<polygon id="Fill-193" class="st0" points="478,299.5 420,299.2 420,298.5 478,298.8 "/>
<polygon id="Fill-195" class="st0" points="494,320.6 396,320 396,319.4 494,320 "/>
<path id="Fill-197" class="st0" d="M459,277.5c0-1.9,1.6-3.5,3.5-3.5c1.9,0,3.5,1.6,3.5,3.5c0,1.9-1.6,3.5-3.5,3.5
	C460.5,281,459,279.4,459,277.5"/>
<path id="Fill-199" class="st0" d="M475,300.5c0-1.9,1.6-3.5,3.5-3.5c1.9,0,3.5,1.6,3.5,3.5c0,1.9-1.6,3.5-3.5,3.5
	C476.5,304,475,302.4,475,300.5"/>
<path id="Fill-201" class="st0" d="M491,320.5c0-1.9,1.6-3.5,3.5-3.5c1.9,0,3.5,1.6,3.5,3.5c0,1.9-1.6,3.5-3.5,3.5
	C492.5,324,491,322.4,491,320.5"/>
<path id="Fill-203" class="st0" d="M365.8,270.7h-23v-5.1c0-6.1,5.2-11.1,11.5-11.1s11.5,5,11.5,11.1V270.7z M358.2,298.4
	c0,2.1-1.7,3.8-3.7,3.8s-3.7-1.7-3.7-3.8v-11.2c0-2.1,1.7-3.8,3.7-3.8s3.7,1.7,3.7,3.8V298.4z M377.3,270.7h-3.9v-5.1
	c0-10.3-8.5-18.6-19-18.6c-10.5,0-19,8.4-19,18.6v5.1h-3.6c-2.1,0-3.7,1.7-3.7,3.8v36.8c0,2.1,1.7,3.8,3.7,3.8h45.5
	c2.1,0,3.7-1.7,3.7-3.8v-36.8C381,272.4,379.3,270.7,377.3,270.7L377.3,270.7z"/>
<path id="Fill-206" class="st0" d="M616.3,104.1c0-1.5,1.2-2.7,2.7-2.7c1.5,0,2.7,1.2,2.7,2.7v8c0,1.5-1.2,2.7-2.7,2.7
	c-1.5,0-2.7-1.2-2.7-2.7V104.1z M602.7,124h32.6c1.5,0,2.7-1.2,2.7-2.7V94.9c0-1.5-1.2-2.7-2.7-2.7h-24.7v-2.8c0-4.4,3.7-8,8.2-8
	c3.6,0,6.9,2.3,7.9,5.7c0.2,0.6,0.6,1.1,1.2,1.3c0.6,0.2,1.2,0.2,1.8-0.1l1.1-0.6c0.9-0.5,1.3-1.5,0.9-2.5
	c-1.9-5.5-7.1-9.2-12.9-9.2c-7.5,0-13.6,6-13.6,13.4v2.8h-2.6c-1.5,0-2.7,1.2-2.7,2.7v26.4C600,122.8,601.2,124,602.7,124L602.7,124
	z"/>
<path id="Fill-208" class="st0" d="M584.2,68.6c0-0.3,0.1-0.5,0.4-0.6c11.4-4.5,23.4-6.7,35.5-6.7c12,0,24,2.2,35.5,6.7l0.4,0.1
	v58.4c0,0.2-0.1,0.4-0.3,0.5l-35.2,23.5c-0.2,0.1-0.5,0.1-0.7,0l-35.2-23.5c-0.2-0.1-0.3-0.3-0.3-0.5V68.6z M659.7,63.3
	c-0.3-0.3-0.6-0.5-0.9-0.6l-1.5-0.6c-24-9.4-50.4-9.4-74.4,0l-0.4,0.1c-2.7,1.1-4.5,3.6-4.5,6.6v58c0,2.2,1.1,4.2,2.9,5.4l35.7,23.8
	c1,0.7,2.2,1,3.4,1c1.2,0,2.4-0.3,3.4-1l35.6-23.7c1.9-1.3,3-3.4,3-5.6V66.3C662,64.8,661,63.6,659.7,63.3L659.7,63.3z"/>
<path id="Fill-211" class="st0" d="M732.7,245.4h39.6l19.8-34.4l-19.8-34.4h-39.6L712.9,211L732.7,245.4z M773.2,247h-41.5L711,211
	l20.7-36h41.5l20.8,36L773.2,247z"/>
<path id="Fill-214" class="st0" d="M214.5,190h-41L153,225l20.5,35h41l20.5-35L214.5,190z M213.5,191.8l19.5,33.2l-19.5,33.2h-38.9
	L155.1,225l19.5-33.2H213.5z"/>
<path id="Fill-216" class="st0" d="M210.5,217.2c0,2.2-1.8,4-4.1,4c-2.2,0-4.1-1.8-4.1-4c0-2.2,1.8-3.9,4.1-3.9
	C208.7,213.3,210.5,215,210.5,217.2 M215.5,214.7h-1c-0.1,0-0.2-0.1-0.2-0.1c-0.1-0.3-0.2-0.6-0.4-0.9c0-0.1,0-0.1,0-0.2l0.7-0.7
	c0.3-0.3,0.4-0.6,0.4-1c0-0.4-0.2-0.7-0.4-1l-1.6-1.5c-0.3-0.3-0.6-0.4-1-0.4l0,0c-0.4,0-0.8,0.1-1,0.4l-0.7,0.7
	c-0.1,0.1-0.2,0-0.2,0c-0.3-0.1-0.6-0.3-1-0.4c0,0-0.1-0.1-0.1-0.2v-1c0-0.8-0.7-1.4-1.5-1.4h-2.2c-0.8,0-1.5,0.6-1.5,1.4v1
	c0,0.1-0.1,0.1-0.1,0.2c-0.3,0.1-0.6,0.2-1,0.4c0,0-0.1,0.1-0.2,0l-0.7-0.7c-0.3-0.3-0.6-0.4-1-0.4s-0.8,0.1-1,0.4l-1.6,1.5
	c-0.6,0.5-0.6,1.4,0,2l0.7,0.7c0,0,0,0.1,0,0.2c-0.2,0.3-0.3,0.6-0.4,0.9c0,0-0.1,0.1-0.2,0.1h-1c-0.8,0-1.5,0.6-1.5,1.4v2.2
	c0,0.8,0.7,1.4,1.5,1.4h1c0.1,0,0.1,0,0.1,0.1c0.1,0.4,0.3,0.7,0.4,1c0,0,0,0.1,0,0.1l-0.7,0.7c-0.6,0.5-0.6,1.4,0,2l1.6,1.5
	c0.3,0.3,0.6,0.4,1,0.4l0,0c0.4,0,0.8-0.1,1-0.4l0.7-0.7c0,0,0.1-0.1,0.1,0c0.3,0.2,0.7,0.3,1.1,0.4c0.1,0,0.1,0.1,0.1,0.2v0.9
	c0,0.8,0.7,1.4,1.5,1.4h2.2c0.8,0,1.5-0.6,1.5-1.4v-0.9c0-0.1,0-0.1,0.1-0.2c0.4-0.1,0.7-0.3,1.1-0.4c0,0,0.1,0,0.1,0l0.7,0.7
	c0.3,0.3,0.6,0.4,1,0.4l0,0c0.4,0,0.8-0.1,1-0.4l1.6-1.5c0.3-0.3,0.4-0.6,0.4-1c0-0.4-0.2-0.7-0.4-1L214,221c0,0-0.1-0.1,0-0.1
	c0.2-0.3,0.3-0.7,0.4-1c0-0.1,0.1-0.1,0.1-0.1h1c0.8,0,1.5-0.6,1.5-1.4v-2.2C217,215.4,216.3,214.7,215.5,214.7 M189.3,230.1
	c0,3.2-2.7,5.7-5.9,5.7c-3.3,0-5.9-2.6-5.9-5.7c0-3.2,2.7-5.8,5.9-5.8C186.6,224.4,189.3,227,189.3,230.1 M196.5,226.5h-1.5
	c-0.2,0-0.2-0.2-0.2-0.2c-0.2-0.5-0.4-0.9-0.6-1.4c-0.1-0.1,0-0.2,0-0.3l1.1-1c0.4-0.4,0.6-0.9,0.6-1.5c0-0.6-0.2-1.1-0.6-1.5
	l-2.3-2.2c-0.4-0.4-0.9-0.6-1.5-0.6l0,0c-0.6,0-1.1,0.2-1.5,0.6l-1.1,1c-0.1,0.1-0.2,0-0.3,0c-0.4-0.2-0.9-0.4-1.4-0.6
	c0,0-0.2-0.1-0.2-0.2v-1.5c0-1.1-0.9-2.1-2.1-2.1h-3.3c-1.2,0-2.1,0.9-2.1,2.1v1.5c0,0.1-0.2,0.2-0.2,0.2c-0.5,0.2-0.9,0.3-1.4,0.6
	c0,0-0.2,0.1-0.3,0l-1.1-1c-0.4-0.4-0.9-0.6-1.5-0.6h0c-0.6,0-1.1,0.2-1.5,0.6l-2.3,2.2c-0.8,0.8-0.8,2.1,0,2.9l1.1,1
	c0,0,0.1,0.2,0,0.3c-0.2,0.4-0.4,0.9-0.6,1.4c0,0-0.1,0.2-0.2,0.2h-1.5c-1.2,0-2.1,0.9-2.1,2.1v3.2c0,1.1,0.9,2.1,2.1,2.1h1.4
	c0.1,0,0.2,0.1,0.2,0.1c0.2,0.5,0.4,1,0.6,1.5c0,0.1,0,0.1,0,0.2l-1,1c-0.8,0.8-0.8,2.1,0,2.9l2.3,2.2c0.4,0.4,0.9,0.6,1.5,0.6l0,0
	c0.6,0,1.1-0.2,1.5-0.6l1-1c0.1-0.1,0.1-0.1,0.2,0c0.5,0.2,1,0.5,1.6,0.6c0.1,0,0.1,0.1,0.1,0.2v1.4c0,1.1,0.9,2.1,2.1,2.1h3.3
	c1.2,0,2.1-0.9,2.1-2.1v-1.4c0-0.1,0.1-0.2,0.2-0.2c0.5-0.2,1.1-0.4,1.6-0.6c0.1,0,0.1,0,0.2,0l1,1c0.4,0.4,0.9,0.6,1.5,0.6l0,0
	c0.6,0,1.1-0.2,1.5-0.6l2.3-2.2c0.4-0.4,0.6-0.9,0.6-1.5c0-0.5-0.2-1.1-0.6-1.5l-1-1c-0.1-0.1-0.1-0.1,0-0.2c0.3-0.5,0.5-1,0.6-1.5
	c0-0.1,0.1-0.1,0.2-0.1h1.4c1.2,0,2.1-0.9,2.1-2.1v-3.2C198.7,227.4,197.7,226.5,196.5,226.5"/>
<path id="Fill-219" class="st0" d="M732.1,175.5l-0.9,1.6l-19.9,34.4h-39.8l-15.6-27l-3.9-6.8l-0.4-0.6l-0.7-1.2h-37.6
	c-0.3-1.1-1.3-1.9-2.6-1.9c-1.5,0-2.7,1.2-2.7,2.7c0,1.5,1.2,2.7,2.7,2.7c1.1,0,2.1-0.7,2.5-1.7h36.7l19.9,34.4l-19.9,34.4h-39.8
	l-0.1-0.2v1.8h40.9l20.2-34.8h41.2l20.9-36L732.1,175.5z"/>
<path id="Fill-221" class="st0" d="M325.2,89.4h50.7L401.2,46L375.8,2.6h-50.7L299.8,46L325.2,89.4z M376.8,91h-52.5L298,46l26.2-45
	h52.5L403,46L376.8,91z"/>
<path id="Fill-223" class="st0" d="M169.2,358.4h50.7l25.3-43.4l-25.3-43.4h-50.7L143.8,315L169.2,358.4z M220.8,360h-52.5L142,315
	l26.2-45h52.5l26.2,45L220.8,360z"/>
<path id="Fill-225" class="st0" d="M480.2,89.4h50.7L556.2,46L530.8,2.6h-50.7L454.8,46L480.2,89.4z M531.8,91h-52.5L453,46l26.3-45
	h52.5L558,46L531.8,91z"/>
<path id="Fill-227" class="st0" d="M480.2,370.4h50.7l25.3-43.4l-25.3-43.4h-50.7L454.8,327L480.2,370.4z M531.8,372h-52.5L453,327
	l26.3-45h52.5l26.2,45L531.8,372z"/>
<path id="Fill-229" class="st0" d="M590.2,422.4h50.7l25.3-43.4l-25.3-43.4h-50.7L564.8,379L590.2,422.4z M641.8,424h-52.5L563,379
	l26.3-45h52.5l26.2,45L641.8,424z"/>
</svg>
