<?xml version="1.0" encoding="utf-8"?>
<!-- Generator: Adobe Illustrator 23.1.1, SVG Export Plug-In . SVG Version: 6.00 Build 0)  -->
<svg version="1.1" id="Layer_1" xmlns="http://www.w3.org/2000/svg" xmlns:xlink="http://www.w3.org/1999/xlink" x="0px" y="0px"
	 viewBox="0 0 181.3 110.7" style="enable-background:new 0 0 181.3 110.7;" xml:space="preserve">
<style type="text/css">
	.st0{fill:url(#SVGID_1_);}
	.st1{fill:url(#SVGID_2_);}
	.st2{fill:url(#SVGID_3_);}
</style>
<g>
	
		<linearGradient id="SVGID_1_" gradientUnits="userSpaceOnUse" x1="21.6556" y1="92.8" x2="21.6556" y2="17.4" gradientTransform="matrix(1 0 0 -1 0 112)">
		<stop  offset="1.899388e-02" style="stop-color:#327ABE"/>
		<stop  offset="0.6" style="stop-color:#327ABE"/>
		<stop  offset="0.7" style="stop-color:#51C8EB"/>
		<stop  offset="0.8" style="stop-color:#51C8EB"/>
		<stop  offset="0.9" style="stop-color:#327ABE"/>
		<stop  offset="1" style="stop-color:#327ABE"/>
	</linearGradient>
	<path class="st0" d="M36.8,75.3c2.4-8-5.8-16.3-14.4-25c-9.7-9.6-19.6-19.6-17-29.8l-4.8-1.3c-3.4,13,8.1,24.5,18.2,34.6
		c8,8,15.5,15.5,12.7,21c-4.6,0.9-8.2,4.9-8.2,9.8c0,5.5,4.5,10,10,10s10-4.5,10-10C43.4,80.3,40.6,76.7,36.8,75.3z M33.4,90.7
		c-3.3,0-6-2.7-6-6s2.7-6,6-6s6,2.7,6,6S36.7,90.7,33.4,90.7z"/>
	
		<linearGradient id="SVGID_2_" gradientUnits="userSpaceOnUse" x1="92.7515" y1="87" x2="92.7515" y2="1.3" gradientTransform="matrix(1 0 0 -1 0 112)">
		<stop  offset="1.899388e-02" style="stop-color:#327ABE"/>
		<stop  offset="0.6" style="stop-color:#327ABE"/>
		<stop  offset="0.7" style="stop-color:#51C8EB"/>
		<stop  offset="0.8" style="stop-color:#51C8EB"/>
		<stop  offset="0.9" style="stop-color:#327ABE"/>
		<stop  offset="1" style="stop-color:#327ABE"/>
	</linearGradient>
	<path class="st1" d="M100.2,91.2c3.1-9.3-2.3-13.2-7-16.8c-7.5-5.6-16.9-12.5-0.5-47.3L88.1,25c-18.2,38.5-6.5,47.1,2,53.4
		C95,82,97.7,84.1,95,90.9c-4.6,0.9-8,5-8,9.8c0,5.5,4.5,10,10,10s10-4.5,10-10C106.9,96.3,104.1,92.6,100.2,91.2z M96.9,106.7
		c-3.3,0-6-2.7-6-6s2.7-6,6-6s6,2.7,6,6S100.2,106.7,96.9,106.7z"/>
	
		<linearGradient id="SVGID_3_" gradientUnits="userSpaceOnUse" x1="165.0016" y1="112" x2="165.0016" y2="27.3" gradientTransform="matrix(1 0 0 -1 0 112)">
		<stop  offset="1.899388e-02" style="stop-color:#327ABE"/>
		<stop  offset="0.6" style="stop-color:#327ABE"/>
		<stop  offset="0.7" style="stop-color:#51C8EB"/>
		<stop  offset="0.8" style="stop-color:#51C8EB"/>
		<stop  offset="0.9" style="stop-color:#327ABE"/>
		<stop  offset="1" style="stop-color:#327ABE"/>
	</linearGradient>
	<path class="st2" d="M170.6,0l-3.8,3.3c16.7,19.3,8.1,30.5-1,42.3c-4.9,6.4-9.5,12.4-9.6,19.4c-4.3,1.1-7.5,5-7.5,9.7
		c0,5.5,4.5,10,10,10s10-4.5,10-10c0-4.7-3.2-8.6-7.5-9.7c0.1-5.4,4.2-10.7,8.5-16.4C178.8,37,190,22.4,170.6,0z M164.7,74.7
		c0,3.3-2.7,6-6,6s-6-2.7-6-6s2.7-6,6-6S164.7,71.4,164.7,74.7z"/>
</g>
</svg>
