<?xml version="1.0" encoding="utf-8"?>
<!-- Generator: Adobe Illustrator 23.0.1, SVG Export Plug-In . SVG Version: 6.00 Build 0)  -->
<svg version="1.1" id="Layer_1" xmlns="http://www.w3.org/2000/svg" xmlns:xlink="http://www.w3.org/1999/xlink" x="0px" y="0px"
	 viewBox="0 0 55.05 55.05" style="enable-background:new 0 0 55.05 55.05;" xml:space="preserve">
<style type="text/css">
	.st0{fill:#1395D3;}
</style>
<path class="st0" d="M55.05,30.88v-6.7L49,21.86c-0.5-1.92-1.26-3.78-2.28-5.53l2.63-5.9l-4.74-4.74l-5.9,2.63
	c-1.75-1.02-3.61-1.78-5.53-2.28L30.88,0h-6.7l-2.31,6.04c-1.92,0.5-3.78,1.26-5.53,2.28l-5.9-2.63l-4.74,4.74l2.63,5.9
	c-1.02,1.75-1.78,3.61-2.28,5.53L0,24.17v6.7l6.04,2.31c0.5,1.92,1.26,3.78,2.28,5.53l-2.63,5.9l4.74,4.74l5.9-2.63
	c1.75,1.02,3.61,1.78,5.53,2.28l2.31,6.04h6.7L33.19,49c1.92-0.5,3.78-1.26,5.53-2.28l5.9,2.63l4.74-4.74l-2.63-5.9
	c1.02-1.75,1.78-3.61,2.28-5.53L55.05,30.88z M15.94,15.94c3.19-3.2,7.39-4.79,11.59-4.79c4.2,0,8.39,1.6,11.59,4.79
	c5.44,5.44,6.24,13.77,2.43,20.07l-5.49-3.81c2.02-3.69,1.48-8.42-1.65-11.55c-3.1-3.1-7.76-3.67-11.44-1.71l5.3,5.3
	c0.63,0.63,0.28,3.25-0.25,3.78c-0.53,0.53-3.15,0.88-3.78,0.25l-5.3-5.3c-1.95,3.68-1.38,8.34,1.71,11.44
	c3.13,3.13,7.85,3.68,11.55,1.65l3.81,5.49c-6.3,3.81-14.63,3-20.07-2.43C9.55,32.72,9.55,22.33,15.94,15.94z"/>
</svg>
