<?xml version="1.0" encoding="utf-8"?>
<!-- Generator: Adobe Illustrator 23.0.1, SVG Export Plug-In . SVG Version: 6.00 Build 0)  -->
<svg version="1.1" id="Layer_1" xmlns="http://www.w3.org/2000/svg" xmlns:xlink="http://www.w3.org/1999/xlink" x="0px" y="0px"
	 viewBox="0 0 46.67 46.67" style="enable-background:new 0 0 46.67 46.67;" xml:space="preserve" preserveAspectRatio="xMinYMid">
<style type="text/css">
	.st0{fill-rule:evenodd;clip-rule:evenodd;fill:#FFFFFF;}
</style>
<g>
	<g>
		<polygon class="st0" points="24.83,40.93 24.83,24.83 40.93,24.83 36.77,28.99 38.89,31.11 46.67,23.33 38.89,15.56 36.77,17.68 
			40.93,21.83 24.83,21.83 24.83,5.74 28.99,9.9 31.11,7.78 23.33,0 15.56,7.78 17.68,9.9 21.83,5.74 21.83,21.83 5.74,21.83 
			9.9,17.68 7.78,15.56 0,23.33 7.78,31.11 9.9,28.99 5.74,24.83 21.83,24.83 21.83,40.93 17.68,36.77 15.56,38.89 23.33,46.67 
			31.11,38.89 28.99,36.77 		"/>
	</g>
</g>
</svg>
