<?xml version="1.0" encoding="utf-8"?>
<!-- Generator: Adobe Illustrator 23.0.1, SVG Export Plug-In . SVG Version: 6.00 Build 0)  -->
<svg version="1.1" id="Layer_1" xmlns="http://www.w3.org/2000/svg" xmlns:xlink="http://www.w3.org/1999/xlink" x="0px" y="0px"
	 viewBox="0 0 76.09 67" style="enable-background:new 0 0 76.09 67;" xml:space="preserve">
<style type="text/css">
	.st0{fill:#1395D3;}
</style>
<g>
	<path class="st0" d="M72.57,41.04c-1.94,0-3.52-1.58-3.52-3.52c0-1.94,1.58-3.52,3.52-3.52c1.94,0,3.52,1.58,3.52,3.52
		C76.09,39.46,74.51,41.04,72.57,41.04z M72.57,35.41c-1.17,0-2.12,0.95-2.12,2.12c0,1.17,0.95,2.12,2.12,2.12
		c1.17,0,2.11-0.95,2.11-2.12C74.69,36.36,73.74,35.41,72.57,35.41z"/>
	<path class="st0" d="M62.47,21.02c-1.94,0-3.52-1.58-3.52-3.51s1.58-3.52,3.52-3.52s3.52,1.58,3.52,3.52S64.41,21.02,62.47,21.02z
		 M62.47,15.39c-1.17,0-2.12,0.95-2.12,2.12c0,1.16,0.95,2.11,2.12,2.11c1.17,0,2.11-0.95,2.11-2.11
		C64.58,16.34,63.64,15.39,62.47,15.39z"/>
	<path class="st0" d="M26.66,25.78c-5.69,0.6-10.38,4.66-10.38,10.38s4.66,10.38,10.38,10.38h26.57c4.76,0,8.63-3.87,8.63-8.63
		c0-2.48-1.26-8.22-6-8.57c-1.24,3.25-5.47,2.72-5.47,2.72s2.91-1.03,3.97-2.73c1.05-1.72,1.7-4.77,0.01-7.84
		c-1.56-2.84-8.74-5.64-13.94-4.55c-10.63,2.23-9.8,7.18-9.8,7.18s2.68,1.06,4.14,2.27c4.3,2.89,0.93,7.14,0.93,7.14
		S36.72,24.71,26.66,25.78z"/>
	<polygon class="st0" points="63.17,26.9 49.13,26.9 49.13,25.5 61.77,25.5 61.77,20.32 63.17,20.32 	"/>
	<rect x="45.3" y="36.83" class="st0" width="24.46" height="1.4"/>
	<g>
		<rect x="44.59" y="6.07" class="st0" width="1.4" height="30.57"/>
		<path class="st0" d="M45.3,7.03c-1.94,0-3.52-1.58-3.52-3.52S43.36,0,45.3,0c1.94,0,3.52,1.58,3.52,3.52S47.23,7.03,45.3,7.03z
			 M45.3,1.4c-1.17,0-2.11,0.95-2.11,2.12s0.95,2.12,2.11,2.12c1.17,0,2.12-0.95,2.12-2.12S46.46,1.4,45.3,1.4z"/>
	</g>
	<rect x="25" y="16.55" class="st0" width="1.4" height="19"/>
	<path class="st0" d="M25.7,17.74c-1.94,0-3.52-1.58-3.52-3.51s1.58-3.52,3.52-3.52s3.52,1.58,3.52,3.52S27.64,17.74,25.7,17.74z
		 M25.7,12.11c-1.17,0-2.12,0.95-2.12,2.12c0,1.16,0.95,2.11,2.12,2.11c1.17,0,2.11-0.95,2.11-2.11
		C27.82,13.06,26.87,12.11,25.7,12.11z"/>
	<polygon class="st0" points="11.9,50.32 10.5,50.32 10.5,40.83 42.78,40.83 42.78,42.23 11.9,42.23 	"/>
	<rect x="6.33" y="30.43" class="st0" width="20.6" height="1.4"/>
	<path class="st0" d="M11.2,56.65c-1.94,0-3.52-1.58-3.52-3.52c0-1.94,1.58-3.51,3.52-3.51s3.52,1.58,3.52,3.51
		C14.72,55.08,13.14,56.65,11.2,56.65z M11.2,51.02c-1.17,0-2.12,0.95-2.12,2.11c0,1.17,0.95,2.12,2.12,2.12
		c1.17,0,2.11-0.95,2.11-2.12C13.31,51.97,12.37,51.02,11.2,51.02z"/>
	<path class="st0" d="M3.52,34.51C1.58,34.51,0,32.93,0,30.99s1.58-3.51,3.52-3.51s3.52,1.58,3.52,3.51S5.45,34.51,3.52,34.51z
		 M3.52,28.88c-1.17,0-2.11,0.95-2.11,2.11c0,1.17,0.95,2.12,2.11,2.12c1.17,0,2.12-0.95,2.12-2.12
		C5.63,29.83,4.68,28.88,3.52,28.88z"/>
	<rect x="31.71" y="35.55" class="st0" width="1.4" height="25.12"/>
	<rect x="51.25" y="37.53" class="st0" width="1.4" height="15.59"/>
	<path class="st0" d="M51.95,59.61c-1.94,0-3.52-1.58-3.52-3.51c0-1.94,1.58-3.52,3.52-3.52c1.94,0,3.52,1.58,3.52,3.52
		C55.47,58.04,53.89,59.61,51.95,59.61z M51.95,53.98c-1.17,0-2.12,0.95-2.12,2.12c0,1.16,0.95,2.11,2.12,2.11
		c1.17,0,2.11-0.95,2.11-2.11C54.07,54.93,53.12,53.98,51.95,53.98z"/>
	<path class="st0" d="M32.41,67c-1.94,0-3.52-1.58-3.52-3.52c0-1.94,1.58-3.52,3.52-3.52s3.52,1.58,3.52,3.52
		C35.93,65.42,34.35,67,32.41,67z M32.41,61.37c-1.17,0-2.12,0.95-2.12,2.12c0,1.17,0.95,2.12,2.12,2.12c1.17,0,2.11-0.95,2.11-2.12
		C34.53,62.32,33.58,61.37,32.41,61.37z"/>
</g>
</svg>
