<?xml version="1.0" encoding="utf-8"?>
<!-- Generator: Adobe Illustrator 23.0.1, SVG Export Plug-In . SVG Version: 6.00 Build 0)  -->
<svg version="1.1" id="Layer_1" xmlns="http://www.w3.org/2000/svg" xmlns:xlink="http://www.w3.org/1999/xlink" x="0px" y="0px"
	 viewBox="0 0 46.83 45" style="enable-background:new 0 0 46.83 45;" xml:space="preserve">
<style type="text/css">
	.st0{fill:#1395D3;}
</style>
<g transform="translate(0,4)">
	<g transform="translate(263.34687,-2093.5564)">
		<g transform="translate(-0.839121,-109.7603)">
			<path class="st0" d="M-220.56,2244.32c2.7,0,4.89-2.19,4.89-4.89c0-2.32-1.63-4.2-3.79-4.71v-12.9v-1.96h-1.96h-16.69v-10.88
				c2.23-0.46,3.91-2.41,3.91-4.77c0-2.7-2.19-4.89-4.89-4.89s-4.89,2.19-4.89,4.89c0,2.36,1.68,4.31,3.91,4.77v10.88h-18.53v1.96
				v12.84c-2.23,0.46-3.91,2.41-3.91,4.77c0,2.7,2.19,4.89,4.89,4.89c2.7,0,4.89-2.19,4.89-4.89c0-2.38-1.66-4.33-3.91-4.77v-12.84
				h16.57v12.84c-2.23,0.46-3.91,2.41-3.91,4.77c0,2.7,2.19,4.89,4.89,4.89s4.89-2.19,4.89-4.89c0-2.36-1.68-4.31-3.91-4.77v-12.84
				h16.69v12.84c-2.31,0.39-4.04,2.35-4.04,4.77C-225.46,2242.13-223.27,2244.32-220.56,2244.32z"/>
		</g>
	</g>
</g>
</svg>
