<?xml version="1.0" encoding="utf-8"?>
<!-- Generator: Adobe Illustrator 23.0.1, SVG Export Plug-In . SVG Version: 6.00 Build 0)  -->
<svg version="1.1" id="Layer_1" xmlns="http://www.w3.org/2000/svg" xmlns:xlink="http://www.w3.org/1999/xlink" x="0px" y="0px"
	 viewBox="0 0 44.37 53.68" style="enable-background:new 0 0 44.37 53.68;" xml:space="preserve">
<style type="text/css">
	.st0{fill-rule:evenodd;clip-rule:evenodd;fill:#1395D3;}
	.st1{fill:#1395D3;}
</style>
<path class="st0" d="M38.07,35.56l-2.37-1.05c-0.3,0.3-0.69,0.55-1.07,0.8l0.42,2.52c0.11,0.42-0.16,0.87-0.63,1.06l-1.64,0.34
	c-0.48,0.2-0.92-0.07-1.11-0.54l-0.84-2.41c-0.46-0.03-0.92-0.07-1.32-0.19L28,38.2c-0.3,0.3-0.77,0.5-1.22,0.23l-1.5-0.89
	c-0.35-0.21-0.5-0.77-0.29-1.13l1.05-2.37c-0.3-0.3-0.55-0.69-0.8-1.07l-2.52,0.42c-0.42,0.11-0.87-0.16-1.01-0.72l-0.39-1.55
	c-0.14-0.56,0.12-1.01,0.54-1.11l2.41-0.84c0.03-0.46,0.16-0.87,0.19-1.32l-2.05-1.58c-0.35-0.21-0.5-0.77-0.29-1.13l0.89-1.5
	c0.26-0.44,0.77-0.5,1.18-0.38l2.32,1.14c0.39-0.25,0.69-0.55,1.07-0.8l-0.42-2.52c-0.06-0.51,0.21-0.95,0.72-1.01l1.6-0.48
	c0.51-0.06,0.95,0.21,1.06,0.63l0.93,2.47c0.37-0.02,0.78,0.1,1.24,0.14l1.58-2.05c0.26-0.44,0.77-0.5,1.13-0.29l1.5,0.89
	c0.44,0.26,0.55,0.69,0.38,1.18l-1.14,2.32c0.25,0.39,0.55,0.69,0.8,1.07l2.52-0.42c0.51-0.06,0.95,0.21,1.06,0.63l0.43,1.69
	c0.11,0.42-0.16,0.87-0.63,1.06l-2.41,0.84c-0.03,0.46-0.07,0.92-0.19,1.32l2.11,1.49c0.39,0.35,0.5,0.77,0.23,1.22l-0.89,1.5
	C38.99,35.63,38.51,35.83,38.07,35.56z M28.47,27.94c-0.84,1.42-0.43,3.34,1.08,4.23c1.42,0.84,3.39,0.34,4.23-1.08
	c0.89-1.5,0.34-3.39-1.08-4.23C31.2,25.97,29.37,26.44,28.47,27.94z"/>
<path class="st0" d="M22.97,21.12l-1.29-1.49c-0.24,0.15-0.58,0.24-0.96,0.15l-0.48,2.04c-0.13,0.21-0.43,0.47-0.81,0.39L18.09,22
	c-0.39-0.08-0.47-0.43-0.56-0.77l0.25-1.89c-0.32-0.19-0.64-0.38-0.8-0.62l-1.75,0.99c-0.34,0.09-0.73,0-0.88-0.23l-0.82-1.07
	c-0.19-0.41-0.11-0.79,0.12-0.94l1.6-1.23c-0.09-0.34-0.17-0.68-0.26-1.03l-1.87-0.53c-0.39-0.08-0.58-0.49-0.56-0.77l0.32-1.27
	c0.08-0.39,0.38-0.64,0.66-0.62l2.06,0.21c0.13-0.21,0.32-0.54,0.51-0.86l-0.99-1.75C14.97,9.39,15.06,9,15.36,8.74l1.11-0.65
	c0.3-0.26,0.68-0.17,0.84,0.06l1.4,1.56c0.24-0.15,0.58-0.24,0.86-0.22l0.59-1.97c0.13-0.21,0.43-0.47,0.81-0.39l1.33,0.21
	c0.28,0.02,0.47,0.43,0.45,0.71l-0.21,2.06c0.32,0.19,0.64,0.38,0.86,0.51l1.75-0.99c0.34-0.09,0.73,0,0.88,0.23l0.82,1.07
	c0.09,0.34,0.11,0.79-0.12,0.94l-1.6,1.23c0.09,0.34,0.17,0.68,0.15,0.96l1.97,0.59c0.39,0.08,0.47,0.43,0.56,0.77l-0.32,1.27
	c-0.08,0.39-0.38,0.64-0.77,0.56l-1.95-0.14c-0.13,0.21-0.32,0.54-0.51,0.86l0.89,1.69c0.26,0.3,0.17,0.68-0.23,0.88l-1,0.71
	C23.62,21.5,23.23,21.42,22.97,21.12z M18.82,12.69c-1.07,0.82-1.34,2.26-0.63,3.26c0.75,1.18,2.19,1.45,3.26,0.63
	c1.11-0.65,1.45-2.19,0.63-3.26C21.37,12.32,19.93,12.05,18.82,12.69z"/>
<g>
	<path class="st1" d="M9.21,0v45h35.16V7.03L38.04,0H9.21z M38.07,2.13l4.49,4.98h-4.49V2.13z M10.62,43.59V1.41h26.05v7.12h6.3
		v35.07H10.62z"/>
</g>
<polygon class="st1" points="40.82,48.98 4.98,48.98 4.98,3.94 6.98,1.94 6.98,46.98 42.82,46.98 "/>
<polygon class="st1" points="36.35,53.68 0,53.68 0,8.13 3,5.13 3,50.68 39.35,50.68 "/>
</svg>
