<?xml version="1.0" encoding="utf-8"?>
<!-- Generator: Adobe Illustrator 23.0.1, SVG Export Plug-In . SVG Version: 6.00 Build 0)  -->
<svg version="1.1" id="Layer_1" xmlns="http://www.w3.org/2000/svg" xmlns:xlink="http://www.w3.org/1999/xlink" x="0px" y="0px"
	 viewBox="0 0 28.25 37.95" style="enable-background:new 0 0 28.25 37.95;" xml:space="preserve" preserveAspectRatio="xMinYMid">
<style type="text/css">
	.st0{fill:#1395D3;}
</style>
<g>
	<path class="st0" d="M27.99,5.92L19.22,0.1c-0.26-0.17-0.62-0.1-0.79,0.16l-2.15,3.23c-0.17,0.26-0.1,0.62,0.16,0.79l8.78,5.83
		c0.26,0.17,0.62,0.1,0.79-0.16l2.15-3.23C28.33,6.45,28.26,6.1,27.99,5.92z"/>
	<path class="st0" d="M24.46,10.69L16.2,5.21c-0.41-0.27-0.94-0.18-1.19,0.19L0,28l0.4,9.95l9.33-3.49l15.01-22.6
		C24.99,11.48,24.86,10.96,24.46,10.69z M4.24,35.41l-2.93-1.95l-0.09-3.69l6.41,4.26L4.24,35.41z M22.96,12.11L9.18,32.85
		c-0.16,0.24-0.5,0.3-0.77,0.12l-2.8-1.86c-0.26-0.17-0.34-0.51-0.18-0.75L19.21,9.62c0.16-0.24,0.5-0.3,0.77-0.12l2.8,1.86
		C23.04,11.53,23.12,11.87,22.96,12.11z"/>
</g>
</svg>
