<?xml version="1.0" encoding="utf-8"?>
<!-- Generator: Adobe Illustrator 23.0.1, SVG Export Plug-In . SVG Version: 6.00 Build 0)  -->
<svg version="1.1" id="Layer_1" xmlns="http://www.w3.org/2000/svg" xmlns:xlink="http://www.w3.org/1999/xlink" x="0px" y="0px"
	 viewBox="0 0 57.06 52.5" style="enable-background:new 0 0 57.06 52.5;" xml:space="preserve">
<style type="text/css">
	.st0{fill:#969CA7;}
</style>
<g>
	<g>
		<path class="st0" d="M10.84,32.83c-0.31,0.31-0.51,0.69-0.59,1.09c0.14,0.06,0.27,0.1,0.41,0.17c0.32-0.8,0.68-1.52,1.08-2.16
			L10.84,32.83z"/>
		<path class="st0" d="M26.68,30.35c0.1-0.13,0.23-0.24,0.34-0.35c-0.26-0.04-0.51-0.09-0.76-0.15
			C26.41,30.01,26.55,30.18,26.68,30.35z"/>
		<path class="st0" d="M8.34,26.63h2.27c0.88,0,1.67,0.56,1.94,1.39c0.09,0.28,0.23,0.56,0.32,0.83c0.21,0.45,0.22,0.94,0.1,1.4
			c2.76-3.09,6.45-3.51,9.4-2.66c-1.38-1.45-2.23-3.41-2.23-5.59c0-4.49,3.61-8.1,8.1-8.1s8.1,3.61,8.1,8.1
			c0,2.22-0.89,4.23-2.32,5.69c3.33,0.16,6.48,1.66,6.98,4.18c1.03-0.36,1.98-0.62,2.89-0.83c-0.52-0.6-0.67-1.45-0.32-2.24
			c0.14-0.28,0.23-0.56,0.32-0.83c0.32-0.83,1.07-1.39,1.94-1.39h2.32c1.16,0,2.08-0.93,2.08-2.08V19.4c0-1.11-0.93-2.04-2.08-2.04
			h-2.32c-0.88,0-1.62-0.56-1.94-1.39c-0.09-0.28-0.23-0.56-0.32-0.79c-0.37-0.79-0.23-1.76,0.42-2.36l1.67-1.67
			c0.83-0.83,0.83-2.13,0-2.96l-3.61-3.61c-0.83-0.83-2.13-0.83-2.96,0l-1.67,1.67c-0.6,0.6-1.57,0.79-2.36,0.42
			c-0.28-0.09-0.51-0.23-0.79-0.32c-0.83-0.32-1.39-1.07-1.39-1.94V2.08c0-1.16-0.93-2.08-2.08-2.08H25.7
			c-1.16,0-2.08,0.93-2.08,2.08v2.36c0,0.88-0.56,1.67-1.39,1.94c-0.28,0.09-0.51,0.19-0.79,0.32c-0.79,0.37-1.71,0.19-2.36-0.42
			l-1.67-1.67c-0.83-0.83-2.13-0.83-2.96,0l-3.61,3.61c-0.83,0.83-0.83,2.13,0,2.96l1.67,1.67c0.6,0.6,0.79,1.57,0.42,2.36
			c-0.14,0.28-0.23,0.51-0.32,0.79c-0.32,0.83-1.07,1.39-1.94,1.39H8.34c-1.16,0-2.08,0.93-2.08,2.08v5.09
			C6.25,25.7,7.18,26.63,8.34,26.63z"/>
	</g>
	<path class="st0" d="M24.14,52.5c-1.16,0-2.32-0.09-3.43-0.26c-4.54-0.71-9.83-2.97-10.68-7.1c-5.44,1.95-7.95-0.35-8.8-1.48
		c-1.81-2.41-1.61-6.3,0.46-8.85c0.97-1.19,3.68-3.65,8.58-1.71c1.74-3.83,4.64-6.16,8.23-6.58c3.4-0.41,6.53,0.97,8.2,2.7
		c2.48-2.36,6.66-2.7,9.72-1.96c2.53,0.61,4.36,1.95,5.07,3.65c9.32-3.03,13.05,0.84,14.24,2.69c2.09,3.25,1.65,7.96-1.01,10.73
		c-1.18,1.22-4.41,3.64-9.79,0.93c-0.4,1.48-1.55,2.69-3.3,3.41c-2.47,1.02-5.44,0.81-7.37-0.45C32.58,51.26,28.39,52.5,24.14,52.5z
		 M11.39,42.96l0.03,1.1c0.09,3.61,4.85,5.96,9.53,6.69c5.17,0.8,11.06-0.3,12.33-3.96l0.39-1.13l0.85,0.85
		c1.39,1.38,4.27,1.73,6.56,0.78c0.94-0.39,2.52-1.33,2.52-3.21v-1.32l1.13,0.67c3.56,2.1,6.81,2.05,8.92-0.14
		c2.2-2.29,2.57-6.19,0.83-8.88c-2.17-3.37-6.99-4.04-13.22-1.84l-0.82,0.29l-0.17-0.85c-0.3-1.5-1.87-2.73-4.2-3.3
		c-2.97-0.72-6.95-0.23-8.81,2.1l-0.62,0.78l-0.58-0.81c-1.16-1.64-4.15-3.17-7.39-2.78c-2.29,0.27-5.41,1.6-7.31,6.36l-0.29,0.74
		l-0.72-0.33c-3.09-1.44-5.82-1.08-7.49,0.98c-1.63,2.01-1.82,5.15-0.42,7c1.46,1.95,4.28,2.17,7.94,0.64L11.39,42.96z"/>
</g>
</svg>
