<?xml version="1.0" encoding="utf-8"?>
<!-- Generator: Adobe Illustrator 23.0.1, SVG Export Plug-In . SVG Version: 6.00 Build 0)  -->
<svg version="1.1" id="Layer_1" xmlns="http://www.w3.org/2000/svg" xmlns:xlink="http://www.w3.org/1999/xlink" x="0px" y="0px"
	 viewBox="0 0 47.22 48" style="enable-background:new 0 0 47.22 48;" xml:space="preserve" preserveAspectRatio="xMinYMid">
<style type="text/css">
	.st0{fill:#1395D3;}
</style>
<g>
	<path class="st0" d="M22.7,45.42c-6.07,0-11.77-2.36-16.06-6.65c-8.86-8.85-8.86-23.26,0-32.12C10.93,2.36,16.63,0,22.7,0
		s11.77,2.36,16.06,6.65l0,0l0,0c4.29,4.29,6.65,9.99,6.65,16.06c0,6.07-2.36,11.77-6.65,16.06C34.47,43.06,28.77,45.42,22.7,45.42z
		 M22.7,3.93c-5.02,0-9.74,1.95-13.28,5.5c-7.32,7.32-7.32,19.24,0,26.57c3.55,3.55,8.27,5.5,13.28,5.5s9.73-1.95,13.28-5.5
		c3.55-3.55,5.5-8.27,5.5-13.28c0-5.02-1.95-9.74-5.5-13.28l0,0C32.44,5.88,27.72,3.93,22.7,3.93z"/>
	<path class="st0" d="M46.46,46.52l-0.72,0.72c-1.01,1.01-2.64,1.01-3.65,0l-5.83-5.83c-1.01-1.01-1.01-2.64,0-3.65l0.72-0.72
		c1.01-1.01,2.64-1.01,3.65,0l5.83,5.83C47.47,43.88,47.47,45.51,46.46,46.52z"/>
	<path class="st0" d="M36.01,19.62h-1.55c-0.59,0-1.08-0.37-1.3-0.93c-0.06-0.19-0.15-0.37-0.22-0.53
		c-0.25-0.53-0.15-1.18,0.28-1.58l1.11-1.11c0.56-0.56,0.56-1.42,0-1.98l-2.41-2.41c-0.56-0.56-1.42-0.56-1.98,0l-1.11,1.11
		c-0.4,0.4-1.05,0.53-1.58,0.28c-0.19-0.06-0.34-0.15-0.53-0.22c-0.56-0.22-0.93-0.71-0.93-1.3V9.41c0-0.77-0.62-1.39-1.39-1.39H21
		c-0.77,0-1.39,0.62-1.39,1.39v1.58c0,0.59-0.37,1.11-0.93,1.3c-0.19,0.06-0.34,0.12-0.53,0.22c-0.53,0.25-1.14,0.12-1.58-0.28
		l-1.11-1.11c-0.56-0.56-1.42-0.56-1.98,0l-2.41,2.41c-0.56,0.56-0.56,1.42,0,1.98l1.11,1.11c0.4,0.4,0.53,1.05,0.28,1.58
		c-0.09,0.19-0.15,0.34-0.22,0.53c-0.22,0.56-0.71,0.93-1.3,0.93H9.41c-0.77,0-1.39,0.62-1.39,1.39v3.4c0,0.74,0.62,1.36,1.39,1.36
		h1.52c0.59,0,1.11,0.37,1.3,0.93c0.06,0.19,0.15,0.37,0.22,0.56c0.25,0.53,0.12,1.14-0.28,1.58l-1.08,1.08
		c-0.56,0.56-0.56,1.42,0,1.98l2.41,2.41c0.56,0.56,1.42,0.56,1.98,0l1.05-1.05c0.4-0.4,1.02-0.53,1.55-0.28
		c0.22,0.09,0.43,0.19,0.62,0.28c0.53,0.22,0.9,0.71,0.9,1.3v1.42c0,0.77,0.62,1.39,1.39,1.39h3.4c0.77,0,1.39-0.62,1.39-1.39V34.5
		c0-0.56,0.34-1.08,0.9-1.3c0.22-0.09,0.43-0.15,0.62-0.28c0.53-0.25,1.14-0.12,1.55,0.28l1.05,1.05c0.56,0.56,1.42,0.56,1.98,0
		l2.41-2.41c0.56-0.56,0.56-1.42,0-1.98l-1.05-1.02c-0.4-0.4-0.53-1.02-0.28-1.58c0.09-0.19,0.15-0.37,0.22-0.56
		c0.22-0.56,0.71-0.93,1.3-0.93h1.55c0.77,0,1.39-0.62,1.39-1.39v-3.4C37.4,20.24,36.78,19.62,36.01,19.62z M22.71,28.12
		c-3,0-5.41-2.41-5.41-5.41s2.41-5.41,5.41-5.41s5.41,2.41,5.41,5.41S25.71,28.12,22.71,28.12z"/>
</g>
</svg>
