<?xml version="1.0" encoding="utf-8"?>
<!-- Generator: Adobe Illustrator 23.0.1, SVG Export Plug-In . SVG Version: 6.00 Build 0)  -->
<svg version="1.1" id="Layer_1" xmlns="http://www.w3.org/2000/svg" xmlns:xlink="http://www.w3.org/1999/xlink" x="0px" y="0px"
	 viewBox="0 0 40.12 44.65" style="enable-background:new 0 0 40.12 44.65;" xml:space="preserve">
<style type="text/css">
	.st0{fill:#1395D3;}
</style>
<g>
	<path class="st0" d="M12.81,8.92c-4.35,0-7.31,3.39-7.31,7.58c0,4.19,2.96,7.58,7.31,7.58c4.35,0,7.31-3.4,7.31-7.58
		C20.11,12.31,17.16,8.92,12.81,8.92z"/>
	<path class="st0" d="M0,38.19c0.1,2,0.81,4.24,1.96,5.52c1.11,1.29,21.27,1.2,21.69,0c1.15-1.28,1.86-3.52,1.96-5.52
		c0-6.8-5.7-12.31-12.75-12.37v-0.01c-0.02,0-0.04,0-0.06,0c-0.02,0-0.04,0-0.06,0v0.01C5.7,25.89,0,31.4,0,38.19z"/>
	<path class="st0" d="M27.31,0C22.96,0,20,3.39,20,7.58c0,4.19,2.96,7.58,7.31,7.58c4.35,0,7.31-3.4,7.31-7.58
		C34.62,3.39,31.67,0,27.31,0z"/>
	<path class="st0" d="M27.37,16.91L27.37,16.91c-0.02-0.01-0.04,0-0.06,0c-0.02,0-0.04,0-0.06,0v0.01
		c-1.88,0.02-3.67,0.42-5.27,1.14c-0.42,2.87-1.98,5.24-4.25,6.65c4.95,1.72,8.7,5.93,9.63,11.04c5.3,0,10.58-0.33,10.79-0.94
		c1.15-1.28,1.86-3.52,1.96-5.52C40.12,22.48,34.42,16.97,27.37,16.91z"/>
</g>
</svg>
