<?xml version="1.0" encoding="utf-8"?>
<!-- Generator: Adobe Illustrator 23.0.1, SVG Export Plug-In . SVG Version: 6.00 Build 0)  -->
<svg version="1.1" id="Layer_1" xmlns="http://www.w3.org/2000/svg" xmlns:xlink="http://www.w3.org/1999/xlink" x="0px" y="0px"
	 viewBox="0 0 34.4 35.56" style="enable-background:new 0 0 34.4 35.56;" xml:space="preserve">
<style type="text/css">
	.st0{fill:#FFFFFF;}
</style>
<g>
	<path class="st0" d="M33.63,0H0.76C0.47,0,0.2,0.17,0.07,0.44s-0.09,0.58,0.09,0.81l11.3,14.09l0,0c0.98,1.22,1.52,2.76,1.52,4.32
		v8.98c0,0.22,0.09,0.43,0.25,0.58l6.88,6.14c0.15,0.13,0.33,0.19,0.51,0.19c0.11,0,0.22-0.02,0.31-0.07
		c0.28-0.12,0.45-0.4,0.45-0.7V19.67c0-1.57,0.54-3.1,1.52-4.32l11.3-14.09c0.18-0.23,0.22-0.55,0.09-0.81
		C34.2,0.17,33.93,0,33.63,0z"/>
</g>
</svg>
