<?xml version="1.0" encoding="utf-8"?>
<!-- Generator: Adobe Illustrator 23.0.1, SVG Export Plug-In . SVG Version: 6.00 Build 0)  -->
<svg version="1.1" id="Layer_1" xmlns="http://www.w3.org/2000/svg" xmlns:xlink="http://www.w3.org/1999/xlink" x="0px" y="0px"
	 viewBox="0 0 27.43 39" style="enable-background:new 0 0 27.43 39;" xml:space="preserve" preserveAspectRatio="xMinYMid">
<style type="text/css">
	.st0{fill:#A4A9B2;}
</style>
<g>
	<path class="st0" d="M26.52,5.35h-7.56c0-0.04,0-0.08,0-0.11c0-2.89-2.35-5.24-5.24-5.24c-2.89,0-5.24,2.35-5.24,5.24
		c0,0.03,0.01,0.07,0.01,0.11H0.91C0.41,5.35,0,5.76,0,6.27v3.66c0,0.5,0.41,0.91,0.91,0.91h25.61c0.5,0,0.91-0.41,0.91-0.91V6.27
		C27.43,5.76,27.02,5.35,26.52,5.35z M10.16,4.54c0.33-1.66,1.8-2.92,3.55-2.92s3.23,1.26,3.55,2.92H10.16z"/>
	<path class="st0" d="M3.15,35.97C3.28,37.67,4.83,39,6.7,39h14.04c1.86,0,3.42-1.33,3.55-3.02L26,12.69H1.44L3.15,35.97z
		 M19.82,17.56c0.03-0.42,0.4-0.73,0.82-0.7c0.42,0.03,0.73,0.4,0.7,0.82l-1.38,17.76c-0.03,0.42-0.4,0.73-0.82,0.7
		c-0.42-0.03-0.73-0.4-0.7-0.82L19.82,17.56z M12.96,17.59c0-0.42,0.34-0.76,0.76-0.76s0.76,0.34,0.76,0.76v17.81
		c0,0.42-0.34,0.76-0.76,0.76s-0.76-0.34-0.76-0.76V17.59z M6.8,16.86c0.42-0.03,0.78,0.28,0.82,0.7l1.38,17.76
		c0.03,0.42-0.28,0.78-0.7,0.82c-0.42,0.03-0.78-0.28-0.82-0.7L6.1,17.68C6.07,17.26,6.38,16.9,6.8,16.86z"/>
</g>
</svg>
