<?xml version="1.0" encoding="utf-8"?>
<!-- Generator: Adobe Illustrator 23.0.1, SVG Export Plug-In . SVG Version: 6.00 Build 0)  -->
<svg version="1.1" id="Layer_1" xmlns="http://www.w3.org/2000/svg" xmlns:xlink="http://www.w3.org/1999/xlink" x="0px" y="0px"
	 viewBox="0 0 34.52 45" style="enable-background:new 0 0 34.52 45;" xml:space="preserve">
<style type="text/css">
	.st0{fill:#969CA7;}
</style>
<path class="st0" d="M3.89,13.51v4.71H3.56C1.59,18.22,0,19.81,0,21.78v19.66C0,43.41,1.59,45,3.56,45h27.4
	c1.97,0,3.56-1.59,3.56-3.56V21.78c0-1.97-1.59-3.56-3.56-3.56h-0.1v-4.71C30.87,6.06,24.81,0,17.36,0C9.95,0,3.89,6.06,3.89,13.51z
	 M19.42,32.45c-0.29,0.19-0.34,0.38-0.34,0.72c0,1.44,0,2.88,0,4.33l0,0c0.05,0.58-0.29,1.2-0.82,1.44c-1.25,0.62-2.5-0.24-2.5-1.44
	l0,0c0-1.44,0-2.88,0-4.33c0-0.29-0.05-0.48-0.34-0.67c-1.3-0.96-1.73-2.6-1.11-4.04c0.62-1.39,2.16-2.21,3.65-1.92
	c1.63,0.34,2.74,1.63,2.79,3.27C20.77,30.91,20.34,31.83,19.42,32.45z M9.81,13.51c0-4.18,3.41-7.6,7.6-7.6s7.6,3.41,7.6,7.6v4.71
	H9.81V13.51z"/>
</svg>
