<?xml version="1.0" encoding="utf-8"?>
<!-- Generator: Adobe Illustrator 23.0.1, SVG Export Plug-In . SVG Version: 6.00 Build 0)  -->
<svg version="1.1" id="Layer_1" xmlns="http://www.w3.org/2000/svg" xmlns:xlink="http://www.w3.org/1999/xlink" x="0px" y="0px"
	 viewBox="0 0 24.25 10.59" style="enable-background:new 0 0 24.25 10.59;" xml:space="preserve" preserveAspectRatio="xMaxYMid">
<style type="text/css">
	.st0{fill:#A4A9B2;}
</style>
<path class="st0" d="M18.04,0.39c-0.52-0.52-1.36-0.52-1.88,0L9.62,6.93C9.51,7.04,9.36,7.11,9.2,7.1c-0.15,0-0.28-0.06-0.39-0.17
	L2.27,0.41c-0.52-0.52-1.36-0.52-1.88,0C0.14,0.66,0,0.99,0,1.35C0,1.7,0.14,2.03,0.39,2.28l7.97,7.95
	c0.23,0.23,0.54,0.36,0.87,0.36c0.01,0,0.01,0,0.02,0c0.32,0,0.62-0.14,0.83-0.36l7.97-7.97c0.25-0.25,0.39-0.58,0.39-0.94
	C18.43,0.97,18.29,0.64,18.04,0.39z"/>
</svg>
